<?xml version="1.0" encoding="utf-8" standalone="no"?>
<!DOCTYPE svg PUBLIC "-//W3C//DTD SVG 1.1//EN"
  "http://www.w3.org/Graphics/SVG/1.1/DTD/svg11.dtd">
<!-- Created with matplotlib (https://matplotlib.org/) -->
<svg height="345.6pt" version="1.1" viewBox="0 0 460.8 345.6" width="460.8pt" xmlns="http://www.w3.org/2000/svg" xmlns:xlink="http://www.w3.org/1999/xlink">
 <defs>
  <style type="text/css">
*{stroke-linecap:butt;stroke-linejoin:round;}
  </style>
 </defs>
 <g id="figure_1">
  <g id="patch_1">
   <path d="M 0 345.6 
L 460.8 345.6 
L 460.8 0 
L 0 0 
z
" style="fill:#ffffff;"/>
  </g>
  <g id="axes_1">
   <g id="patch_2">
    <path d="M 25.903365 116.790488 
L 457.79976 116.790488 
L 457.79976 18.118365 
L 25.903365 18.118365 
z
" style="fill:#ffffff;"/>
   </g>
   <g id="patch_3">
    <path clip-path="url(#pa084a2a90e)" d="M 110.018555 112.305391 
L 138.677905 112.305391 
L 138.677905 22.603461 
L 110.018555 22.603461 
z
" style="fill:#0000ff;opacity:0.25;"/>
   </g>
   <g id="matplotlib.axis_1">
    <g id="xtick_1">
     <g id="line2d_1">
      <defs>
       <path d="M 0 0 
L 0 3.5 
" id="ma8cb26f817" style="stroke:#000000;stroke-width:0.8;"/>
      </defs>
      <g>
       <use style="stroke:#000000;stroke-width:0.8;" x="45.535019" xlink:href="#ma8cb26f817" y="116.790488"/>
      </g>
     </g>
     <g id="text_1">
      <!-- 0 -->
      <defs>
       <path d="M 31.78125 66.40625 
Q 24.171875 66.40625 20.328125 58.90625 
Q 16.5 51.421875 16.5 36.375 
Q 16.5 21.390625 20.328125 13.890625 
Q 24.171875 6.390625 31.78125 6.390625 
Q 39.453125 6.390625 43.28125 13.890625 
Q 47.125 21.390625 47.125 36.375 
Q 47.125 51.421875 43.28125 58.90625 
Q 39.453125 66.40625 31.78125 66.40625 
z
M 31.78125 74.21875 
Q 44.046875 74.21875 50.515625 64.515625 
Q 56.984375 54.828125 56.984375 36.375 
Q 56.984375 17.96875 50.515625 8.265625 
Q 44.046875 -1.421875 31.78125 -1.421875 
Q 19.53125 -1.421875 13.0625 8.265625 
Q 6.59375 17.96875 6.59375 36.375 
Q 6.59375 54.828125 13.0625 64.515625 
Q 19.53125 74.21875 31.78125 74.21875 
z
" id="DejaVuSans-48"/>
      </defs>
      <g transform="translate(42.353769 131.388925)scale(0.1 -0.1)">
       <use xlink:href="#DejaVuSans-48"/>
      </g>
     </g>
    </g>
    <g id="xtick_2">
     <g id="line2d_2">
      <g>
       <use style="stroke:#000000;stroke-width:0.8;" x="117.183393" xlink:href="#ma8cb26f817" y="116.790488"/>
      </g>
     </g>
     <g id="text_2">
      <!-- 50 -->
      <defs>
       <path d="M 10.796875 72.90625 
L 49.515625 72.90625 
L 49.515625 64.59375 
L 19.828125 64.59375 
L 19.828125 46.734375 
Q 21.96875 47.46875 24.109375 47.828125 
Q 26.265625 48.1875 28.421875 48.1875 
Q 40.625 48.1875 47.75 41.5 
Q 54.890625 34.8125 54.890625 23.390625 
Q 54.890625 11.625 47.5625 5.09375 
Q 40.234375 -1.421875 26.90625 -1.421875 
Q 22.3125 -1.421875 17.546875 -0.640625 
Q 12.796875 0.140625 7.71875 1.703125 
L 7.71875 11.625 
Q 12.109375 9.234375 16.796875 8.0625 
Q 21.484375 6.890625 26.703125 6.890625 
Q 35.15625 6.890625 40.078125 11.328125 
Q 45.015625 15.765625 45.015625 23.390625 
Q 45.015625 31 40.078125 35.4375 
Q 35.15625 39.890625 26.703125 39.890625 
Q 22.75 39.890625 18.8125 39.015625 
Q 14.890625 38.140625 10.796875 36.28125 
z
" id="DejaVuSans-53"/>
      </defs>
      <g transform="translate(110.820893 131.388925)scale(0.1 -0.1)">
       <use xlink:href="#DejaVuSans-53"/>
       <use x="63.623047" xlink:href="#DejaVuSans-48"/>
      </g>
     </g>
    </g>
    <g id="xtick_3">
     <g id="line2d_3">
      <g>
       <use style="stroke:#000000;stroke-width:0.8;" x="188.831766" xlink:href="#ma8cb26f817" y="116.790488"/>
      </g>
     </g>
     <g id="text_3">
      <!-- 100 -->
      <defs>
       <path d="M 12.40625 8.296875 
L 28.515625 8.296875 
L 28.515625 63.921875 
L 10.984375 60.40625 
L 10.984375 69.390625 
L 28.421875 72.90625 
L 38.28125 72.90625 
L 38.28125 8.296875 
L 54.390625 8.296875 
L 54.390625 0 
L 12.40625 0 
z
" id="DejaVuSans-49"/>
      </defs>
      <g transform="translate(179.288016 131.388925)scale(0.1 -0.1)">
       <use xlink:href="#DejaVuSans-49"/>
       <use x="63.623047" xlink:href="#DejaVuSans-48"/>
       <use x="127.246094" xlink:href="#DejaVuSans-48"/>
      </g>
     </g>
    </g>
    <g id="xtick_4">
     <g id="line2d_4">
      <g>
       <use style="stroke:#000000;stroke-width:0.8;" x="260.48014" xlink:href="#ma8cb26f817" y="116.790488"/>
      </g>
     </g>
     <g id="text_4">
      <!-- 150 -->
      <g transform="translate(250.93639 131.388925)scale(0.1 -0.1)">
       <use xlink:href="#DejaVuSans-49"/>
       <use x="63.623047" xlink:href="#DejaVuSans-53"/>
       <use x="127.246094" xlink:href="#DejaVuSans-48"/>
      </g>
     </g>
    </g>
    <g id="xtick_5">
     <g id="line2d_5">
      <g>
       <use style="stroke:#000000;stroke-width:0.8;" x="332.128513" xlink:href="#ma8cb26f817" y="116.790488"/>
      </g>
     </g>
     <g id="text_5">
      <!-- 200 -->
      <defs>
       <path d="M 19.1875 8.296875 
L 53.609375 8.296875 
L 53.609375 0 
L 7.328125 0 
L 7.328125 8.296875 
Q 12.9375 14.109375 22.625 23.890625 
Q 32.328125 33.6875 34.8125 36.53125 
Q 39.546875 41.84375 41.421875 45.53125 
Q 43.3125 49.21875 43.3125 52.78125 
Q 43.3125 58.59375 39.234375 62.25 
Q 35.15625 65.921875 28.609375 65.921875 
Q 23.96875 65.921875 18.8125 64.3125 
Q 13.671875 62.703125 7.8125 59.421875 
L 7.8125 69.390625 
Q 13.765625 71.78125 18.9375 73 
Q 24.125 74.21875 28.421875 74.21875 
Q 39.75 74.21875 46.484375 68.546875 
Q 53.21875 62.890625 53.21875 53.421875 
Q 53.21875 48.921875 51.53125 44.890625 
Q 49.859375 40.875 45.40625 35.40625 
Q 44.1875 33.984375 37.640625 27.21875 
Q 31.109375 20.453125 19.1875 8.296875 
z
" id="DejaVuSans-50"/>
      </defs>
      <g transform="translate(322.584763 131.388925)scale(0.1 -0.1)">
       <use xlink:href="#DejaVuSans-50"/>
       <use x="63.623047" xlink:href="#DejaVuSans-48"/>
       <use x="127.246094" xlink:href="#DejaVuSans-48"/>
      </g>
     </g>
    </g>
    <g id="xtick_6">
     <g id="line2d_6">
      <g>
       <use style="stroke:#000000;stroke-width:0.8;" x="403.776886" xlink:href="#ma8cb26f817" y="116.790488"/>
      </g>
     </g>
     <g id="text_6">
      <!-- 250 -->
      <g transform="translate(394.233136 131.388925)scale(0.1 -0.1)">
       <use xlink:href="#DejaVuSans-50"/>
       <use x="63.623047" xlink:href="#DejaVuSans-53"/>
       <use x="127.246094" xlink:href="#DejaVuSans-48"/>
      </g>
     </g>
    </g>
   </g>
   <g id="matplotlib.axis_2">
    <g id="ytick_1">
     <g id="line2d_7">
      <defs>
       <path d="M 0 0 
L -3.5 0 
" id="mf1a8c52ce9" style="stroke:#000000;stroke-width:0.8;"/>
      </defs>
      <g>
       <use style="stroke:#000000;stroke-width:0.8;" x="25.903365" xlink:href="#mf1a8c52ce9" y="110.948859"/>
      </g>
     </g>
     <g id="text_7">
      <!-- −2 -->
      <defs>
       <path d="M 10.59375 35.5 
L 73.1875 35.5 
L 73.1875 27.203125 
L 10.59375 27.203125 
z
" id="DejaVuSans-8722"/>
      </defs>
      <g transform="translate(4.161178 114.748078)scale(0.1 -0.1)">
       <use xlink:href="#DejaVuSans-8722"/>
       <use x="83.789062" xlink:href="#DejaVuSans-50"/>
      </g>
     </g>
    </g>
    <g id="ytick_2">
     <g id="line2d_8">
      <g>
       <use style="stroke:#000000;stroke-width:0.8;" x="25.903365" xlink:href="#mf1a8c52ce9" y="81.174727"/>
      </g>
     </g>
     <g id="text_8">
      <!-- 0 -->
      <g transform="translate(12.540865 84.973946)scale(0.1 -0.1)">
       <use xlink:href="#DejaVuSans-48"/>
      </g>
     </g>
    </g>
    <g id="ytick_3">
     <g id="line2d_9">
      <g>
       <use style="stroke:#000000;stroke-width:0.8;" x="25.903365" xlink:href="#mf1a8c52ce9" y="51.400596"/>
      </g>
     </g>
     <g id="text_9">
      <!-- 2 -->
      <g transform="translate(12.540865 55.199814)scale(0.1 -0.1)">
       <use xlink:href="#DejaVuSans-50"/>
      </g>
     </g>
    </g>
    <g id="ytick_4">
     <g id="line2d_10">
      <g>
       <use style="stroke:#000000;stroke-width:0.8;" x="25.903365" xlink:href="#mf1a8c52ce9" y="21.626464"/>
      </g>
     </g>
     <g id="text_10">
      <!-- 4 -->
      <defs>
       <path d="M 37.796875 64.3125 
L 12.890625 25.390625 
L 37.796875 25.390625 
z
M 35.203125 72.90625 
L 47.609375 72.90625 
L 47.609375 25.390625 
L 58.015625 25.390625 
L 58.015625 17.1875 
L 47.609375 17.1875 
L 47.609375 0 
L 37.796875 0 
L 37.796875 17.1875 
L 4.890625 17.1875 
L 4.890625 26.703125 
z
" id="DejaVuSans-52"/>
      </defs>
      <g transform="translate(12.540865 25.425683)scale(0.1 -0.1)">
       <use xlink:href="#DejaVuSans-52"/>
      </g>
     </g>
    </g>
   </g>
   <g id="line2d_11">
    <path clip-path="url(#pa084a2a90e)" d="M 45.535019 73.060372 
L 46.967987 71.363286 
L 48.400954 72.058586 
L 49.833922 73.040387 
L 51.266889 73.238 
L 52.699857 72.330471 
L 54.132824 72.296616 
L 55.565792 73.146725 
L 58.431727 72.286474 
L 59.864694 71.735395 
L 61.297661 72.455154 
L 62.730629 71.880361 
L 65.596564 72.369845 
L 67.029531 71.82324 
L 68.462499 72.025029 
L 69.895466 71.882449 
L 71.328434 73.031289 
L 72.761401 71.612651 
L 74.194369 72.981028 
L 75.627336 72.066639 
L 77.060304 72.554781 
L 78.493271 71.694232 
L 79.926239 72.610709 
L 82.792173 71.658736 
L 84.225141 71.620705 
L 85.658108 72.13957 
L 87.091076 71.407879 
L 88.524043 71.788639 
L 89.957011 71.129282 
L 91.389978 71.617275 
L 92.822946 71.16627 
L 94.255913 72.294975 
L 95.688881 72.383864 
L 97.121848 71.989533 
L 98.554816 71.226374 
L 99.987783 72.169547 
L 101.420751 71.721227 
L 102.853718 71.52242 
L 105.719653 71.57462 
L 107.15262 71.875738 
L 108.585588 72.787442 
L 110.018555 72.067683 
L 111.451523 72.110934 
L 112.88449 71.59371 
L 114.317458 72.555526 
L 115.750425 70.940469 
L 117.183393 72.032635 
L 118.61636 66.129301 
L 120.049328 46.748312 
L 121.482295 29.176415 
L 122.915263 24.092168 
L 124.34823 24.235344 
L 125.781198 66.081575 
L 127.214165 99.789133 
L 128.647132 109.204461 
L 130.0801 110.232048 
L 131.513067 109.531082 
L 132.946035 109.796554 
L 134.379002 109.841297 
L 135.81197 110.727199 
L 137.244937 110.584023 
L 138.677905 110.816685 
L 140.110872 109.204461 
L 141.54384 109.520642 
L 142.976807 109.250695 
L 144.409775 109.117958 
L 145.842742 109.326757 
L 147.27571 110.260385 
L 148.708677 109.368517 
L 151.574612 108.925565 
L 153.007579 109.659344 
L 154.440547 109.007593 
L 155.873514 109.237272 
L 158.739449 107.765242 
L 160.172417 107.452044 
L 161.605384 108.669041 
L 164.471319 107.923332 
L 165.904287 107.103052 
L 167.337254 106.740637 
L 168.770222 107.738396 
L 170.203189 106.554209 
L 171.636157 107.402827 
L 173.069124 105.57733 
L 174.502091 106.173898 
L 175.935059 105.563907 
L 177.368026 106.005367 
L 178.800994 105.838328 
L 180.233961 105.026996 
L 184.532864 104.388669 
L 185.965831 103.929312 
L 187.398799 104.059066 
L 188.831766 103.760782 
L 190.264734 102.927079 
L 191.697701 102.563172 
L 193.130669 102.04565 
L 194.563636 102.643709 
L 195.996604 101.881594 
L 197.429571 100.77347 
L 198.862538 100.37377 
L 200.295506 99.725002 
L 201.728473 100.05908 
L 203.161441 99.331268 
L 204.594408 98.182875 
L 206.027376 97.250738 
L 207.460343 96.627325 
L 208.893311 96.440898 
L 210.326278 95.222856 
L 211.759246 95.56111 
L 213.192213 94.999143 
L 214.625181 93.209292 
L 216.058148 93.330246 
L 217.491116 93.14009 
L 218.924083 92.772604 
L 220.35705 91.854636 
L 221.790018 91.89386 
L 223.222985 90.101324 
L 226.08892 90.762619 
L 227.521888 90.388124 
L 228.954855 89.444503 
L 230.387823 88.783506 
L 231.82079 88.667175 
L 233.253758 86.954877 
L 234.686725 87.264645 
L 236.119693 86.55637 
L 237.55266 86.197087 
L 238.985628 85.217673 
L 240.418595 84.620509 
L 241.851563 84.9783 
L 244.717497 83.138187 
L 246.150465 82.534118 
L 247.583432 81.460624 
L 249.0164 83.169209 
L 250.449367 82.314298 
L 251.882335 82.124798 
L 253.315302 82.048959 
L 254.74827 81.333108 
L 256.181237 80.110696 
L 257.614205 80.859955 
L 259.047172 79.643345 
L 260.48014 79.394577 
L 261.913107 79.409044 
L 263.346075 78.934325 
L 266.212009 78.951774 
L 267.644977 78.758785 
L 269.077944 77.579669 
L 270.510912 77.628737 
L 273.376847 76.428443 
L 274.809814 75.534486 
L 276.242782 75.552831 
L 277.675749 76.636198 
L 279.108717 75.828147 
L 280.541684 76.81129 
L 281.974652 76.135826 
L 283.407619 75.623822 
L 284.840587 75.654993 
L 286.273554 75.137322 
L 287.706521 75.649177 
L 289.139489 74.970879 
L 290.572456 75.151937 
L 292.005424 74.660366 
L 293.438391 75.117635 
L 294.871359 75.18624 
L 296.304326 74.068571 
L 297.737294 74.587286 
L 299.170261 74.555221 
L 300.603229 75.42606 
L 302.036196 74.258727 
L 303.469164 74.518532 
L 304.902131 74.540157 
L 306.335099 73.960145 
L 307.768066 73.928527 
L 309.201034 73.206829 
L 310.634001 73.137478 
L 312.066968 74.24948 
L 313.499936 73.51257 
L 314.932903 73.800115 
L 316.365871 73.123608 
L 317.798838 73.387589 
L 319.231806 73.437104 
L 320.664773 73.351795 
L 322.097741 72.763728 
L 323.530708 72.9251 
L 324.963676 72.208921 
L 326.396643 72.94941 
L 329.262578 73.021147 
L 330.695546 72.42622 
L 332.128513 73.321519 
L 334.994448 72.640686 
L 336.427415 73.406232 
L 337.860383 72.494975 
L 339.29335 72.670366 
L 340.726318 72.723013 
L 343.592253 72.673796 
L 345.02522 73.035763 
L 346.458188 72.259181 
L 347.891155 72.633528 
L 349.324123 72.646801 
L 350.75709 71.695872 
L 352.190058 73.708691 
L 353.623025 72.942848 
L 355.055993 72.355974 
L 356.48896 72.956569 
L 357.921927 72.630694 
L 359.354895 72.842475 
L 360.787862 72.342104 
L 363.653797 72.659926 
L 365.086765 72.142851 
L 366.519732 71.377007 
L 367.9527 72.746577 
L 369.385667 72.935987 
L 372.251602 72.477973 
L 373.68457 71.719437 
L 375.117537 72.524803 
L 376.550505 71.848146 
L 377.983472 72.378047 
L 379.416439 72.588338 
L 380.849407 72.144342 
L 382.282374 73.187291 
L 383.715342 72.980581 
L 385.148309 72.919283 
L 386.581277 72.295125 
L 388.014244 73.202206 
L 389.447212 73.262011 
L 390.880179 72.047996 
L 392.313147 72.434274 
L 393.746114 73.041878 
L 396.612049 72.764027 
L 398.045017 72.08394 
L 399.477984 73.172675 
L 400.910952 72.36716 
L 402.343919 72.925249 
L 403.776886 72.402358 
L 405.209854 73.220401 
L 406.642821 72.406086 
L 408.075789 72.48021 
L 409.508756 72.253812 
L 410.941724 72.221448 
L 412.374691 72.724653 
L 413.807659 71.153294 
L 415.240626 71.908847 
L 416.673594 72.895122 
L 418.106561 72.506011 
L 419.539529 71.113026 
L 420.972496 72.583118 
L 422.405464 71.671264 
L 423.838431 72.551052 
L 425.271398 72.401761 
L 426.704366 72.555974 
L 428.137333 72.255005 
L 429.570301 72.469471 
L 431.003268 72.183268 
L 432.436236 72.908396 
L 433.869203 73.506604 
L 435.302171 72.169995 
L 438.168106 72.476481 
L 438.168106 72.476481 
" style="fill:none;stroke:#0000ff;stroke-linecap:square;stroke-width:1.5;"/>
   </g>
   <g id="line2d_12">
    <path clip-path="url(#pa084a2a90e)" d="M 110.018555 116.790488 
L 110.018555 18.118365 
" style="fill:none;stroke:#0000ff;stroke-dasharray:7.4,3.2;stroke-dashoffset:0;stroke-opacity:0.5;stroke-width:2;"/>
   </g>
   <g id="patch_4">
    <path d="M 25.903365 116.790488 
L 25.903365 18.118365 
" style="fill:none;stroke:#000000;stroke-linecap:square;stroke-linejoin:miter;stroke-width:0.8;"/>
   </g>
   <g id="patch_5">
    <path d="M 457.79976 116.790488 
L 457.79976 18.118365 
" style="fill:none;stroke:#000000;stroke-linecap:square;stroke-linejoin:miter;stroke-width:0.8;"/>
   </g>
   <g id="patch_6">
    <path d="M 25.903365 116.790488 
L 457.79976 116.790488 
" style="fill:none;stroke:#000000;stroke-linecap:square;stroke-linejoin:miter;stroke-width:0.8;"/>
   </g>
   <g id="patch_7">
    <path d="M 25.903365 18.118365 
L 457.79976 18.118365 
" style="fill:none;stroke:#000000;stroke-linecap:square;stroke-linejoin:miter;stroke-width:0.8;"/>
   </g>
   <g id="text_11">
    <!-- The time series -->
    <defs>
     <path d="M -0.296875 72.90625 
L 61.375 72.90625 
L 61.375 64.59375 
L 35.5 64.59375 
L 35.5 0 
L 25.59375 0 
L 25.59375 64.59375 
L -0.296875 64.59375 
z
" id="DejaVuSans-84"/>
     <path d="M 54.890625 33.015625 
L 54.890625 0 
L 45.90625 0 
L 45.90625 32.71875 
Q 45.90625 40.484375 42.875 44.328125 
Q 39.84375 48.1875 33.796875 48.1875 
Q 26.515625 48.1875 22.3125 43.546875 
Q 18.109375 38.921875 18.109375 30.90625 
L 18.109375 0 
L 9.078125 0 
L 9.078125 75.984375 
L 18.109375 75.984375 
L 18.109375 46.1875 
Q 21.34375 51.125 25.703125 53.5625 
Q 30.078125 56 35.796875 56 
Q 45.21875 56 50.046875 50.171875 
Q 54.890625 44.34375 54.890625 33.015625 
z
" id="DejaVuSans-104"/>
     <path d="M 56.203125 29.59375 
L 56.203125 25.203125 
L 14.890625 25.203125 
Q 15.484375 15.921875 20.484375 11.0625 
Q 25.484375 6.203125 34.421875 6.203125 
Q 39.59375 6.203125 44.453125 7.46875 
Q 49.3125 8.734375 54.109375 11.28125 
L 54.109375 2.78125 
Q 49.265625 0.734375 44.1875 -0.34375 
Q 39.109375 -1.421875 33.890625 -1.421875 
Q 20.796875 -1.421875 13.15625 6.1875 
Q 5.515625 13.8125 5.515625 26.8125 
Q 5.515625 40.234375 12.765625 48.109375 
Q 20.015625 56 32.328125 56 
Q 43.359375 56 49.78125 48.890625 
Q 56.203125 41.796875 56.203125 29.59375 
z
M 47.21875 32.234375 
Q 47.125 39.59375 43.09375 43.984375 
Q 39.0625 48.390625 32.421875 48.390625 
Q 24.90625 48.390625 20.390625 44.140625 
Q 15.875 39.890625 15.1875 32.171875 
z
" id="DejaVuSans-101"/>
     <path id="DejaVuSans-32"/>
     <path d="M 18.3125 70.21875 
L 18.3125 54.6875 
L 36.8125 54.6875 
L 36.8125 47.703125 
L 18.3125 47.703125 
L 18.3125 18.015625 
Q 18.3125 11.328125 20.140625 9.421875 
Q 21.96875 7.515625 27.59375 7.515625 
L 36.8125 7.515625 
L 36.8125 0 
L 27.59375 0 
Q 17.1875 0 13.234375 3.875 
Q 9.28125 7.765625 9.28125 18.015625 
L 9.28125 47.703125 
L 2.6875 47.703125 
L 2.6875 54.6875 
L 9.28125 54.6875 
L 9.28125 70.21875 
z
" id="DejaVuSans-116"/>
     <path d="M 9.421875 54.6875 
L 18.40625 54.6875 
L 18.40625 0 
L 9.421875 0 
z
M 9.421875 75.984375 
L 18.40625 75.984375 
L 18.40625 64.59375 
L 9.421875 64.59375 
z
" id="DejaVuSans-105"/>
     <path d="M 52 44.1875 
Q 55.375 50.25 60.0625 53.125 
Q 64.75 56 71.09375 56 
Q 79.640625 56 84.28125 50.015625 
Q 88.921875 44.046875 88.921875 33.015625 
L 88.921875 0 
L 79.890625 0 
L 79.890625 32.71875 
Q 79.890625 40.578125 77.09375 44.375 
Q 74.3125 48.1875 68.609375 48.1875 
Q 61.625 48.1875 57.5625 43.546875 
Q 53.515625 38.921875 53.515625 30.90625 
L 53.515625 0 
L 44.484375 0 
L 44.484375 32.71875 
Q 44.484375 40.625 41.703125 44.40625 
Q 38.921875 48.1875 33.109375 48.1875 
Q 26.21875 48.1875 22.15625 43.53125 
Q 18.109375 38.875 18.109375 30.90625 
L 18.109375 0 
L 9.078125 0 
L 9.078125 54.6875 
L 18.109375 54.6875 
L 18.109375 46.1875 
Q 21.1875 51.21875 25.484375 53.609375 
Q 29.78125 56 35.6875 56 
Q 41.65625 56 45.828125 52.96875 
Q 50 49.953125 52 44.1875 
z
" id="DejaVuSans-109"/>
     <path d="M 44.28125 53.078125 
L 44.28125 44.578125 
Q 40.484375 46.53125 36.375 47.5 
Q 32.28125 48.484375 27.875 48.484375 
Q 21.1875 48.484375 17.84375 46.4375 
Q 14.5 44.390625 14.5 40.28125 
Q 14.5 37.15625 16.890625 35.375 
Q 19.28125 33.59375 26.515625 31.984375 
L 29.59375 31.296875 
Q 39.15625 29.25 43.1875 25.515625 
Q 47.21875 21.78125 47.21875 15.09375 
Q 47.21875 7.46875 41.1875 3.015625 
Q 35.15625 -1.421875 24.609375 -1.421875 
Q 20.21875 -1.421875 15.453125 -0.5625 
Q 10.6875 0.296875 5.421875 2 
L 5.421875 11.28125 
Q 10.40625 8.6875 15.234375 7.390625 
Q 20.0625 6.109375 24.8125 6.109375 
Q 31.15625 6.109375 34.5625 8.28125 
Q 37.984375 10.453125 37.984375 14.40625 
Q 37.984375 18.0625 35.515625 20.015625 
Q 33.0625 21.96875 24.703125 23.78125 
L 21.578125 24.515625 
Q 13.234375 26.265625 9.515625 29.90625 
Q 5.8125 33.546875 5.8125 39.890625 
Q 5.8125 47.609375 11.28125 51.796875 
Q 16.75 56 26.8125 56 
Q 31.78125 56 36.171875 55.265625 
Q 40.578125 54.546875 44.28125 53.078125 
z
" id="DejaVuSans-115"/>
     <path d="M 41.109375 46.296875 
Q 39.59375 47.171875 37.8125 47.578125 
Q 36.03125 48 33.890625 48 
Q 26.265625 48 22.1875 43.046875 
Q 18.109375 38.09375 18.109375 28.8125 
L 18.109375 0 
L 9.078125 0 
L 9.078125 54.6875 
L 18.109375 54.6875 
L 18.109375 46.1875 
Q 20.953125 51.171875 25.484375 53.578125 
Q 30.03125 56 36.53125 56 
Q 37.453125 56 38.578125 55.875 
Q 39.703125 55.765625 41.0625 55.515625 
z
" id="DejaVuSans-114"/>
    </defs>
    <g transform="translate(195.555 12.118365)scale(0.12 -0.12)">
     <use xlink:href="#DejaVuSans-84"/>
     <use x="61.083984" xlink:href="#DejaVuSans-104"/>
     <use x="124.462891" xlink:href="#DejaVuSans-101"/>
     <use x="185.986328" xlink:href="#DejaVuSans-32"/>
     <use x="217.773438" xlink:href="#DejaVuSans-116"/>
     <use x="256.982422" xlink:href="#DejaVuSans-105"/>
     <use x="284.765625" xlink:href="#DejaVuSans-109"/>
     <use x="382.177734" xlink:href="#DejaVuSans-101"/>
     <use x="443.701172" xlink:href="#DejaVuSans-32"/>
     <use x="475.488281" xlink:href="#DejaVuSans-115"/>
     <use x="527.587891" xlink:href="#DejaVuSans-101"/>
     <use x="589.111328" xlink:href="#DejaVuSans-114"/>
     <use x="630.224609" xlink:href="#DejaVuSans-105"/>
     <use x="658.007812" xlink:href="#DejaVuSans-101"/>
     <use x="719.53125" xlink:href="#DejaVuSans-115"/>
    </g>
   </g>
   <g id="legend_1">
    <g id="patch_8">
     <path d="M 214.13851 112.790488 
L 452.19976 112.790488 
Q 453.79976 112.790488 453.79976 111.190488 
L 453.79976 100.247988 
Q 453.79976 98.647988 452.19976 98.647988 
L 214.13851 98.647988 
Q 212.53851 98.647988 212.53851 100.247988 
L 212.53851 111.190488 
Q 212.53851 112.790488 214.13851 112.790488 
z
" style="fill:#ffffff;opacity:0.8;stroke:#cccccc;stroke-linejoin:miter;"/>
    </g>
    <g id="line2d_13">
     <path d="M 215.73851 105.126738 
L 231.73851 105.126738 
" style="fill:none;stroke:#0000ff;stroke-linecap:square;stroke-width:1.5;"/>
    </g>
    <g id="line2d_14"/>
    <g id="text_12">
     <!-- time series -->
     <g transform="translate(238.13851 107.926738)scale(0.08 -0.08)">
      <use xlink:href="#DejaVuSans-116"/>
      <use x="39.208984" xlink:href="#DejaVuSans-105"/>
      <use x="66.992188" xlink:href="#DejaVuSans-109"/>
      <use x="164.404297" xlink:href="#DejaVuSans-101"/>
      <use x="225.927734" xlink:href="#DejaVuSans-32"/>
      <use x="257.714844" xlink:href="#DejaVuSans-115"/>
      <use x="309.814453" xlink:href="#DejaVuSans-101"/>
      <use x="371.337891" xlink:href="#DejaVuSans-114"/>
      <use x="412.451172" xlink:href="#DejaVuSans-105"/>
      <use x="440.234375" xlink:href="#DejaVuSans-101"/>
      <use x="501.757812" xlink:href="#DejaVuSans-115"/>
     </g>
    </g>
    <g id="line2d_15">
     <path d="M 298.44601 105.126738 
L 314.44601 105.126738 
" style="fill:none;stroke:#0000ff;stroke-dasharray:7.4,3.2;stroke-dashoffset:0;stroke-opacity:0.5;stroke-width:2;"/>
    </g>
    <g id="line2d_16"/>
    <g id="text_13">
     <!-- segment start -->
     <defs>
      <path d="M 45.40625 27.984375 
Q 45.40625 37.75 41.375 43.109375 
Q 37.359375 48.484375 30.078125 48.484375 
Q 22.859375 48.484375 18.828125 43.109375 
Q 14.796875 37.75 14.796875 27.984375 
Q 14.796875 18.265625 18.828125 12.890625 
Q 22.859375 7.515625 30.078125 7.515625 
Q 37.359375 7.515625 41.375 12.890625 
Q 45.40625 18.265625 45.40625 27.984375 
z
M 54.390625 6.78125 
Q 54.390625 -7.171875 48.1875 -13.984375 
Q 42 -20.796875 29.203125 -20.796875 
Q 24.46875 -20.796875 20.265625 -20.09375 
Q 16.0625 -19.390625 12.109375 -17.921875 
L 12.109375 -9.1875 
Q 16.0625 -11.328125 19.921875 -12.34375 
Q 23.78125 -13.375 27.78125 -13.375 
Q 36.625 -13.375 41.015625 -8.765625 
Q 45.40625 -4.15625 45.40625 5.171875 
L 45.40625 9.625 
Q 42.625 4.78125 38.28125 2.390625 
Q 33.9375 0 27.875 0 
Q 17.828125 0 11.671875 7.65625 
Q 5.515625 15.328125 5.515625 27.984375 
Q 5.515625 40.671875 11.671875 48.328125 
Q 17.828125 56 27.875 56 
Q 33.9375 56 38.28125 53.609375 
Q 42.625 51.21875 45.40625 46.390625 
L 45.40625 54.6875 
L 54.390625 54.6875 
z
" id="DejaVuSans-103"/>
      <path d="M 54.890625 33.015625 
L 54.890625 0 
L 45.90625 0 
L 45.90625 32.71875 
Q 45.90625 40.484375 42.875 44.328125 
Q 39.84375 48.1875 33.796875 48.1875 
Q 26.515625 48.1875 22.3125 43.546875 
Q 18.109375 38.921875 18.109375 30.90625 
L 18.109375 0 
L 9.078125 0 
L 9.078125 54.6875 
L 18.109375 54.6875 
L 18.109375 46.1875 
Q 21.34375 51.125 25.703125 53.5625 
Q 30.078125 56 35.796875 56 
Q 45.21875 56 50.046875 50.171875 
Q 54.890625 44.34375 54.890625 33.015625 
z
" id="DejaVuSans-110"/>
      <path d="M 34.28125 27.484375 
Q 23.390625 27.484375 19.1875 25 
Q 14.984375 22.515625 14.984375 16.5 
Q 14.984375 11.71875 18.140625 8.90625 
Q 21.296875 6.109375 26.703125 6.109375 
Q 34.1875 6.109375 38.703125 11.40625 
Q 43.21875 16.703125 43.21875 25.484375 
L 43.21875 27.484375 
z
M 52.203125 31.203125 
L 52.203125 0 
L 43.21875 0 
L 43.21875 8.296875 
Q 40.140625 3.328125 35.546875 0.953125 
Q 30.953125 -1.421875 24.3125 -1.421875 
Q 15.921875 -1.421875 10.953125 3.296875 
Q 6 8.015625 6 15.921875 
Q 6 25.140625 12.171875 29.828125 
Q 18.359375 34.515625 30.609375 34.515625 
L 43.21875 34.515625 
L 43.21875 35.40625 
Q 43.21875 41.609375 39.140625 45 
Q 35.0625 48.390625 27.6875 48.390625 
Q 23 48.390625 18.546875 47.265625 
Q 14.109375 46.140625 10.015625 43.890625 
L 10.015625 52.203125 
Q 14.9375 54.109375 19.578125 55.046875 
Q 24.21875 56 28.609375 56 
Q 40.484375 56 46.34375 49.84375 
Q 52.203125 43.703125 52.203125 31.203125 
z
" id="DejaVuSans-97"/>
     </defs>
     <g transform="translate(320.84601 107.926738)scale(0.08 -0.08)">
      <use xlink:href="#DejaVuSans-115"/>
      <use x="52.099609" xlink:href="#DejaVuSans-101"/>
      <use x="113.623047" xlink:href="#DejaVuSans-103"/>
      <use x="177.099609" xlink:href="#DejaVuSans-109"/>
      <use x="274.511719" xlink:href="#DejaVuSans-101"/>
      <use x="336.035156" xlink:href="#DejaVuSans-110"/>
      <use x="399.414062" xlink:href="#DejaVuSans-116"/>
      <use x="438.623047" xlink:href="#DejaVuSans-32"/>
      <use x="470.410156" xlink:href="#DejaVuSans-115"/>
      <use x="522.509766" xlink:href="#DejaVuSans-116"/>
      <use x="561.71875" xlink:href="#DejaVuSans-97"/>
      <use x="622.998047" xlink:href="#DejaVuSans-114"/>
      <use x="664.111328" xlink:href="#DejaVuSans-116"/>
     </g>
    </g>
    <g id="patch_9">
     <path d="M 393.10976 107.926738 
L 409.10976 107.926738 
L 409.10976 102.326738 
L 393.10976 102.326738 
z
" style="fill:#0000ff;opacity:0.25;"/>
    </g>
    <g id="text_14">
     <!-- segment -->
     <g transform="translate(415.50976 107.926738)scale(0.08 -0.08)">
      <use xlink:href="#DejaVuSans-115"/>
      <use x="52.099609" xlink:href="#DejaVuSans-101"/>
      <use x="113.623047" xlink:href="#DejaVuSans-103"/>
      <use x="177.099609" xlink:href="#DejaVuSans-109"/>
      <use x="274.511719" xlink:href="#DejaVuSans-101"/>
      <use x="336.035156" xlink:href="#DejaVuSans-110"/>
      <use x="399.414062" xlink:href="#DejaVuSans-116"/>
     </g>
    </g>
   </g>
  </g>
  <g id="axes_2">
   <g id="patch_10">
    <path d="M 25.903365 188.465354 
L 90.001711 188.465354 
L 90.001711 155.574646 
L 25.903365 155.574646 
z
" style="fill:#ffffff;"/>
   </g>
   <g id="matplotlib.axis_3">
    <g id="xtick_7">
     <g id="line2d_17">
      <g>
       <use style="stroke:#000000;stroke-width:0.8;" x="28.816926" xlink:href="#ma8cb26f817" y="188.465354"/>
      </g>
     </g>
     <g id="text_15">
      <!-- 0 -->
      <g transform="translate(25.635676 203.063791)scale(0.1 -0.1)">
       <use xlink:href="#DejaVuSans-48"/>
      </g>
     </g>
    </g>
    <g id="xtick_8">
     <g id="line2d_18">
      <g>
       <use style="stroke:#000000;stroke-width:0.8;" x="59.485991" xlink:href="#ma8cb26f817" y="188.465354"/>
      </g>
     </g>
     <g id="text_16">
      <!-- 10 -->
      <g transform="translate(53.123491 203.063791)scale(0.1 -0.1)">
       <use xlink:href="#DejaVuSans-49"/>
       <use x="63.623047" xlink:href="#DejaVuSans-48"/>
      </g>
     </g>
    </g>
   </g>
   <g id="matplotlib.axis_4">
    <g id="ytick_5">
     <g id="line2d_19">
      <g>
       <use style="stroke:#000000;stroke-width:0.8;" x="25.903365" xlink:href="#mf1a8c52ce9" y="176.770776"/>
      </g>
     </g>
     <g id="text_17">
      <!-- 0.0 -->
      <defs>
       <path d="M 10.6875 12.40625 
L 21 12.40625 
L 21 0 
L 10.6875 0 
z
" id="DejaVuSans-46"/>
      </defs>
      <g transform="translate(3.00024 180.569995)scale(0.1 -0.1)">
       <use xlink:href="#DejaVuSans-48"/>
       <use x="63.623047" xlink:href="#DejaVuSans-46"/>
       <use x="95.410156" xlink:href="#DejaVuSans-48"/>
      </g>
     </g>
    </g>
    <g id="ytick_6">
     <g id="line2d_20">
      <g>
       <use style="stroke:#000000;stroke-width:0.8;" x="25.903365" xlink:href="#mf1a8c52ce9" y="163.925717"/>
      </g>
     </g>
     <g id="text_18">
      <!-- 2.5 -->
      <g transform="translate(3.00024 167.724936)scale(0.1 -0.1)">
       <use xlink:href="#DejaVuSans-50"/>
       <use x="63.623047" xlink:href="#DejaVuSans-46"/>
       <use x="95.410156" xlink:href="#DejaVuSans-53"/>
      </g>
     </g>
    </g>
   </g>
   <g id="line2d_21">
    <path clip-path="url(#peccb575180)" d="M 28.816926 173.627631 
L 31.883833 173.642559 
L 34.950739 173.464047 
L 38.017646 173.796002 
L 41.084552 173.238592 
L 44.151459 173.615535 
L 47.218365 171.578097 
L 50.285272 164.889071 
L 53.352178 158.824422 
L 56.419085 157.069678 
L 59.485991 157.119093 
L 62.552898 171.561625 
L 65.619804 183.19523 
L 68.686711 186.444774 
L 71.753617 186.799428 
L 74.820524 186.557501 
L 77.88743 186.649125 
L 80.954337 186.664567 
L 84.021243 186.970322 
L 87.08815 186.920907 
" style="fill:none;stroke:#0000ff;stroke-linecap:square;stroke-width:1.5;"/>
   </g>
   <g id="patch_11">
    <path d="M 25.903365 188.465354 
L 25.903365 155.574646 
" style="fill:none;stroke:#000000;stroke-linecap:square;stroke-linejoin:miter;stroke-width:0.8;"/>
   </g>
   <g id="patch_12">
    <path d="M 90.001711 188.465354 
L 90.001711 155.574646 
" style="fill:none;stroke:#000000;stroke-linecap:square;stroke-linejoin:miter;stroke-width:0.8;"/>
   </g>
   <g id="patch_13">
    <path d="M 25.903365 188.465354 
L 90.001711 188.465354 
" style="fill:none;stroke:#000000;stroke-linecap:square;stroke-linejoin:miter;stroke-width:0.8;"/>
   </g>
   <g id="patch_14">
    <path d="M 25.903365 155.574646 
L 90.001711 155.574646 
" style="fill:none;stroke:#000000;stroke-linecap:square;stroke-linejoin:miter;stroke-width:0.8;"/>
   </g>
   <g id="text_19">
    <!-- Segment -->
    <defs>
     <path d="M 53.515625 70.515625 
L 53.515625 60.890625 
Q 47.90625 63.578125 42.921875 64.890625 
Q 37.9375 66.21875 33.296875 66.21875 
Q 25.25 66.21875 20.875 63.09375 
Q 16.5 59.96875 16.5 54.203125 
Q 16.5 49.359375 19.40625 46.890625 
Q 22.3125 44.4375 30.421875 42.921875 
L 36.375 41.703125 
Q 47.40625 39.59375 52.65625 34.296875 
Q 57.90625 29 57.90625 20.125 
Q 57.90625 9.515625 50.796875 4.046875 
Q 43.703125 -1.421875 29.984375 -1.421875 
Q 24.8125 -1.421875 18.96875 -0.25 
Q 13.140625 0.921875 6.890625 3.21875 
L 6.890625 13.375 
Q 12.890625 10.015625 18.65625 8.296875 
Q 24.421875 6.59375 29.984375 6.59375 
Q 38.421875 6.59375 43.015625 9.90625 
Q 47.609375 13.234375 47.609375 19.390625 
Q 47.609375 24.75 44.3125 27.78125 
Q 41.015625 30.8125 33.5 32.328125 
L 27.484375 33.5 
Q 16.453125 35.6875 11.515625 40.375 
Q 6.59375 45.0625 6.59375 53.421875 
Q 6.59375 63.09375 13.40625 68.65625 
Q 20.21875 74.21875 32.171875 74.21875 
Q 37.3125 74.21875 42.625 73.28125 
Q 47.953125 72.359375 53.515625 70.515625 
z
" id="DejaVuSans-83"/>
    </defs>
    <g transform="translate(30.951601 149.574646)scale(0.12 -0.12)">
     <use xlink:href="#DejaVuSans-83"/>
     <use x="63.476562" xlink:href="#DejaVuSans-101"/>
     <use x="125" xlink:href="#DejaVuSans-103"/>
     <use x="188.476562" xlink:href="#DejaVuSans-109"/>
     <use x="285.888672" xlink:href="#DejaVuSans-101"/>
     <use x="347.412109" xlink:href="#DejaVuSans-110"/>
     <use x="410.791016" xlink:href="#DejaVuSans-116"/>
    </g>
   </g>
  </g>
  <g id="axes_3">
   <g id="patch_15">
    <path d="M 111.668691 188.465354 
L 457.79976 188.465354 
L 457.79976 155.574646 
L 111.668691 155.574646 
z
" style="fill:#ffffff;"/>
   </g>
   <g id="PathCollection_1">
    <defs>
     <path d="M -3.535534 3.535534 
L 3.535534 -3.535534 
M -3.535534 -3.535534 
L 3.535534 3.535534 
" id="m63d4d972e6" style="stroke:#ff0000;stroke-width:1.5;"/>
    </defs>
    <g clip-path="url(#p475cd09279)">
     <use style="fill:#ff0000;stroke:#ff0000;stroke-width:1.5;" x="184.388425" xlink:href="#m63d4d972e6" y="179.637242"/>
    </g>
   </g>
   <g id="matplotlib.axis_5">
    <g id="xtick_9">
     <g id="line2d_22">
      <g>
       <use style="stroke:#000000;stroke-width:0.8;" x="127.401921" xlink:href="#ma8cb26f817" y="188.465354"/>
      </g>
     </g>
     <g id="text_20">
      <!-- 0 -->
      <g transform="translate(124.220671 203.063791)scale(0.1 -0.1)">
       <use xlink:href="#DejaVuSans-48"/>
      </g>
     </g>
    </g>
    <g id="xtick_10">
     <g id="line2d_23">
      <g>
       <use style="stroke:#000000;stroke-width:0.8;" x="189.343773" xlink:href="#ma8cb26f817" y="188.465354"/>
      </g>
     </g>
     <g id="text_21">
      <!-- 50 -->
      <g transform="translate(182.981273 203.063791)scale(0.1 -0.1)">
       <use xlink:href="#DejaVuSans-53"/>
       <use x="63.623047" xlink:href="#DejaVuSans-48"/>
      </g>
     </g>
    </g>
    <g id="xtick_11">
     <g id="line2d_24">
      <g>
       <use style="stroke:#000000;stroke-width:0.8;" x="251.285625" xlink:href="#ma8cb26f817" y="188.465354"/>
      </g>
     </g>
     <g id="text_22">
      <!-- 100 -->
      <g transform="translate(241.741875 203.063791)scale(0.1 -0.1)">
       <use xlink:href="#DejaVuSans-49"/>
       <use x="63.623047" xlink:href="#DejaVuSans-48"/>
       <use x="127.246094" xlink:href="#DejaVuSans-48"/>
      </g>
     </g>
    </g>
    <g id="xtick_12">
     <g id="line2d_25">
      <g>
       <use style="stroke:#000000;stroke-width:0.8;" x="313.227477" xlink:href="#ma8cb26f817" y="188.465354"/>
      </g>
     </g>
     <g id="text_23">
      <!-- 150 -->
      <g transform="translate(303.683727 203.063791)scale(0.1 -0.1)">
       <use xlink:href="#DejaVuSans-49"/>
       <use x="63.623047" xlink:href="#DejaVuSans-53"/>
       <use x="127.246094" xlink:href="#DejaVuSans-48"/>
      </g>
     </g>
    </g>
    <g id="xtick_13">
     <g id="line2d_26">
      <g>
       <use style="stroke:#000000;stroke-width:0.8;" x="375.169329" xlink:href="#ma8cb26f817" y="188.465354"/>
      </g>
     </g>
     <g id="text_24">
      <!-- 200 -->
      <g transform="translate(365.625579 203.063791)scale(0.1 -0.1)">
       <use xlink:href="#DejaVuSans-50"/>
       <use x="63.623047" xlink:href="#DejaVuSans-48"/>
       <use x="127.246094" xlink:href="#DejaVuSans-48"/>
      </g>
     </g>
    </g>
    <g id="xtick_14">
     <g id="line2d_27">
      <g>
       <use style="stroke:#000000;stroke-width:0.8;" x="437.111181" xlink:href="#ma8cb26f817" y="188.465354"/>
      </g>
     </g>
     <g id="text_25">
      <!-- 250 -->
      <g transform="translate(427.567431 203.063791)scale(0.1 -0.1)">
       <use xlink:href="#DejaVuSans-50"/>
       <use x="63.623047" xlink:href="#DejaVuSans-53"/>
       <use x="127.246094" xlink:href="#DejaVuSans-48"/>
      </g>
     </g>
    </g>
   </g>
   <g id="matplotlib.axis_6">
    <g id="ytick_7">
     <g id="line2d_28">
      <g>
       <use style="stroke:#000000;stroke-width:0.8;" x="111.668691" xlink:href="#mf1a8c52ce9" y="186.970322"/>
      </g>
     </g>
     <g id="text_26">
      <!-- 0 -->
      <g transform="translate(98.306191 190.76954)scale(0.1 -0.1)">
       <use xlink:href="#DejaVuSans-48"/>
      </g>
     </g>
    </g>
    <g id="ytick_8">
     <g id="line2d_29">
      <g>
       <use style="stroke:#000000;stroke-width:0.8;" x="111.668691" xlink:href="#mf1a8c52ce9" y="168.84722"/>
      </g>
     </g>
     <g id="text_27">
      <!-- 5 -->
      <g transform="translate(98.306191 172.646439)scale(0.1 -0.1)">
       <use xlink:href="#DejaVuSans-53"/>
      </g>
     </g>
    </g>
   </g>
   <g id="line2d_30">
    <path clip-path="url(#p475cd09279)" d="M 127.401921 161.468163 
L 128.640759 163.483402 
L 129.879596 164.25188 
L 131.118433 164.575024 
L 132.35727 164.253557 
L 133.596107 166.029921 
L 134.834944 166.316577 
L 136.073781 164.85897 
L 137.312618 163.199548 
L 138.551455 162.636288 
L 139.790292 160.257143 
L 142.267966 159.133189 
L 143.506803 159.020275 
L 144.74564 158.315137 
L 145.984477 159.473453 
L 147.223314 160.959539 
L 148.462151 161.869822 
L 149.700988 161.953145 
L 150.939825 163.632744 
L 152.178662 164.369456 
L 153.417499 166.252067 
L 154.656336 167.063415 
L 155.895173 166.860223 
L 157.13401 164.037779 
L 158.372847 163.715089 
L 159.611685 163.77738 
L 160.850522 164.729825 
L 162.089359 164.630762 
L 163.328196 167.281118 
L 164.567033 166.569781 
L 165.80587 167.464412 
L 167.044707 162.469593 
L 168.283544 160.850479 
L 170.761218 159.085721 
L 172.000055 158.316105 
L 173.238892 158.157521 
L 174.477729 159.519122 
L 176.955403 162.662642 
L 178.19424 164.884469 
L 179.433077 168.355324 
L 180.671914 173.182175 
L 181.910751 179.412145 
L 183.149588 186.970322 
L 184.388425 179.637242 
L 185.627262 173.962114 
L 186.866099 169.921902 
L 188.104936 167.373422 
L 189.343773 166.127148 
L 190.582611 165.653104 
L 196.776796 164.304236 
L 198.015633 163.37477 
L 199.25447 161.821694 
L 200.493307 162.159773 
L 202.970981 159.270167 
L 206.687492 158.555404 
L 209.165166 157.133446 
L 210.404003 157.069678 
L 211.64284 157.834983 
L 212.881677 159.002152 
L 214.120514 159.354847 
L 215.359351 158.83678 
L 216.598188 158.168206 
L 217.837025 157.960192 
L 220.314699 158.576494 
L 221.553537 158.296826 
L 222.792374 158.144699 
L 224.031211 157.815146 
L 226.508885 158.522995 
L 227.747722 158.744412 
L 230.225396 157.956586 
L 231.464233 157.860198 
L 233.941907 158.18782 
L 236.419581 158.033236 
L 237.658418 157.650408 
L 240.136092 157.777774 
L 241.374929 157.936859 
L 242.613766 157.866874 
L 243.852603 157.59436 
L 245.09144 157.542609 
L 248.807951 157.79857 
L 251.285625 157.619787 
L 252.524463 157.719539 
L 256.240974 158.509969 
L 257.479811 158.503499 
L 258.718648 158.364299 
L 259.957485 158.486963 
L 261.196322 158.739022 
L 262.435159 158.814804 
L 266.15167 158.459225 
L 267.390507 158.534381 
L 268.629344 158.774008 
L 269.868181 158.609441 
L 273.584692 157.65202 
L 274.823529 157.688587 
L 278.54004 158.102866 
L 284.734226 158.714034 
L 285.973063 158.762489 
L 289.689574 159.674277 
L 290.928411 159.39641 
L 294.644922 157.864945 
L 295.883759 157.997248 
L 297.122596 158.274156 
L 298.361433 158.258313 
L 299.60027 158.606181 
L 300.839107 158.772769 
L 303.316781 158.826099 
L 305.794455 158.049473 
L 307.033292 157.936069 
L 308.272129 157.949189 
L 309.510966 158.126949 
L 311.98864 159.733121 
L 313.227477 160.945195 
L 314.466315 161.451744 
L 315.705152 161.30904 
L 316.943989 160.657148 
L 318.182826 159.593355 
L 320.6605 158.480477 
L 323.138174 158.777091 
L 324.377011 159.275409 
L 326.854685 160.046006 
L 328.093522 160.472919 
L 329.332359 160.051153 
L 330.571196 160.242516 
L 331.810033 160.242665 
L 334.287707 159.360231 
L 335.526544 158.298314 
L 336.765381 157.999767 
L 338.004218 157.312144 
L 339.243055 157.539064 
L 340.481892 158.284649 
L 342.959566 160.60321 
L 344.198403 160.94422 
L 345.43724 160.090285 
L 349.153752 159.046307 
L 350.392589 158.970933 
L 352.870263 159.3489 
L 354.1091 160.299694 
L 355.347937 162.633307 
L 356.586774 164.166447 
L 359.064448 163.770117 
L 361.542122 162.750725 
L 366.49747 159.535947 
L 367.736307 160.080479 
L 368.975144 162.480267 
L 370.213981 163.156793 
L 371.452818 163.161592 
L 372.691655 163.323079 
L 373.930492 163.230878 
L 375.169329 164.441232 
L 376.408166 164.690524 
L 377.647004 165.87412 
L 378.885841 166.038453 
L 380.124678 162.623966 
L 381.363515 160.79522 
L 382.602352 160.615943 
L 383.841189 160.574933 
L 385.080026 161.28987 
L 386.318863 161.56224 
L 387.5577 161.289571 
L 388.796537 161.779405 
L 390.035374 162.061801 
L 391.274211 163.871823 
L 392.513048 165.211578 
L 393.751885 163.813251 
L 394.990722 163.431132 
L 396.229559 162.923333 
L 397.468396 164.036898 
L 398.707233 165.841639 
L 401.184907 171.427704 
L 402.423744 170.032213 
L 403.662581 169.08893 
L 404.901418 168.367298 
L 406.140255 166.343406 
L 408.61793 163.571391 
L 409.856767 163.912569 
L 411.095604 162.618469 
L 412.334441 163.017869 
L 413.573278 164.008349 
L 414.812115 164.712986 
L 416.050952 163.733256 
L 418.528626 162.271344 
L 419.767463 162.209554 
L 421.0063 162.355187 
L 422.245137 161.432907 
L 423.483974 160.274981 
L 424.722811 160.285557 
L 425.961648 159.700931 
L 427.200485 159.351939 
L 428.439322 159.961993 
L 429.678159 160.316075 
L 430.916996 161.207254 
L 432.155833 162.553063 
L 433.39467 164.739368 
L 434.633507 164.866936 
L 435.872344 164.221463 
L 437.111181 164.848849 
L 438.350018 166.537476 
L 439.588856 168.451485 
L 440.827693 169.40709 
L 442.06653 168.049388 
L 442.06653 168.049388 
" style="fill:none;stroke:#0000ff;stroke-linecap:square;stroke-width:1.5;"/>
   </g>
   <g id="patch_16">
    <path d="M 111.668691 188.465354 
L 111.668691 155.574646 
" style="fill:none;stroke:#000000;stroke-linecap:square;stroke-linejoin:miter;stroke-width:0.8;"/>
   </g>
   <g id="patch_17">
    <path d="M 457.79976 188.465354 
L 457.79976 155.574646 
" style="fill:none;stroke:#000000;stroke-linecap:square;stroke-linejoin:miter;stroke-width:0.8;"/>
   </g>
   <g id="patch_18">
    <path d="M 111.668691 188.465354 
L 457.79976 188.465354 
" style="fill:none;stroke:#000000;stroke-linecap:square;stroke-linejoin:miter;stroke-width:0.8;"/>
   </g>
   <g id="patch_19">
    <path d="M 111.668691 155.574646 
L 457.79976 155.574646 
" style="fill:none;stroke:#000000;stroke-linecap:square;stroke-linejoin:miter;stroke-width:0.8;"/>
   </g>
   <g id="text_28">
    <!-- Distance profile -->
    <defs>
     <path d="M 19.671875 64.796875 
L 19.671875 8.109375 
L 31.59375 8.109375 
Q 46.6875 8.109375 53.6875 14.9375 
Q 60.6875 21.78125 60.6875 36.53125 
Q 60.6875 51.171875 53.6875 57.984375 
Q 46.6875 64.796875 31.59375 64.796875 
z
M 9.8125 72.90625 
L 30.078125 72.90625 
Q 51.265625 72.90625 61.171875 64.09375 
Q 71.09375 55.28125 71.09375 36.53125 
Q 71.09375 17.671875 61.125 8.828125 
Q 51.171875 0 30.078125 0 
L 9.8125 0 
z
" id="DejaVuSans-68"/>
     <path d="M 48.78125 52.59375 
L 48.78125 44.1875 
Q 44.96875 46.296875 41.140625 47.34375 
Q 37.3125 48.390625 33.40625 48.390625 
Q 24.65625 48.390625 19.8125 42.84375 
Q 14.984375 37.3125 14.984375 27.296875 
Q 14.984375 17.28125 19.8125 11.734375 
Q 24.65625 6.203125 33.40625 6.203125 
Q 37.3125 6.203125 41.140625 7.25 
Q 44.96875 8.296875 48.78125 10.40625 
L 48.78125 2.09375 
Q 45.015625 0.34375 40.984375 -0.53125 
Q 36.96875 -1.421875 32.421875 -1.421875 
Q 20.0625 -1.421875 12.78125 6.34375 
Q 5.515625 14.109375 5.515625 27.296875 
Q 5.515625 40.671875 12.859375 48.328125 
Q 20.21875 56 33.015625 56 
Q 37.15625 56 41.109375 55.140625 
Q 45.0625 54.296875 48.78125 52.59375 
z
" id="DejaVuSans-99"/>
     <path d="M 18.109375 8.203125 
L 18.109375 -20.796875 
L 9.078125 -20.796875 
L 9.078125 54.6875 
L 18.109375 54.6875 
L 18.109375 46.390625 
Q 20.953125 51.265625 25.265625 53.625 
Q 29.59375 56 35.59375 56 
Q 45.5625 56 51.78125 48.09375 
Q 58.015625 40.1875 58.015625 27.296875 
Q 58.015625 14.40625 51.78125 6.484375 
Q 45.5625 -1.421875 35.59375 -1.421875 
Q 29.59375 -1.421875 25.265625 0.953125 
Q 20.953125 3.328125 18.109375 8.203125 
z
M 48.6875 27.296875 
Q 48.6875 37.203125 44.609375 42.84375 
Q 40.53125 48.484375 33.40625 48.484375 
Q 26.265625 48.484375 22.1875 42.84375 
Q 18.109375 37.203125 18.109375 27.296875 
Q 18.109375 17.390625 22.1875 11.75 
Q 26.265625 6.109375 33.40625 6.109375 
Q 40.53125 6.109375 44.609375 11.75 
Q 48.6875 17.390625 48.6875 27.296875 
z
" id="DejaVuSans-112"/>
     <path d="M 30.609375 48.390625 
Q 23.390625 48.390625 19.1875 42.75 
Q 14.984375 37.109375 14.984375 27.296875 
Q 14.984375 17.484375 19.15625 11.84375 
Q 23.34375 6.203125 30.609375 6.203125 
Q 37.796875 6.203125 41.984375 11.859375 
Q 46.1875 17.53125 46.1875 27.296875 
Q 46.1875 37.015625 41.984375 42.703125 
Q 37.796875 48.390625 30.609375 48.390625 
z
M 30.609375 56 
Q 42.328125 56 49.015625 48.375 
Q 55.71875 40.765625 55.71875 27.296875 
Q 55.71875 13.875 49.015625 6.21875 
Q 42.328125 -1.421875 30.609375 -1.421875 
Q 18.84375 -1.421875 12.171875 6.21875 
Q 5.515625 13.875 5.515625 27.296875 
Q 5.515625 40.765625 12.171875 48.375 
Q 18.84375 56 30.609375 56 
z
" id="DejaVuSans-111"/>
     <path d="M 37.109375 75.984375 
L 37.109375 68.5 
L 28.515625 68.5 
Q 23.6875 68.5 21.796875 66.546875 
Q 19.921875 64.59375 19.921875 59.515625 
L 19.921875 54.6875 
L 34.71875 54.6875 
L 34.71875 47.703125 
L 19.921875 47.703125 
L 19.921875 0 
L 10.890625 0 
L 10.890625 47.703125 
L 2.296875 47.703125 
L 2.296875 54.6875 
L 10.890625 54.6875 
L 10.890625 58.5 
Q 10.890625 67.625 15.140625 71.796875 
Q 19.390625 75.984375 28.609375 75.984375 
z
" id="DejaVuSans-102"/>
     <path d="M 9.421875 75.984375 
L 18.40625 75.984375 
L 18.40625 0 
L 9.421875 0 
z
" id="DejaVuSans-108"/>
    </defs>
    <g transform="translate(237.642663 149.574646)scale(0.12 -0.12)">
     <use xlink:href="#DejaVuSans-68"/>
     <use x="77.001953" xlink:href="#DejaVuSans-105"/>
     <use x="104.785156" xlink:href="#DejaVuSans-115"/>
     <use x="156.884766" xlink:href="#DejaVuSans-116"/>
     <use x="196.09375" xlink:href="#DejaVuSans-97"/>
     <use x="257.373047" xlink:href="#DejaVuSans-110"/>
     <use x="320.751953" xlink:href="#DejaVuSans-99"/>
     <use x="375.732422" xlink:href="#DejaVuSans-101"/>
     <use x="437.255859" xlink:href="#DejaVuSans-32"/>
     <use x="469.042969" xlink:href="#DejaVuSans-112"/>
     <use x="532.519531" xlink:href="#DejaVuSans-114"/>
     <use x="571.382812" xlink:href="#DejaVuSans-111"/>
     <use x="632.564453" xlink:href="#DejaVuSans-102"/>
     <use x="667.769531" xlink:href="#DejaVuSans-105"/>
     <use x="695.552734" xlink:href="#DejaVuSans-108"/>
     <use x="723.335938" xlink:href="#DejaVuSans-101"/>
    </g>
   </g>
   <g id="legend_2">
    <g id="patch_20">
     <path d="M 341.89476 184.465354 
L 452.19976 184.465354 
Q 453.79976 184.465354 453.79976 182.865354 
L 453.79976 171.922854 
Q 453.79976 170.322854 452.19976 170.322854 
L 341.89476 170.322854 
Q 340.29476 170.322854 340.29476 171.922854 
L 340.29476 182.865354 
Q 340.29476 184.465354 341.89476 184.465354 
z
" style="fill:#ffffff;opacity:0.8;stroke:#cccccc;stroke-linejoin:miter;"/>
    </g>
    <g id="PathCollection_2">
     <g>
      <use style="fill:#ff0000;stroke:#ff0000;stroke-width:1.5;" x="351.49476" xlink:href="#m63d4d972e6" y="177.501604"/>
     </g>
    </g>
    <g id="text_29">
     <!-- 2nd min dist = 2.023 -->
     <defs>
      <path d="M 45.40625 46.390625 
L 45.40625 75.984375 
L 54.390625 75.984375 
L 54.390625 0 
L 45.40625 0 
L 45.40625 8.203125 
Q 42.578125 3.328125 38.25 0.953125 
Q 33.9375 -1.421875 27.875 -1.421875 
Q 17.96875 -1.421875 11.734375 6.484375 
Q 5.515625 14.40625 5.515625 27.296875 
Q 5.515625 40.1875 11.734375 48.09375 
Q 17.96875 56 27.875 56 
Q 33.9375 56 38.25 53.625 
Q 42.578125 51.265625 45.40625 46.390625 
z
M 14.796875 27.296875 
Q 14.796875 17.390625 18.875 11.75 
Q 22.953125 6.109375 30.078125 6.109375 
Q 37.203125 6.109375 41.296875 11.75 
Q 45.40625 17.390625 45.40625 27.296875 
Q 45.40625 37.203125 41.296875 42.84375 
Q 37.203125 48.484375 30.078125 48.484375 
Q 22.953125 48.484375 18.875 42.84375 
Q 14.796875 37.203125 14.796875 27.296875 
z
" id="DejaVuSans-100"/>
      <path d="M 10.59375 45.40625 
L 73.1875 45.40625 
L 73.1875 37.203125 
L 10.59375 37.203125 
z
M 10.59375 25.484375 
L 73.1875 25.484375 
L 73.1875 17.1875 
L 10.59375 17.1875 
z
" id="DejaVuSans-61"/>
      <path d="M 40.578125 39.3125 
Q 47.65625 37.796875 51.625 33 
Q 55.609375 28.21875 55.609375 21.1875 
Q 55.609375 10.40625 48.1875 4.484375 
Q 40.765625 -1.421875 27.09375 -1.421875 
Q 22.515625 -1.421875 17.65625 -0.515625 
Q 12.796875 0.390625 7.625 2.203125 
L 7.625 11.71875 
Q 11.71875 9.328125 16.59375 8.109375 
Q 21.484375 6.890625 26.8125 6.890625 
Q 36.078125 6.890625 40.9375 10.546875 
Q 45.796875 14.203125 45.796875 21.1875 
Q 45.796875 27.640625 41.28125 31.265625 
Q 36.765625 34.90625 28.71875 34.90625 
L 20.21875 34.90625 
L 20.21875 43.015625 
L 29.109375 43.015625 
Q 36.375 43.015625 40.234375 45.921875 
Q 44.09375 48.828125 44.09375 54.296875 
Q 44.09375 59.90625 40.109375 62.90625 
Q 36.140625 65.921875 28.71875 65.921875 
Q 24.65625 65.921875 20.015625 65.03125 
Q 15.375 64.15625 9.8125 62.3125 
L 9.8125 71.09375 
Q 15.4375 72.65625 20.34375 73.4375 
Q 25.25 74.21875 29.59375 74.21875 
Q 40.828125 74.21875 47.359375 69.109375 
Q 53.90625 64.015625 53.90625 55.328125 
Q 53.90625 49.265625 50.4375 45.09375 
Q 46.96875 40.921875 40.578125 39.3125 
z
" id="DejaVuSans-51"/>
     </defs>
     <g transform="translate(365.89476 179.601604)scale(0.08 -0.08)">
      <use xlink:href="#DejaVuSans-50"/>
      <use x="63.623047" xlink:href="#DejaVuSans-110"/>
      <use x="127.001953" xlink:href="#DejaVuSans-100"/>
      <use x="190.478516" xlink:href="#DejaVuSans-32"/>
      <use x="222.265625" xlink:href="#DejaVuSans-109"/>
      <use x="319.677734" xlink:href="#DejaVuSans-105"/>
      <use x="347.460938" xlink:href="#DejaVuSans-110"/>
      <use x="410.839844" xlink:href="#DejaVuSans-32"/>
      <use x="442.626953" xlink:href="#DejaVuSans-100"/>
      <use x="506.103516" xlink:href="#DejaVuSans-105"/>
      <use x="533.886719" xlink:href="#DejaVuSans-115"/>
      <use x="585.986328" xlink:href="#DejaVuSans-116"/>
      <use x="625.195312" xlink:href="#DejaVuSans-32"/>
      <use x="656.982422" xlink:href="#DejaVuSans-61"/>
      <use x="740.771484" xlink:href="#DejaVuSans-32"/>
      <use x="772.558594" xlink:href="#DejaVuSans-50"/>
      <use x="836.181641" xlink:href="#DejaVuSans-46"/>
      <use x="867.96875" xlink:href="#DejaVuSans-48"/>
      <use x="931.591797" xlink:href="#DejaVuSans-50"/>
      <use x="995.214844" xlink:href="#DejaVuSans-51"/>
     </g>
    </g>
   </g>
  </g>
  <g id="axes_4">
   <g id="patch_21">
    <path d="M 25.903365 325.921635 
L 457.79976 325.921635 
L 457.79976 227.249512 
L 25.903365 227.249512 
z
" style="fill:#ffffff;"/>
   </g>
   <g id="PathCollection_3">
    <defs>
     <path d="M -4.330127 4.330127 
L 4.330127 -4.330127 
M -4.330127 -4.330127 
L 4.330127 4.330127 
" id="m4c2629bbb0" style="stroke:#ff0000;stroke-width:1.5;"/>
    </defs>
    <g clip-path="url(#pe9cd4c6044)">
     <use style="fill:#ff0000;stroke:#ff0000;stroke-width:1.5;" x="114.823211" xlink:href="#m4c2629bbb0" y="291.34102"/>
    </g>
   </g>
   <g id="matplotlib.axis_7">
    <g id="xtick_15">
     <g id="line2d_31">
      <g>
       <use style="stroke:#000000;stroke-width:0.8;" x="45.535019" xlink:href="#ma8cb26f817" y="325.921635"/>
      </g>
     </g>
     <g id="text_30">
      <!-- 0 -->
      <g transform="translate(42.353769 340.520072)scale(0.1 -0.1)">
       <use xlink:href="#DejaVuSans-48"/>
      </g>
     </g>
    </g>
    <g id="xtick_16">
     <g id="line2d_32">
      <g>
       <use style="stroke:#000000;stroke-width:0.8;" x="122.521899" xlink:href="#ma8cb26f817" y="325.921635"/>
      </g>
     </g>
     <g id="text_31">
      <!-- 50 -->
      <g transform="translate(116.159399 340.520072)scale(0.1 -0.1)">
       <use xlink:href="#DejaVuSans-53"/>
       <use x="63.623047" xlink:href="#DejaVuSans-48"/>
      </g>
     </g>
    </g>
    <g id="xtick_17">
     <g id="line2d_33">
      <g>
       <use style="stroke:#000000;stroke-width:0.8;" x="199.508779" xlink:href="#ma8cb26f817" y="325.921635"/>
      </g>
     </g>
     <g id="text_32">
      <!-- 100 -->
      <g transform="translate(189.965029 340.520072)scale(0.1 -0.1)">
       <use xlink:href="#DejaVuSans-49"/>
       <use x="63.623047" xlink:href="#DejaVuSans-48"/>
       <use x="127.246094" xlink:href="#DejaVuSans-48"/>
      </g>
     </g>
    </g>
    <g id="xtick_18">
     <g id="line2d_34">
      <g>
       <use style="stroke:#000000;stroke-width:0.8;" x="276.495658" xlink:href="#ma8cb26f817" y="325.921635"/>
      </g>
     </g>
     <g id="text_33">
      <!-- 150 -->
      <g transform="translate(266.951908 340.520072)scale(0.1 -0.1)">
       <use xlink:href="#DejaVuSans-49"/>
       <use x="63.623047" xlink:href="#DejaVuSans-53"/>
       <use x="127.246094" xlink:href="#DejaVuSans-48"/>
      </g>
     </g>
    </g>
    <g id="xtick_19">
     <g id="line2d_35">
      <g>
       <use style="stroke:#000000;stroke-width:0.8;" x="353.482538" xlink:href="#ma8cb26f817" y="325.921635"/>
      </g>
     </g>
     <g id="text_34">
      <!-- 200 -->
      <g transform="translate(343.938788 340.520072)scale(0.1 -0.1)">
       <use xlink:href="#DejaVuSans-50"/>
       <use x="63.623047" xlink:href="#DejaVuSans-48"/>
       <use x="127.246094" xlink:href="#DejaVuSans-48"/>
      </g>
     </g>
    </g>
    <g id="xtick_20">
     <g id="line2d_36">
      <g>
       <use style="stroke:#000000;stroke-width:0.8;" x="430.469418" xlink:href="#ma8cb26f817" y="325.921635"/>
      </g>
     </g>
     <g id="text_35">
      <!-- 250 -->
      <g transform="translate(420.925668 340.520072)scale(0.1 -0.1)">
       <use xlink:href="#DejaVuSans-50"/>
       <use x="63.623047" xlink:href="#DejaVuSans-53"/>
       <use x="127.246094" xlink:href="#DejaVuSans-48"/>
      </g>
     </g>
    </g>
   </g>
   <g id="matplotlib.axis_8">
    <g id="ytick_9">
     <g id="line2d_37">
      <g>
       <use style="stroke:#000000;stroke-width:0.8;" x="25.903365" xlink:href="#mf1a8c52ce9" y="290.924375"/>
      </g>
     </g>
     <g id="text_36">
      <!-- 2 -->
      <g transform="translate(12.540865 294.723594)scale(0.1 -0.1)">
       <use xlink:href="#DejaVuSans-50"/>
      </g>
     </g>
    </g>
    <g id="ytick_10">
     <g id="line2d_38">
      <g>
       <use style="stroke:#000000;stroke-width:0.8;" x="25.903365" xlink:href="#mf1a8c52ce9" y="249.185179"/>
      </g>
     </g>
     <g id="text_37">
      <!-- 4 -->
      <g transform="translate(12.540865 252.984398)scale(0.1 -0.1)">
       <use xlink:href="#DejaVuSans-52"/>
      </g>
     </g>
    </g>
   </g>
   <g id="line2d_39">
    <path clip-path="url(#pe9cd4c6044)" d="M 45.535019 249.017573 
L 47.074757 245.019387 
L 48.614495 252.723766 
L 50.154232 250.278802 
L 51.69397 248.547202 
L 53.233707 238.944728 
L 54.773445 242.547571 
L 56.313182 242.308043 
L 57.85292 246.948444 
L 59.392658 242.204553 
L 60.932395 242.98773 
L 62.472133 244.067804 
L 64.01187 250.828657 
L 65.551608 260.672957 
L 67.091346 262.885995 
L 70.170821 250.974547 
L 71.710558 250.683482 
L 73.250296 255.740837 
L 74.790034 247.647999 
L 76.329771 253.302928 
L 77.869509 248.370103 
L 79.409246 245.571691 
L 80.948984 249.389021 
L 82.488722 247.036053 
L 84.028459 237.264125 
L 85.568197 239.273342 
L 87.107934 244.065957 
L 88.647672 245.696354 
L 90.18741 250.135167 
L 91.727147 243.183001 
L 93.266885 246.004811 
L 94.806622 290.806227 
L 96.34636 299.842878 
L 97.886098 299.93615 
L 99.425835 302.143502 
L 100.965573 302.143502 
L 102.50531 272.218339 
L 104.045048 269.151271 
L 105.584785 275.510251 
L 107.124523 279.866783 
L 108.664261 283.094722 
L 110.203998 285.569422 
L 111.743736 287.569426 
L 113.283473 289.145603 
L 114.823211 290.441653 
L 116.362949 291.34102 
L 117.902686 292.0686 
L 120.982161 293.000856 
L 122.521899 293.211248 
L 124.061637 293.54553 
L 125.601374 295.510606 
L 127.141112 296.75172 
L 128.680849 296.75172 
L 130.220587 307.055191 
L 131.760325 307.055191 
L 133.300062 305.132872 
L 134.8398 251.645373 
L 136.379537 271.207238 
L 137.919275 271.643876 
L 139.459013 280.864057 
L 140.99875 281.935968 
L 142.538488 283.336048 
L 144.078225 283.175181 
L 145.617963 284.270444 
L 147.1577 286.804757 
L 148.697438 291.030247 
L 150.237176 294.623371 
L 151.776913 294.266294 
L 153.316651 294.407942 
L 154.856388 298.801129 
L 156.396126 299.584119 
L 157.935864 298.091777 
L 159.475601 299.060486 
L 161.015339 300.61366 
L 162.555076 301.400691 
L 164.094814 302.032136 
L 165.634552 302.454245 
L 167.174289 302.474476 
L 168.714027 305.896742 
L 170.253764 310.043624 
L 171.793502 310.066685 
L 173.33324 310.486767 
L 174.872977 310.012319 
L 177.952452 312.550351 
L 179.49219 316.199685 
L 181.031928 317.719656 
L 182.571665 320.14209 
L 184.111403 321.436539 
L 185.65114 321.221776 
L 187.190878 319.157553 
L 188.730616 317.719656 
L 190.270353 320.14209 
L 191.810091 321.436539 
L 193.349828 321.221776 
L 196.429303 317.193175 
L 197.969041 318.474817 
L 199.508779 318.256583 
L 201.048516 317.280005 
L 204.127991 317.408928 
L 205.667729 318.6092 
L 207.207467 317.572116 
L 208.747204 317.087136 
L 210.286942 315.410687 
L 211.826679 317.317153 
L 213.366417 316.079225 
L 214.906155 318.6092 
L 216.445892 317.572116 
L 219.525367 317.087136 
L 222.604843 314.465863 
L 224.14458 314.750649 
L 225.684318 316.826458 
L 227.224055 317.280005 
L 230.303531 317.408928 
L 231.843268 316.994525 
L 233.383006 318.474817 
L 234.922743 315.697567 
L 236.462481 315.410687 
L 238.002219 317.317153 
L 241.081694 314.91128 
L 242.621431 313.862117 
L 244.161169 312.070261 
L 245.700906 312.210568 
L 247.240644 312.466881 
L 248.780382 311.396912 
L 250.320119 310.518324 
L 251.859857 309.876086 
L 253.399594 311.614834 
L 254.939332 309.964937 
L 256.47907 309.947569 
L 258.018807 310.567872 
L 259.558545 309.818699 
L 261.098282 309.352777 
L 262.63802 308.736519 
L 264.177758 316.826458 
L 265.717495 313.886245 
L 267.257233 314.046146 
L 268.79697 307.42704 
L 270.336708 308.226459 
L 271.876446 307.035545 
L 273.416183 307.139917 
L 274.955921 305.917799 
L 276.495658 302.368533 
L 278.035396 302.403562 
L 279.575134 300.816333 
L 281.114871 299.805308 
L 282.654609 296.262399 
L 284.194346 292.08182 
L 285.734084 295.437339 
L 287.273822 292.706358 
L 288.813559 293.923481 
L 290.353297 277.743451 
L 291.893034 278.598046 
L 293.432772 281.481386 
L 294.972509 286.802265 
L 296.512247 284.285894 
L 298.051985 286.913063 
L 299.591722 288.082512 
L 301.13146 288.417937 
L 302.671197 282.116078 
L 304.210935 281.306553 
L 305.750673 281.184384 
L 307.29041 279.382215 
L 308.830148 281.86379 
L 310.369885 280.408922 
L 311.909623 285.08656 
L 313.449361 285.125293 
L 314.989098 283.090348 
L 316.528836 291.0886 
L 318.068573 291.989813 
L 319.608311 291.153119 
L 321.148049 286.784839 
L 322.687786 288.949181 
L 324.227524 278.035621 
L 325.767261 268.181939 
L 327.306999 266.937809 
L 328.846737 256.535121 
L 331.926212 264.957998 
L 333.465949 258.988509 
L 335.005687 256.523327 
L 336.545425 250.763409 
L 338.085162 243.420425 
L 339.6249 243.010441 
L 341.164637 240.698825 
L 342.704375 237.779031 
L 344.244112 251.127127 
L 345.78385 246.764281 
L 347.323588 252.07925 
L 348.863325 248.48553 
L 350.403063 247.619326 
L 351.9428 244.808431 
L 353.482538 243.962101 
L 355.022276 247.613356 
L 356.562013 247.449468 
L 358.101751 250.235134 
L 359.641488 241.885959 
L 361.181226 251.547992 
L 362.720964 246.764281 
L 364.260701 252.07925 
L 365.800439 248.48553 
L 367.340176 247.619326 
L 368.879914 244.808431 
L 370.419652 243.962101 
L 371.959389 247.613356 
L 373.499127 247.449468 
L 375.038864 250.235134 
L 378.11834 235.924164 
L 379.658077 239.273342 
L 381.197815 244.065957 
L 382.737552 245.696354 
L 384.27729 250.135167 
L 385.817027 243.17332 
L 387.356765 243.183001 
L 388.896503 242.767084 
L 390.43624 238.184891 
L 391.975978 241.279183 
L 393.515715 242.650146 
L 395.055453 239.630018 
L 396.595191 243.024635 
L 398.134928 242.170473 
L 399.674666 240.458861 
L 401.214403 240.747521 
L 402.754141 246.004811 
L 404.293879 239.734494 
L 405.833616 246.951442 
L 407.373354 246.165453 
L 408.913091 243.393192 
L 410.452829 241.512354 
L 411.992567 253.502054 
L 413.532304 259.294052 
L 415.072042 252.439006 
L 416.611779 244.18103 
L 418.151517 251.919283 
L 419.691255 250.473087 
L 421.230992 251.600679 
L 422.77073 245.184065 
L 424.310467 242.183847 
L 425.850205 245.682237 
L 427.389943 241.075364 
L 428.92968 239.09063 
L 430.469418 235.524716 
L 432.009155 236.74899 
L 435.08863 231.743041 
L 436.628368 231.734609 
L 438.168106 234.773301 
L 438.168106 234.773301 
" style="fill:none;stroke:#0000ff;stroke-linecap:square;stroke-width:1.5;"/>
   </g>
   <g id="line2d_40">
    <path clip-path="url(#pe9cd4c6044)" d="M 114.823211 325.921635 
L 114.823211 227.249512 
" style="fill:none;stroke:#0000ff;stroke-dasharray:7.4,3.2;stroke-dashoffset:0;stroke-opacity:0.5;stroke-width:2;"/>
   </g>
   <g id="patch_22">
    <path d="M 25.903365 325.921635 
L 25.903365 227.249512 
" style="fill:none;stroke:#000000;stroke-linecap:square;stroke-linejoin:miter;stroke-width:0.8;"/>
   </g>
   <g id="patch_23">
    <path d="M 457.79976 325.921635 
L 457.79976 227.249512 
" style="fill:none;stroke:#000000;stroke-linecap:square;stroke-linejoin:miter;stroke-width:0.8;"/>
   </g>
   <g id="patch_24">
    <path d="M 25.903365 325.921635 
L 457.79976 325.921635 
" style="fill:none;stroke:#000000;stroke-linecap:square;stroke-linejoin:miter;stroke-width:0.8;"/>
   </g>
   <g id="patch_25">
    <path d="M 25.903365 227.249512 
L 457.79976 227.249512 
" style="fill:none;stroke:#000000;stroke-linecap:square;stroke-linejoin:miter;stroke-width:0.8;"/>
   </g>
   <g id="text_38">
    <!-- Matrix profile -->
    <defs>
     <path d="M 9.8125 72.90625 
L 24.515625 72.90625 
L 43.109375 23.296875 
L 61.8125 72.90625 
L 76.515625 72.90625 
L 76.515625 0 
L 66.890625 0 
L 66.890625 64.015625 
L 48.09375 14.015625 
L 38.1875 14.015625 
L 19.390625 64.015625 
L 19.390625 0 
L 9.8125 0 
z
" id="DejaVuSans-77"/>
     <path d="M 54.890625 54.6875 
L 35.109375 28.078125 
L 55.90625 0 
L 45.3125 0 
L 29.390625 21.484375 
L 13.484375 0 
L 2.875 0 
L 24.125 28.609375 
L 4.6875 54.6875 
L 15.28125 54.6875 
L 29.78125 35.203125 
L 44.28125 54.6875 
z
" id="DejaVuSans-120"/>
    </defs>
    <g transform="translate(202.104375 221.249512)scale(0.12 -0.12)">
     <use xlink:href="#DejaVuSans-77"/>
     <use x="86.279297" xlink:href="#DejaVuSans-97"/>
     <use x="147.558594" xlink:href="#DejaVuSans-116"/>
     <use x="186.767578" xlink:href="#DejaVuSans-114"/>
     <use x="227.880859" xlink:href="#DejaVuSans-105"/>
     <use x="255.664062" xlink:href="#DejaVuSans-120"/>
     <use x="314.84375" xlink:href="#DejaVuSans-32"/>
     <use x="346.630859" xlink:href="#DejaVuSans-112"/>
     <use x="410.107422" xlink:href="#DejaVuSans-114"/>
     <use x="448.970703" xlink:href="#DejaVuSans-111"/>
     <use x="510.152344" xlink:href="#DejaVuSans-102"/>
     <use x="545.357422" xlink:href="#DejaVuSans-105"/>
     <use x="573.140625" xlink:href="#DejaVuSans-108"/>
     <use x="600.923828" xlink:href="#DejaVuSans-101"/>
    </g>
   </g>
   <g id="legend_3">
    <g id="patch_26">
     <path d="M 342.54976 321.921635 
L 452.19976 321.921635 
Q 453.79976 321.921635 453.79976 320.321635 
L 453.79976 297.636635 
Q 453.79976 296.036635 452.19976 296.036635 
L 342.54976 296.036635 
Q 340.94976 296.036635 340.94976 297.636635 
L 340.94976 320.321635 
Q 340.94976 321.921635 342.54976 321.921635 
z
" style="fill:#ffffff;opacity:0.8;stroke:#cccccc;stroke-linejoin:miter;"/>
    </g>
    <g id="line2d_41">
     <path d="M 344.14976 302.515385 
L 360.14976 302.515385 
" style="fill:none;stroke:#0000ff;stroke-dasharray:7.4,3.2;stroke-dashoffset:0;stroke-opacity:0.5;stroke-width:2;"/>
    </g>
    <g id="line2d_42"/>
    <g id="text_39">
     <!-- segment start -->
     <g transform="translate(366.54976 305.315385)scale(0.08 -0.08)">
      <use xlink:href="#DejaVuSans-115"/>
      <use x="52.099609" xlink:href="#DejaVuSans-101"/>
      <use x="113.623047" xlink:href="#DejaVuSans-103"/>
      <use x="177.099609" xlink:href="#DejaVuSans-109"/>
      <use x="274.511719" xlink:href="#DejaVuSans-101"/>
      <use x="336.035156" xlink:href="#DejaVuSans-110"/>
      <use x="399.414062" xlink:href="#DejaVuSans-116"/>
      <use x="438.623047" xlink:href="#DejaVuSans-32"/>
      <use x="470.410156" xlink:href="#DejaVuSans-115"/>
      <use x="522.509766" xlink:href="#DejaVuSans-116"/>
      <use x="561.71875" xlink:href="#DejaVuSans-97"/>
      <use x="622.998047" xlink:href="#DejaVuSans-114"/>
      <use x="664.111328" xlink:href="#DejaVuSans-116"/>
     </g>
    </g>
    <g id="PathCollection_4">
     <g>
      <use style="fill:#ff0000;stroke:#ff0000;stroke-width:1.5;" x="352.14976" xlink:href="#m4c2629bbb0" y="314.957885"/>
     </g>
    </g>
    <g id="text_40">
     <!-- MP segment = 2.023 -->
     <defs>
      <path d="M 19.671875 64.796875 
L 19.671875 37.40625 
L 32.078125 37.40625 
Q 38.96875 37.40625 42.71875 40.96875 
Q 46.484375 44.53125 46.484375 51.125 
Q 46.484375 57.671875 42.71875 61.234375 
Q 38.96875 64.796875 32.078125 64.796875 
z
M 9.8125 72.90625 
L 32.078125 72.90625 
Q 44.34375 72.90625 50.609375 67.359375 
Q 56.890625 61.8125 56.890625 51.125 
Q 56.890625 40.328125 50.609375 34.8125 
Q 44.34375 29.296875 32.078125 29.296875 
L 19.671875 29.296875 
L 19.671875 0 
L 9.8125 0 
z
" id="DejaVuSans-80"/>
     </defs>
     <g transform="translate(366.54976 317.057885)scale(0.08 -0.08)">
      <use xlink:href="#DejaVuSans-77"/>
      <use x="86.279297" xlink:href="#DejaVuSans-80"/>
      <use x="146.582031" xlink:href="#DejaVuSans-32"/>
      <use x="178.369141" xlink:href="#DejaVuSans-115"/>
      <use x="230.46875" xlink:href="#DejaVuSans-101"/>
      <use x="291.992188" xlink:href="#DejaVuSans-103"/>
      <use x="355.46875" xlink:href="#DejaVuSans-109"/>
      <use x="452.880859" xlink:href="#DejaVuSans-101"/>
      <use x="514.404297" xlink:href="#DejaVuSans-110"/>
      <use x="577.783203" xlink:href="#DejaVuSans-116"/>
      <use x="616.992188" xlink:href="#DejaVuSans-32"/>
      <use x="648.779297" xlink:href="#DejaVuSans-61"/>
      <use x="732.568359" xlink:href="#DejaVuSans-32"/>
      <use x="764.355469" xlink:href="#DejaVuSans-50"/>
      <use x="827.978516" xlink:href="#DejaVuSans-46"/>
      <use x="859.765625" xlink:href="#DejaVuSans-48"/>
      <use x="923.388672" xlink:href="#DejaVuSans-50"/>
      <use x="987.011719" xlink:href="#DejaVuSans-51"/>
     </g>
    </g>
   </g>
  </g>
 </g>
 <defs>
  <clipPath id="pa084a2a90e">
   <rect height="98.672123" width="431.896395" x="25.903365" y="18.118365"/>
  </clipPath>
  <clipPath id="peccb575180">
   <rect height="32.890708" width="64.098346" x="25.903365" y="155.574646"/>
  </clipPath>
  <clipPath id="p475cd09279">
   <rect height="32.890708" width="346.131069" x="111.668691" y="155.574646"/>
  </clipPath>
  <clipPath id="pe9cd4c6044">
   <rect height="98.672123" width="431.896395" x="25.903365" y="227.249512"/>
  </clipPath>
 </defs>
</svg>
