<?xml version="1.0" encoding="utf-8" standalone="no"?>
<!DOCTYPE svg PUBLIC "-//W3C//DTD SVG 1.1//EN"
  "http://www.w3.org/Graphics/SVG/1.1/DTD/svg11.dtd">
<!-- Created with matplotlib (https://matplotlib.org/) -->
<svg height="345.6pt" version="1.1" viewBox="0 0 460.8 345.6" width="460.8pt" xmlns="http://www.w3.org/2000/svg" xmlns:xlink="http://www.w3.org/1999/xlink">
 <defs>
  <style type="text/css">
*{stroke-linecap:butt;stroke-linejoin:round;}
  </style>
 </defs>
 <g id="figure_1">
  <g id="patch_1">
   <path d="M 0 345.6 
L 460.8 345.6 
L 460.8 0 
L 0 0 
z
" style="fill:#ffffff;"/>
  </g>
  <g id="axes_1">
   <g id="patch_2">
    <path d="M 33.64 157.11 
L 450 157.11 
L 450 26.88 
L 33.64 26.88 
z
" style="fill:#ffffff;"/>
   </g>
   <g id="matplotlib.axis_1">
    <g id="xtick_1">
     <g id="line2d_1">
      <defs>
       <path d="M 0 0 
L 0 3.5 
" id="mce7f47b07a" style="stroke:#000000;stroke-width:0.8;"/>
      </defs>
      <g>
       <use style="stroke:#000000;stroke-width:0.8;" x="52.565455" xlink:href="#mce7f47b07a" y="157.11"/>
      </g>
     </g>
    </g>
    <g id="xtick_2">
     <g id="line2d_2">
      <g>
       <use style="stroke:#000000;stroke-width:0.8;" x="121.636457" xlink:href="#mce7f47b07a" y="157.11"/>
      </g>
     </g>
    </g>
    <g id="xtick_3">
     <g id="line2d_3">
      <g>
       <use style="stroke:#000000;stroke-width:0.8;" x="190.707459" xlink:href="#mce7f47b07a" y="157.11"/>
      </g>
     </g>
    </g>
    <g id="xtick_4">
     <g id="line2d_4">
      <g>
       <use style="stroke:#000000;stroke-width:0.8;" x="259.778461" xlink:href="#mce7f47b07a" y="157.11"/>
      </g>
     </g>
    </g>
    <g id="xtick_5">
     <g id="line2d_5">
      <g>
       <use style="stroke:#000000;stroke-width:0.8;" x="328.849463" xlink:href="#mce7f47b07a" y="157.11"/>
      </g>
     </g>
    </g>
    <g id="xtick_6">
     <g id="line2d_6">
      <g>
       <use style="stroke:#000000;stroke-width:0.8;" x="397.920464" xlink:href="#mce7f47b07a" y="157.11"/>
      </g>
     </g>
    </g>
   </g>
   <g id="matplotlib.axis_2">
    <g id="ytick_1">
     <g id="line2d_7">
      <defs>
       <path d="M 0 0 
L -3.5 0 
" id="m52548f6e46" style="stroke:#000000;stroke-width:0.8;"/>
      </defs>
      <g>
       <use style="stroke:#000000;stroke-width:0.8;" x="33.64" xlink:href="#m52548f6e46" y="151.190455"/>
      </g>
     </g>
     <g id="text_1">
      <!-- 0.0 -->
      <defs>
       <path d="M 31.78125 66.40625 
Q 24.171875 66.40625 20.328125 58.90625 
Q 16.5 51.421875 16.5 36.375 
Q 16.5 21.390625 20.328125 13.890625 
Q 24.171875 6.390625 31.78125 6.390625 
Q 39.453125 6.390625 43.28125 13.890625 
Q 47.125 21.390625 47.125 36.375 
Q 47.125 51.421875 43.28125 58.90625 
Q 39.453125 66.40625 31.78125 66.40625 
z
M 31.78125 74.21875 
Q 44.046875 74.21875 50.515625 64.515625 
Q 56.984375 54.828125 56.984375 36.375 
Q 56.984375 17.96875 50.515625 8.265625 
Q 44.046875 -1.421875 31.78125 -1.421875 
Q 19.53125 -1.421875 13.0625 8.265625 
Q 6.59375 17.96875 6.59375 36.375 
Q 6.59375 54.828125 13.0625 64.515625 
Q 19.53125 74.21875 31.78125 74.21875 
z
" id="DejaVuSans-48"/>
       <path d="M 10.6875 12.40625 
L 21 12.40625 
L 21 0 
L 10.6875 0 
z
" id="DejaVuSans-46"/>
      </defs>
      <g transform="translate(10.736875 154.989673)scale(0.1 -0.1)">
       <use xlink:href="#DejaVuSans-48"/>
       <use x="63.623047" xlink:href="#DejaVuSans-46"/>
       <use x="95.410156" xlink:href="#DejaVuSans-48"/>
      </g>
     </g>
    </g>
    <g id="ytick_2">
     <g id="line2d_8">
      <g>
       <use style="stroke:#000000;stroke-width:0.8;" x="33.64" xlink:href="#m52548f6e46" y="127.512273"/>
      </g>
     </g>
     <g id="text_2">
      <!-- 0.2 -->
      <defs>
       <path d="M 19.1875 8.296875 
L 53.609375 8.296875 
L 53.609375 0 
L 7.328125 0 
L 7.328125 8.296875 
Q 12.9375 14.109375 22.625 23.890625 
Q 32.328125 33.6875 34.8125 36.53125 
Q 39.546875 41.84375 41.421875 45.53125 
Q 43.3125 49.21875 43.3125 52.78125 
Q 43.3125 58.59375 39.234375 62.25 
Q 35.15625 65.921875 28.609375 65.921875 
Q 23.96875 65.921875 18.8125 64.3125 
Q 13.671875 62.703125 7.8125 59.421875 
L 7.8125 69.390625 
Q 13.765625 71.78125 18.9375 73 
Q 24.125 74.21875 28.421875 74.21875 
Q 39.75 74.21875 46.484375 68.546875 
Q 53.21875 62.890625 53.21875 53.421875 
Q 53.21875 48.921875 51.53125 44.890625 
Q 49.859375 40.875 45.40625 35.40625 
Q 44.1875 33.984375 37.640625 27.21875 
Q 31.109375 20.453125 19.1875 8.296875 
z
" id="DejaVuSans-50"/>
      </defs>
      <g transform="translate(10.736875 131.311491)scale(0.1 -0.1)">
       <use xlink:href="#DejaVuSans-48"/>
       <use x="63.623047" xlink:href="#DejaVuSans-46"/>
       <use x="95.410156" xlink:href="#DejaVuSans-50"/>
      </g>
     </g>
    </g>
    <g id="ytick_3">
     <g id="line2d_9">
      <g>
       <use style="stroke:#000000;stroke-width:0.8;" x="33.64" xlink:href="#m52548f6e46" y="103.834091"/>
      </g>
     </g>
     <g id="text_3">
      <!-- 0.4 -->
      <defs>
       <path d="M 37.796875 64.3125 
L 12.890625 25.390625 
L 37.796875 25.390625 
z
M 35.203125 72.90625 
L 47.609375 72.90625 
L 47.609375 25.390625 
L 58.015625 25.390625 
L 58.015625 17.1875 
L 47.609375 17.1875 
L 47.609375 0 
L 37.796875 0 
L 37.796875 17.1875 
L 4.890625 17.1875 
L 4.890625 26.703125 
z
" id="DejaVuSans-52"/>
      </defs>
      <g transform="translate(10.736875 107.63331)scale(0.1 -0.1)">
       <use xlink:href="#DejaVuSans-48"/>
       <use x="63.623047" xlink:href="#DejaVuSans-46"/>
       <use x="95.410156" xlink:href="#DejaVuSans-52"/>
      </g>
     </g>
    </g>
    <g id="ytick_4">
     <g id="line2d_10">
      <g>
       <use style="stroke:#000000;stroke-width:0.8;" x="33.64" xlink:href="#m52548f6e46" y="80.155909"/>
      </g>
     </g>
     <g id="text_4">
      <!-- 0.6 -->
      <defs>
       <path d="M 33.015625 40.375 
Q 26.375 40.375 22.484375 35.828125 
Q 18.609375 31.296875 18.609375 23.390625 
Q 18.609375 15.53125 22.484375 10.953125 
Q 26.375 6.390625 33.015625 6.390625 
Q 39.65625 6.390625 43.53125 10.953125 
Q 47.40625 15.53125 47.40625 23.390625 
Q 47.40625 31.296875 43.53125 35.828125 
Q 39.65625 40.375 33.015625 40.375 
z
M 52.59375 71.296875 
L 52.59375 62.3125 
Q 48.875 64.0625 45.09375 64.984375 
Q 41.3125 65.921875 37.59375 65.921875 
Q 27.828125 65.921875 22.671875 59.328125 
Q 17.53125 52.734375 16.796875 39.40625 
Q 19.671875 43.65625 24.015625 45.921875 
Q 28.375 48.1875 33.59375 48.1875 
Q 44.578125 48.1875 50.953125 41.515625 
Q 57.328125 34.859375 57.328125 23.390625 
Q 57.328125 12.15625 50.6875 5.359375 
Q 44.046875 -1.421875 33.015625 -1.421875 
Q 20.359375 -1.421875 13.671875 8.265625 
Q 6.984375 17.96875 6.984375 36.375 
Q 6.984375 53.65625 15.1875 63.9375 
Q 23.390625 74.21875 37.203125 74.21875 
Q 40.921875 74.21875 44.703125 73.484375 
Q 48.484375 72.75 52.59375 71.296875 
z
" id="DejaVuSans-54"/>
      </defs>
      <g transform="translate(10.736875 83.955128)scale(0.1 -0.1)">
       <use xlink:href="#DejaVuSans-48"/>
       <use x="63.623047" xlink:href="#DejaVuSans-46"/>
       <use x="95.410156" xlink:href="#DejaVuSans-54"/>
      </g>
     </g>
    </g>
    <g id="ytick_5">
     <g id="line2d_11">
      <g>
       <use style="stroke:#000000;stroke-width:0.8;" x="33.64" xlink:href="#m52548f6e46" y="56.477727"/>
      </g>
     </g>
     <g id="text_5">
      <!-- 0.8 -->
      <defs>
       <path d="M 31.78125 34.625 
Q 24.75 34.625 20.71875 30.859375 
Q 16.703125 27.09375 16.703125 20.515625 
Q 16.703125 13.921875 20.71875 10.15625 
Q 24.75 6.390625 31.78125 6.390625 
Q 38.8125 6.390625 42.859375 10.171875 
Q 46.921875 13.96875 46.921875 20.515625 
Q 46.921875 27.09375 42.890625 30.859375 
Q 38.875 34.625 31.78125 34.625 
z
M 21.921875 38.8125 
Q 15.578125 40.375 12.03125 44.71875 
Q 8.5 49.078125 8.5 55.328125 
Q 8.5 64.0625 14.71875 69.140625 
Q 20.953125 74.21875 31.78125 74.21875 
Q 42.671875 74.21875 48.875 69.140625 
Q 55.078125 64.0625 55.078125 55.328125 
Q 55.078125 49.078125 51.53125 44.71875 
Q 48 40.375 41.703125 38.8125 
Q 48.828125 37.15625 52.796875 32.3125 
Q 56.78125 27.484375 56.78125 20.515625 
Q 56.78125 9.90625 50.3125 4.234375 
Q 43.84375 -1.421875 31.78125 -1.421875 
Q 19.734375 -1.421875 13.25 4.234375 
Q 6.78125 9.90625 6.78125 20.515625 
Q 6.78125 27.484375 10.78125 32.3125 
Q 14.796875 37.15625 21.921875 38.8125 
z
M 18.3125 54.390625 
Q 18.3125 48.734375 21.84375 45.5625 
Q 25.390625 42.390625 31.78125 42.390625 
Q 38.140625 42.390625 41.71875 45.5625 
Q 45.3125 48.734375 45.3125 54.390625 
Q 45.3125 60.0625 41.71875 63.234375 
Q 38.140625 66.40625 31.78125 66.40625 
Q 25.390625 66.40625 21.84375 63.234375 
Q 18.3125 60.0625 18.3125 54.390625 
z
" id="DejaVuSans-56"/>
      </defs>
      <g transform="translate(10.736875 60.276946)scale(0.1 -0.1)">
       <use xlink:href="#DejaVuSans-48"/>
       <use x="63.623047" xlink:href="#DejaVuSans-46"/>
       <use x="95.410156" xlink:href="#DejaVuSans-56"/>
      </g>
     </g>
    </g>
    <g id="ytick_6">
     <g id="line2d_12">
      <g>
       <use style="stroke:#000000;stroke-width:0.8;" x="33.64" xlink:href="#m52548f6e46" y="32.799545"/>
      </g>
     </g>
     <g id="text_6">
      <!-- 1.0 -->
      <defs>
       <path d="M 12.40625 8.296875 
L 28.515625 8.296875 
L 28.515625 63.921875 
L 10.984375 60.40625 
L 10.984375 69.390625 
L 28.421875 72.90625 
L 38.28125 72.90625 
L 38.28125 8.296875 
L 54.390625 8.296875 
L 54.390625 0 
L 12.40625 0 
z
" id="DejaVuSans-49"/>
      </defs>
      <g transform="translate(10.736875 36.598764)scale(0.1 -0.1)">
       <use xlink:href="#DejaVuSans-49"/>
       <use x="63.623047" xlink:href="#DejaVuSans-46"/>
       <use x="95.410156" xlink:href="#DejaVuSans-48"/>
      </g>
     </g>
    </g>
   </g>
   <g id="line2d_13">
    <path clip-path="url(#p8e4c538fc3)" d="M 52.565455 98.683779 
L 53.946875 98.099956 
L 55.328295 98.604974 
L 56.709715 99.288087 
L 58.091135 98.708863 
L 59.472555 99.62191 
L 60.853975 98.680853 
L 62.235395 99.284116 
L 63.616815 98.570275 
L 64.998235 99.181273 
L 66.379655 98.61459 
L 67.761075 99.09118 
L 69.142495 97.369393 
L 70.523915 99.222452 
L 73.286755 98.972242 
L 74.668175 97.967012 
L 76.049595 98.612081 
L 77.431015 97.275538 
L 78.812435 98.644272 
L 80.193855 97.987288 
L 81.575275 99.259032 
L 82.956695 99.292059 
L 85.719536 98.641973 
L 87.100956 98.889465 
L 88.482376 98.778052 
L 89.863796 100.201343 
L 91.245216 99.304183 
L 92.626636 100.04248 
L 95.389476 97.956561 
L 96.770896 99.254642 
L 98.152316 98.360199 
L 99.533736 99.476424 
L 100.915156 99.24231 
L 102.296576 98.399915 
L 103.677996 100.201761 
L 105.059416 98.04937 
L 106.440836 98.583653 
L 107.822256 98.704682 
L 109.203676 100.002346 
L 110.585096 98.677717 
L 111.966516 99.921033 
L 113.347936 98.436287 
L 114.729356 98.608946 
L 116.110776 98.113961 
L 117.492196 98.463879 
L 118.873616 99.614803 
L 120.255036 99.083446 
L 121.636457 99.36522 
L 123.017877 97.780766 
L 124.399297 99.421449 
L 125.780717 98.66204 
L 128.543557 98.563795 
L 131.306397 98.667475 
L 132.687817 98.763838 
L 134.069237 97.813793 
L 135.450657 99.818399 
L 136.832077 98.688796 
L 138.213497 98.377758 
L 139.594917 100.129646 
L 140.976337 98.968897 
L 142.357757 98.440885 
L 143.739177 98.383402 
L 145.120597 98.800627 
L 146.502017 98.430434 
L 147.883437 98.835745 
L 149.264857 97.157854 
L 150.646277 98.978722 
L 152.027697 97.5987 
L 153.409117 98.639674 
L 154.790537 97.867514 
L 156.171958 99.5592 
L 157.553378 98.424163 
L 158.934798 98.210115 
L 160.316218 98.64469 
L 163.079058 98.851422 
L 164.460478 97.329677 
L 165.841898 98.33637 
L 167.223318 99.066097 
L 168.604738 97.702379 
L 169.986158 98.838253 
L 171.367578 97.404928 
L 172.748998 98.398034 
L 174.130418 99.036414 
L 175.511838 99.10644 
L 176.893258 97.19527 
L 178.274678 97.268013 
L 179.656098 89.994574 
L 181.037518 64.910869 
L 182.418938 37.764029 
L 183.800358 32.799545 
L 185.181778 33.140266 
L 186.563198 44.112297 
L 189.326038 136.669079 
L 190.707459 148.456331 
L 192.088879 151.190455 
L 193.470299 150.565452 
L 194.851719 150.538278 
L 196.233139 150.651155 
L 197.614559 148.755245 
L 198.995979 150.667877 
L 200.377399 150.268628 
L 201.758819 150.847644 
L 203.140239 150.460937 
L 204.521659 149.114778 
L 205.903079 150.623981 
L 207.284499 150.525736 
L 208.665919 148.903657 
L 210.047339 147.77489 
L 211.428759 147.563769 
L 212.810179 149.112688 
L 214.191599 149.980166 
L 216.954439 148.149055 
L 219.717279 147.394454 
L 221.098699 148.537853 
L 222.480119 147.946295 
L 223.861539 146.763181 
L 225.24296 147.402815 
L 226.62438 146.526976 
L 228.0058 146.593866 
L 229.38722 146.775722 
L 230.76864 146.037843 
L 232.15006 145.605149 
L 233.53148 146.108914 
L 234.9129 144.014424 
L 236.29432 145.901973 
L 237.67574 143.585911 
L 239.05716 144.672872 
L 240.43858 143.092598 
L 241.82 144.202552 
L 243.20142 142.271107 
L 244.58284 142.183314 
L 247.34568 143.257733 
L 248.7271 141.092173 
L 250.10852 141.301204 
L 251.48994 140.285314 
L 252.87136 138.928703 
L 254.25278 140.178708 
L 255.6342 140.153624 
L 257.01562 138.257714 
L 258.39704 137.421591 
L 259.778461 138.036141 
L 261.159881 137.27945 
L 262.541301 138.16574 
L 263.922721 137.089231 
L 265.304141 135.201683 
L 266.685561 135.985548 
L 268.066981 134.635209 
L 269.448401 132.649625 
L 270.829821 133.5587 
L 272.211241 132.516681 
L 273.592661 131.74912 
L 274.974081 130.630177 
L 276.355501 130.711281 
L 277.736921 129.552623 
L 279.118341 129.033599 
L 280.499761 128.33251 
L 281.881181 127.449354 
L 283.262601 127.244086 
L 284.644021 127.707926 
L 286.025441 125.939733 
L 287.406861 125.812016 
L 291.551121 123.913388 
L 292.932541 124.625138 
L 294.313962 122.680524 
L 295.695382 122.124502 
L 297.076802 121.046112 
L 298.458222 121.113001 
L 299.839642 119.49343 
L 301.221062 118.681763 
L 302.602482 117.183848 
L 303.983902 117.971267 
L 305.365322 117.482762 
L 306.746742 116.648938 
L 308.128162 116.032088 
L 309.509582 115.604411 
L 310.891002 115.591451 
L 312.272422 114.06239 
L 313.653842 114.03208 
L 315.035262 113.776059 
L 316.416682 112.745642 
L 319.179522 112.550867 
L 320.560942 110.855313 
L 321.942362 110.636583 
L 324.705202 109.694146 
L 326.086622 108.986284 
L 327.468042 109.120482 
L 328.849463 108.655597 
L 331.612303 109.453259 
L 332.993723 109.170858 
L 334.375143 107.22708 
L 335.756563 107.295642 
L 337.137983 107.57658 
L 338.519403 106.183598 
L 339.900823 106.031005 
L 341.282243 106.441124 
L 342.663663 107.062364 
L 344.045083 105.680043 
L 345.426503 105.048142 
L 346.807923 105.325108 
L 348.189343 104.847055 
L 349.570763 104.937356 
L 350.952183 103.567577 
L 353.715023 104.055873 
L 355.096443 103.557752 
L 356.477863 102.828025 
L 357.859283 103.382584 
L 359.240703 103.350602 
L 360.622123 104.370046 
L 362.003543 103.845797 
L 363.384964 102.162471 
L 364.766384 103.374014 
L 366.147804 101.203437 
L 367.529224 101.094323 
L 368.910644 102.426477 
L 370.292064 101.732285 
L 371.673484 102.173341 
L 373.054904 101.267192 
L 374.436324 101.033913 
L 375.817744 102.278065 
L 377.199164 100.363342 
L 378.580584 100.129855 
L 379.962004 100.760501 
L 381.343424 101.852478 
L 384.106264 101.057743 
L 385.487684 100.363969 
L 386.869104 100.584079 
L 388.250524 101.001513 
L 389.631944 99.543314 
L 391.013364 100.663092 
L 392.394784 101.046246 
L 393.776204 101.708247 
L 395.157624 99.289969 
L 396.539044 99.786417 
L 397.920464 100.055858 
L 399.301885 99.823624 
L 400.683305 98.855602 
L 402.064725 99.455939 
L 403.446145 101.159541 
L 404.827565 100.474547 
L 406.208985 98.968897 
L 407.590405 99.695698 
L 408.971825 98.405977 
L 410.353245 100.612507 
L 411.734665 100.29687 
L 413.116085 100.584915 
L 414.497505 98.653888 
L 415.878925 100.417481 
L 417.260345 100.776178 
L 418.641765 99.135495 
L 420.023185 98.125249 
L 421.404605 99.237084 
L 422.786025 99.354559 
L 424.167445 99.73395 
L 425.548865 99.20134 
L 426.930285 100.079896 
L 428.311705 98.623787 
L 429.693125 98.766137 
L 431.074545 99.027844 
L 431.074545 99.027844 
" style="fill:none;stroke:#1f77b4;stroke-linecap:square;stroke-width:1.5;"/>
   </g>
   <g id="line2d_14">
    <path clip-path="url(#p8e4c538fc3)" d="M 176.893258 96.796752 
L 178.274678 94.826228 
L 179.656098 89.557613 
L 181.037518 68.677333 
L 182.418938 42.398529 
L 183.800358 32.854844 
L 185.181778 32.799545 
L 186.563198 42.930536 
L 187.944618 92.302039 
L 189.326038 138.05896 
L 190.707459 149.755751 
L 192.088879 151.190455 
L 193.470299 150.42113 
L 194.851719 149.183844 
L 196.233139 147.240674 
L 197.614559 147.011197 
L 198.995979 147.57932 
L 200.377399 148.409252 
L 201.758819 149.616969 
L 203.140239 150.552506 
" style="fill:none;stroke:#ff7f0e;stroke-linecap:square;stroke-width:2;"/>
   </g>
   <g id="line2d_15">
    <path clip-path="url(#p8e4c538fc3)" d="M 176.893258 157.11 
L 176.893258 26.88 
" style="fill:none;stroke:#000000;stroke-dasharray:5.55,2.4;stroke-dashoffset:0;stroke-opacity:0.25;stroke-width:1.5;"/>
   </g>
   <g id="patch_3">
    <path d="M 33.64 157.11 
L 33.64 26.88 
" style="fill:none;stroke:#000000;stroke-linecap:square;stroke-linejoin:miter;stroke-width:0.8;"/>
   </g>
   <g id="patch_4">
    <path d="M 450 157.11 
L 450 26.88 
" style="fill:none;stroke:#000000;stroke-linecap:square;stroke-linejoin:miter;stroke-width:0.8;"/>
   </g>
   <g id="patch_5">
    <path d="M 33.64 157.11 
L 450 157.11 
" style="fill:none;stroke:#000000;stroke-linecap:square;stroke-linejoin:miter;stroke-width:0.8;"/>
   </g>
   <g id="patch_6">
    <path d="M 33.64 26.88 
L 450 26.88 
" style="fill:none;stroke:#000000;stroke-linecap:square;stroke-linejoin:miter;stroke-width:0.8;"/>
   </g>
   <g id="text_7">
    <!-- The aligned extracted shapelet -->
    <defs>
     <path d="M -0.296875 72.90625 
L 61.375 72.90625 
L 61.375 64.59375 
L 35.5 64.59375 
L 35.5 0 
L 25.59375 0 
L 25.59375 64.59375 
L -0.296875 64.59375 
z
" id="DejaVuSans-84"/>
     <path d="M 54.890625 33.015625 
L 54.890625 0 
L 45.90625 0 
L 45.90625 32.71875 
Q 45.90625 40.484375 42.875 44.328125 
Q 39.84375 48.1875 33.796875 48.1875 
Q 26.515625 48.1875 22.3125 43.546875 
Q 18.109375 38.921875 18.109375 30.90625 
L 18.109375 0 
L 9.078125 0 
L 9.078125 75.984375 
L 18.109375 75.984375 
L 18.109375 46.1875 
Q 21.34375 51.125 25.703125 53.5625 
Q 30.078125 56 35.796875 56 
Q 45.21875 56 50.046875 50.171875 
Q 54.890625 44.34375 54.890625 33.015625 
z
" id="DejaVuSans-104"/>
     <path d="M 56.203125 29.59375 
L 56.203125 25.203125 
L 14.890625 25.203125 
Q 15.484375 15.921875 20.484375 11.0625 
Q 25.484375 6.203125 34.421875 6.203125 
Q 39.59375 6.203125 44.453125 7.46875 
Q 49.3125 8.734375 54.109375 11.28125 
L 54.109375 2.78125 
Q 49.265625 0.734375 44.1875 -0.34375 
Q 39.109375 -1.421875 33.890625 -1.421875 
Q 20.796875 -1.421875 13.15625 6.1875 
Q 5.515625 13.8125 5.515625 26.8125 
Q 5.515625 40.234375 12.765625 48.109375 
Q 20.015625 56 32.328125 56 
Q 43.359375 56 49.78125 48.890625 
Q 56.203125 41.796875 56.203125 29.59375 
z
M 47.21875 32.234375 
Q 47.125 39.59375 43.09375 43.984375 
Q 39.0625 48.390625 32.421875 48.390625 
Q 24.90625 48.390625 20.390625 44.140625 
Q 15.875 39.890625 15.1875 32.171875 
z
" id="DejaVuSans-101"/>
     <path id="DejaVuSans-32"/>
     <path d="M 34.28125 27.484375 
Q 23.390625 27.484375 19.1875 25 
Q 14.984375 22.515625 14.984375 16.5 
Q 14.984375 11.71875 18.140625 8.90625 
Q 21.296875 6.109375 26.703125 6.109375 
Q 34.1875 6.109375 38.703125 11.40625 
Q 43.21875 16.703125 43.21875 25.484375 
L 43.21875 27.484375 
z
M 52.203125 31.203125 
L 52.203125 0 
L 43.21875 0 
L 43.21875 8.296875 
Q 40.140625 3.328125 35.546875 0.953125 
Q 30.953125 -1.421875 24.3125 -1.421875 
Q 15.921875 -1.421875 10.953125 3.296875 
Q 6 8.015625 6 15.921875 
Q 6 25.140625 12.171875 29.828125 
Q 18.359375 34.515625 30.609375 34.515625 
L 43.21875 34.515625 
L 43.21875 35.40625 
Q 43.21875 41.609375 39.140625 45 
Q 35.0625 48.390625 27.6875 48.390625 
Q 23 48.390625 18.546875 47.265625 
Q 14.109375 46.140625 10.015625 43.890625 
L 10.015625 52.203125 
Q 14.9375 54.109375 19.578125 55.046875 
Q 24.21875 56 28.609375 56 
Q 40.484375 56 46.34375 49.84375 
Q 52.203125 43.703125 52.203125 31.203125 
z
" id="DejaVuSans-97"/>
     <path d="M 9.421875 75.984375 
L 18.40625 75.984375 
L 18.40625 0 
L 9.421875 0 
z
" id="DejaVuSans-108"/>
     <path d="M 9.421875 54.6875 
L 18.40625 54.6875 
L 18.40625 0 
L 9.421875 0 
z
M 9.421875 75.984375 
L 18.40625 75.984375 
L 18.40625 64.59375 
L 9.421875 64.59375 
z
" id="DejaVuSans-105"/>
     <path d="M 45.40625 27.984375 
Q 45.40625 37.75 41.375 43.109375 
Q 37.359375 48.484375 30.078125 48.484375 
Q 22.859375 48.484375 18.828125 43.109375 
Q 14.796875 37.75 14.796875 27.984375 
Q 14.796875 18.265625 18.828125 12.890625 
Q 22.859375 7.515625 30.078125 7.515625 
Q 37.359375 7.515625 41.375 12.890625 
Q 45.40625 18.265625 45.40625 27.984375 
z
M 54.390625 6.78125 
Q 54.390625 -7.171875 48.1875 -13.984375 
Q 42 -20.796875 29.203125 -20.796875 
Q 24.46875 -20.796875 20.265625 -20.09375 
Q 16.0625 -19.390625 12.109375 -17.921875 
L 12.109375 -9.1875 
Q 16.0625 -11.328125 19.921875 -12.34375 
Q 23.78125 -13.375 27.78125 -13.375 
Q 36.625 -13.375 41.015625 -8.765625 
Q 45.40625 -4.15625 45.40625 5.171875 
L 45.40625 9.625 
Q 42.625 4.78125 38.28125 2.390625 
Q 33.9375 0 27.875 0 
Q 17.828125 0 11.671875 7.65625 
Q 5.515625 15.328125 5.515625 27.984375 
Q 5.515625 40.671875 11.671875 48.328125 
Q 17.828125 56 27.875 56 
Q 33.9375 56 38.28125 53.609375 
Q 42.625 51.21875 45.40625 46.390625 
L 45.40625 54.6875 
L 54.390625 54.6875 
z
" id="DejaVuSans-103"/>
     <path d="M 54.890625 33.015625 
L 54.890625 0 
L 45.90625 0 
L 45.90625 32.71875 
Q 45.90625 40.484375 42.875 44.328125 
Q 39.84375 48.1875 33.796875 48.1875 
Q 26.515625 48.1875 22.3125 43.546875 
Q 18.109375 38.921875 18.109375 30.90625 
L 18.109375 0 
L 9.078125 0 
L 9.078125 54.6875 
L 18.109375 54.6875 
L 18.109375 46.1875 
Q 21.34375 51.125 25.703125 53.5625 
Q 30.078125 56 35.796875 56 
Q 45.21875 56 50.046875 50.171875 
Q 54.890625 44.34375 54.890625 33.015625 
z
" id="DejaVuSans-110"/>
     <path d="M 45.40625 46.390625 
L 45.40625 75.984375 
L 54.390625 75.984375 
L 54.390625 0 
L 45.40625 0 
L 45.40625 8.203125 
Q 42.578125 3.328125 38.25 0.953125 
Q 33.9375 -1.421875 27.875 -1.421875 
Q 17.96875 -1.421875 11.734375 6.484375 
Q 5.515625 14.40625 5.515625 27.296875 
Q 5.515625 40.1875 11.734375 48.09375 
Q 17.96875 56 27.875 56 
Q 33.9375 56 38.25 53.625 
Q 42.578125 51.265625 45.40625 46.390625 
z
M 14.796875 27.296875 
Q 14.796875 17.390625 18.875 11.75 
Q 22.953125 6.109375 30.078125 6.109375 
Q 37.203125 6.109375 41.296875 11.75 
Q 45.40625 17.390625 45.40625 27.296875 
Q 45.40625 37.203125 41.296875 42.84375 
Q 37.203125 48.484375 30.078125 48.484375 
Q 22.953125 48.484375 18.875 42.84375 
Q 14.796875 37.203125 14.796875 27.296875 
z
" id="DejaVuSans-100"/>
     <path d="M 54.890625 54.6875 
L 35.109375 28.078125 
L 55.90625 0 
L 45.3125 0 
L 29.390625 21.484375 
L 13.484375 0 
L 2.875 0 
L 24.125 28.609375 
L 4.6875 54.6875 
L 15.28125 54.6875 
L 29.78125 35.203125 
L 44.28125 54.6875 
z
" id="DejaVuSans-120"/>
     <path d="M 18.3125 70.21875 
L 18.3125 54.6875 
L 36.8125 54.6875 
L 36.8125 47.703125 
L 18.3125 47.703125 
L 18.3125 18.015625 
Q 18.3125 11.328125 20.140625 9.421875 
Q 21.96875 7.515625 27.59375 7.515625 
L 36.8125 7.515625 
L 36.8125 0 
L 27.59375 0 
Q 17.1875 0 13.234375 3.875 
Q 9.28125 7.765625 9.28125 18.015625 
L 9.28125 47.703125 
L 2.6875 47.703125 
L 2.6875 54.6875 
L 9.28125 54.6875 
L 9.28125 70.21875 
z
" id="DejaVuSans-116"/>
     <path d="M 41.109375 46.296875 
Q 39.59375 47.171875 37.8125 47.578125 
Q 36.03125 48 33.890625 48 
Q 26.265625 48 22.1875 43.046875 
Q 18.109375 38.09375 18.109375 28.8125 
L 18.109375 0 
L 9.078125 0 
L 9.078125 54.6875 
L 18.109375 54.6875 
L 18.109375 46.1875 
Q 20.953125 51.171875 25.484375 53.578125 
Q 30.03125 56 36.53125 56 
Q 37.453125 56 38.578125 55.875 
Q 39.703125 55.765625 41.0625 55.515625 
z
" id="DejaVuSans-114"/>
     <path d="M 48.78125 52.59375 
L 48.78125 44.1875 
Q 44.96875 46.296875 41.140625 47.34375 
Q 37.3125 48.390625 33.40625 48.390625 
Q 24.65625 48.390625 19.8125 42.84375 
Q 14.984375 37.3125 14.984375 27.296875 
Q 14.984375 17.28125 19.8125 11.734375 
Q 24.65625 6.203125 33.40625 6.203125 
Q 37.3125 6.203125 41.140625 7.25 
Q 44.96875 8.296875 48.78125 10.40625 
L 48.78125 2.09375 
Q 45.015625 0.34375 40.984375 -0.53125 
Q 36.96875 -1.421875 32.421875 -1.421875 
Q 20.0625 -1.421875 12.78125 6.34375 
Q 5.515625 14.109375 5.515625 27.296875 
Q 5.515625 40.671875 12.859375 48.328125 
Q 20.21875 56 33.015625 56 
Q 37.15625 56 41.109375 55.140625 
Q 45.0625 54.296875 48.78125 52.59375 
z
" id="DejaVuSans-99"/>
     <path d="M 44.28125 53.078125 
L 44.28125 44.578125 
Q 40.484375 46.53125 36.375 47.5 
Q 32.28125 48.484375 27.875 48.484375 
Q 21.1875 48.484375 17.84375 46.4375 
Q 14.5 44.390625 14.5 40.28125 
Q 14.5 37.15625 16.890625 35.375 
Q 19.28125 33.59375 26.515625 31.984375 
L 29.59375 31.296875 
Q 39.15625 29.25 43.1875 25.515625 
Q 47.21875 21.78125 47.21875 15.09375 
Q 47.21875 7.46875 41.1875 3.015625 
Q 35.15625 -1.421875 24.609375 -1.421875 
Q 20.21875 -1.421875 15.453125 -0.5625 
Q 10.6875 0.296875 5.421875 2 
L 5.421875 11.28125 
Q 10.40625 8.6875 15.234375 7.390625 
Q 20.0625 6.109375 24.8125 6.109375 
Q 31.15625 6.109375 34.5625 8.28125 
Q 37.984375 10.453125 37.984375 14.40625 
Q 37.984375 18.0625 35.515625 20.015625 
Q 33.0625 21.96875 24.703125 23.78125 
L 21.578125 24.515625 
Q 13.234375 26.265625 9.515625 29.90625 
Q 5.8125 33.546875 5.8125 39.890625 
Q 5.8125 47.609375 11.28125 51.796875 
Q 16.75 56 26.8125 56 
Q 31.78125 56 36.171875 55.265625 
Q 40.578125 54.546875 44.28125 53.078125 
z
" id="DejaVuSans-115"/>
     <path d="M 18.109375 8.203125 
L 18.109375 -20.796875 
L 9.078125 -20.796875 
L 9.078125 54.6875 
L 18.109375 54.6875 
L 18.109375 46.390625 
Q 20.953125 51.265625 25.265625 53.625 
Q 29.59375 56 35.59375 56 
Q 45.5625 56 51.78125 48.09375 
Q 58.015625 40.1875 58.015625 27.296875 
Q 58.015625 14.40625 51.78125 6.484375 
Q 45.5625 -1.421875 35.59375 -1.421875 
Q 29.59375 -1.421875 25.265625 0.953125 
Q 20.953125 3.328125 18.109375 8.203125 
z
M 48.6875 27.296875 
Q 48.6875 37.203125 44.609375 42.84375 
Q 40.53125 48.484375 33.40625 48.484375 
Q 26.265625 48.484375 22.1875 42.84375 
Q 18.109375 37.203125 18.109375 27.296875 
Q 18.109375 17.390625 22.1875 11.75 
Q 26.265625 6.109375 33.40625 6.109375 
Q 40.53125 6.109375 44.609375 11.75 
Q 48.6875 17.390625 48.6875 27.296875 
z
" id="DejaVuSans-112"/>
    </defs>
    <g transform="translate(148.214375 20.88)scale(0.12 -0.12)">
     <use xlink:href="#DejaVuSans-84"/>
     <use x="61.083984" xlink:href="#DejaVuSans-104"/>
     <use x="124.462891" xlink:href="#DejaVuSans-101"/>
     <use x="185.986328" xlink:href="#DejaVuSans-32"/>
     <use x="217.773438" xlink:href="#DejaVuSans-97"/>
     <use x="279.052734" xlink:href="#DejaVuSans-108"/>
     <use x="306.835938" xlink:href="#DejaVuSans-105"/>
     <use x="334.619141" xlink:href="#DejaVuSans-103"/>
     <use x="398.095703" xlink:href="#DejaVuSans-110"/>
     <use x="461.474609" xlink:href="#DejaVuSans-101"/>
     <use x="522.998047" xlink:href="#DejaVuSans-100"/>
     <use x="586.474609" xlink:href="#DejaVuSans-32"/>
     <use x="618.261719" xlink:href="#DejaVuSans-101"/>
     <use x="678.035156" xlink:href="#DejaVuSans-120"/>
     <use x="737.214844" xlink:href="#DejaVuSans-116"/>
     <use x="776.423828" xlink:href="#DejaVuSans-114"/>
     <use x="817.537109" xlink:href="#DejaVuSans-97"/>
     <use x="878.816406" xlink:href="#DejaVuSans-99"/>
     <use x="933.796875" xlink:href="#DejaVuSans-116"/>
     <use x="973.005859" xlink:href="#DejaVuSans-101"/>
     <use x="1034.529297" xlink:href="#DejaVuSans-100"/>
     <use x="1098.005859" xlink:href="#DejaVuSans-32"/>
     <use x="1129.792969" xlink:href="#DejaVuSans-115"/>
     <use x="1181.892578" xlink:href="#DejaVuSans-104"/>
     <use x="1245.271484" xlink:href="#DejaVuSans-97"/>
     <use x="1306.550781" xlink:href="#DejaVuSans-112"/>
     <use x="1370.027344" xlink:href="#DejaVuSans-101"/>
     <use x="1431.550781" xlink:href="#DejaVuSans-108"/>
     <use x="1459.333984" xlink:href="#DejaVuSans-101"/>
     <use x="1520.857422" xlink:href="#DejaVuSans-116"/>
    </g>
   </g>
  </g>
  <g id="axes_2">
   <g id="patch_7">
    <path d="M 33.64 317.72 
L 450 317.72 
L 450 187.49 
L 33.64 187.49 
z
" style="fill:#ffffff;"/>
   </g>
   <g id="matplotlib.axis_3">
    <g id="xtick_7">
     <g id="line2d_16">
      <g>
       <use style="stroke:#000000;stroke-width:0.8;" x="52.565455" xlink:href="#mce7f47b07a" y="317.72"/>
      </g>
     </g>
     <g id="text_8">
      <!-- 0 -->
      <g transform="translate(49.384205 332.318437)scale(0.1 -0.1)">
       <use xlink:href="#DejaVuSans-48"/>
      </g>
     </g>
    </g>
    <g id="xtick_8">
     <g id="line2d_17">
      <g>
       <use style="stroke:#000000;stroke-width:0.8;" x="121.636457" xlink:href="#mce7f47b07a" y="317.72"/>
      </g>
     </g>
     <g id="text_9">
      <!-- 50 -->
      <defs>
       <path d="M 10.796875 72.90625 
L 49.515625 72.90625 
L 49.515625 64.59375 
L 19.828125 64.59375 
L 19.828125 46.734375 
Q 21.96875 47.46875 24.109375 47.828125 
Q 26.265625 48.1875 28.421875 48.1875 
Q 40.625 48.1875 47.75 41.5 
Q 54.890625 34.8125 54.890625 23.390625 
Q 54.890625 11.625 47.5625 5.09375 
Q 40.234375 -1.421875 26.90625 -1.421875 
Q 22.3125 -1.421875 17.546875 -0.640625 
Q 12.796875 0.140625 7.71875 1.703125 
L 7.71875 11.625 
Q 12.109375 9.234375 16.796875 8.0625 
Q 21.484375 6.890625 26.703125 6.890625 
Q 35.15625 6.890625 40.078125 11.328125 
Q 45.015625 15.765625 45.015625 23.390625 
Q 45.015625 31 40.078125 35.4375 
Q 35.15625 39.890625 26.703125 39.890625 
Q 22.75 39.890625 18.8125 39.015625 
Q 14.890625 38.140625 10.796875 36.28125 
z
" id="DejaVuSans-53"/>
      </defs>
      <g transform="translate(115.273957 332.318437)scale(0.1 -0.1)">
       <use xlink:href="#DejaVuSans-53"/>
       <use x="63.623047" xlink:href="#DejaVuSans-48"/>
      </g>
     </g>
    </g>
    <g id="xtick_9">
     <g id="line2d_18">
      <g>
       <use style="stroke:#000000;stroke-width:0.8;" x="190.707459" xlink:href="#mce7f47b07a" y="317.72"/>
      </g>
     </g>
     <g id="text_10">
      <!-- 100 -->
      <g transform="translate(181.163709 332.318437)scale(0.1 -0.1)">
       <use xlink:href="#DejaVuSans-49"/>
       <use x="63.623047" xlink:href="#DejaVuSans-48"/>
       <use x="127.246094" xlink:href="#DejaVuSans-48"/>
      </g>
     </g>
    </g>
    <g id="xtick_10">
     <g id="line2d_19">
      <g>
       <use style="stroke:#000000;stroke-width:0.8;" x="259.778461" xlink:href="#mce7f47b07a" y="317.72"/>
      </g>
     </g>
     <g id="text_11">
      <!-- 150 -->
      <g transform="translate(250.234711 332.318437)scale(0.1 -0.1)">
       <use xlink:href="#DejaVuSans-49"/>
       <use x="63.623047" xlink:href="#DejaVuSans-53"/>
       <use x="127.246094" xlink:href="#DejaVuSans-48"/>
      </g>
     </g>
    </g>
    <g id="xtick_11">
     <g id="line2d_20">
      <g>
       <use style="stroke:#000000;stroke-width:0.8;" x="328.849463" xlink:href="#mce7f47b07a" y="317.72"/>
      </g>
     </g>
     <g id="text_12">
      <!-- 200 -->
      <g transform="translate(319.305713 332.318437)scale(0.1 -0.1)">
       <use xlink:href="#DejaVuSans-50"/>
       <use x="63.623047" xlink:href="#DejaVuSans-48"/>
       <use x="127.246094" xlink:href="#DejaVuSans-48"/>
      </g>
     </g>
    </g>
    <g id="xtick_12">
     <g id="line2d_21">
      <g>
       <use style="stroke:#000000;stroke-width:0.8;" x="397.920464" xlink:href="#mce7f47b07a" y="317.72"/>
      </g>
     </g>
     <g id="text_13">
      <!-- 250 -->
      <g transform="translate(388.376714 332.318437)scale(0.1 -0.1)">
       <use xlink:href="#DejaVuSans-50"/>
       <use x="63.623047" xlink:href="#DejaVuSans-53"/>
       <use x="127.246094" xlink:href="#DejaVuSans-48"/>
      </g>
     </g>
    </g>
   </g>
   <g id="matplotlib.axis_4">
    <g id="ytick_7">
     <g id="line2d_22">
      <g>
       <use style="stroke:#000000;stroke-width:0.8;" x="33.64" xlink:href="#m52548f6e46" y="315.434029"/>
      </g>
     </g>
     <g id="text_14">
      <!-- 0.0 -->
      <g transform="translate(10.736875 319.233248)scale(0.1 -0.1)">
       <use xlink:href="#DejaVuSans-48"/>
       <use x="63.623047" xlink:href="#DejaVuSans-46"/>
       <use x="95.410156" xlink:href="#DejaVuSans-48"/>
      </g>
     </g>
    </g>
    <g id="ytick_8">
     <g id="line2d_23">
      <g>
       <use style="stroke:#000000;stroke-width:0.8;" x="33.64" xlink:href="#m52548f6e46" y="291.203377"/>
      </g>
     </g>
     <g id="text_15">
      <!-- 0.5 -->
      <g transform="translate(10.736875 295.002596)scale(0.1 -0.1)">
       <use xlink:href="#DejaVuSans-48"/>
       <use x="63.623047" xlink:href="#DejaVuSans-46"/>
       <use x="95.410156" xlink:href="#DejaVuSans-53"/>
      </g>
     </g>
    </g>
    <g id="ytick_9">
     <g id="line2d_24">
      <g>
       <use style="stroke:#000000;stroke-width:0.8;" x="33.64" xlink:href="#m52548f6e46" y="266.972725"/>
      </g>
     </g>
     <g id="text_16">
      <!-- 1.0 -->
      <g transform="translate(10.736875 270.771943)scale(0.1 -0.1)">
       <use xlink:href="#DejaVuSans-49"/>
       <use x="63.623047" xlink:href="#DejaVuSans-46"/>
       <use x="95.410156" xlink:href="#DejaVuSans-48"/>
      </g>
     </g>
    </g>
    <g id="ytick_10">
     <g id="line2d_25">
      <g>
       <use style="stroke:#000000;stroke-width:0.8;" x="33.64" xlink:href="#m52548f6e46" y="242.742072"/>
      </g>
     </g>
     <g id="text_17">
      <!-- 1.5 -->
      <g transform="translate(10.736875 246.541291)scale(0.1 -0.1)">
       <use xlink:href="#DejaVuSans-49"/>
       <use x="63.623047" xlink:href="#DejaVuSans-46"/>
       <use x="95.410156" xlink:href="#DejaVuSans-53"/>
      </g>
     </g>
    </g>
    <g id="ytick_11">
     <g id="line2d_26">
      <g>
       <use style="stroke:#000000;stroke-width:0.8;" x="33.64" xlink:href="#m52548f6e46" y="218.51142"/>
      </g>
     </g>
     <g id="text_18">
      <!-- 2.0 -->
      <g transform="translate(10.736875 222.310638)scale(0.1 -0.1)">
       <use xlink:href="#DejaVuSans-50"/>
       <use x="63.623047" xlink:href="#DejaVuSans-46"/>
       <use x="95.410156" xlink:href="#DejaVuSans-48"/>
      </g>
     </g>
    </g>
    <g id="ytick_12">
     <g id="line2d_27">
      <g>
       <use style="stroke:#000000;stroke-width:0.8;" x="33.64" xlink:href="#m52548f6e46" y="194.280767"/>
      </g>
     </g>
     <g id="text_19">
      <!-- 2.5 -->
      <g transform="translate(10.736875 198.079986)scale(0.1 -0.1)">
       <use xlink:href="#DejaVuSans-50"/>
       <use x="63.623047" xlink:href="#DejaVuSans-46"/>
       <use x="95.410156" xlink:href="#DejaVuSans-53"/>
      </g>
     </g>
    </g>
   </g>
   <g id="line2d_28">
    <path clip-path="url(#pe7e76743ce)" d="M 52.565455 230.186486 
L 53.946875 230.115685 
L 64.998235 230.766375 
L 67.761075 231.264927 
L 70.523915 231.319914 
L 73.286755 231.046948 
L 78.812435 230.80684 
L 81.575275 230.399655 
L 84.338115 230.432053 
L 85.719536 230.675009 
L 88.482376 230.780941 
L 91.245216 230.590152 
L 94.008056 230.576913 
L 95.389476 230.725529 
L 100.915156 230.456008 
L 102.296576 230.339296 
L 105.059416 230.5094 
L 106.440836 230.649372 
L 111.966516 230.409382 
L 113.347936 230.550087 
L 124.399297 230.634688 
L 125.780717 230.424235 
L 127.162137 230.386812 
L 128.543557 230.184344 
L 131.306397 230.065214 
L 135.450657 230.223709 
L 136.832077 230.35209 
L 139.594917 230.438789 
L 140.976337 230.578141 
L 143.739177 230.655453 
L 146.502017 230.330694 
L 149.264857 230.387786 
L 152.027697 230.06115 
L 153.409117 229.218277 
L 154.790537 224.950264 
L 157.553378 207.382955 
L 158.934798 199.401238 
L 160.316218 193.642008 
L 161.697638 193.409545 
L 164.460478 196.889799 
L 167.223318 200.150214 
L 168.604738 202.893041 
L 169.986158 208.754099 
L 171.367578 219.682949 
L 172.748998 235.890488 
L 174.130418 257.124939 
L 176.893258 311.800455 
L 179.656098 256.51126 
L 181.037518 235.863007 
L 182.418938 221.200277 
L 183.800358 213.56824 
L 185.181778 210.66488 
L 187.944618 210.059188 
L 189.326038 207.809799 
L 190.707459 206.803762 
L 192.088879 206.616574 
L 197.614559 206.953044 
L 198.995979 207.165131 
L 201.758819 207.892161 
L 203.140239 208.105981 
L 207.284499 208.415573 
L 210.047339 208.922319 
L 212.810179 209.098483 
L 215.573019 209.654624 
L 218.335859 210.17556 
L 221.098699 210.59663 
L 230.76864 212.839446 
L 233.53148 213.572648 
L 234.9129 213.943697 
L 236.29432 214.100598 
L 241.82 215.563626 
L 243.20142 216.074238 
L 245.96426 216.675107 
L 248.7271 217.607541 
L 251.48994 218.188633 
L 254.25278 218.483421 
L 257.01562 219.21342 
L 261.159881 220.717986 
L 262.541301 221.214573 
L 265.304141 222.360596 
L 272.211241 224.722756 
L 274.974081 225.188182 
L 277.736921 225.545631 
L 281.881181 226.029451 
L 283.262601 226.084182 
L 287.406861 226.785996 
L 290.169701 227.561208 
L 292.932541 228.494967 
L 295.695382 228.977075 
L 298.458222 229.179174 
L 301.221062 229.340702 
L 305.365322 229.763724 
L 306.746742 229.990186 
L 309.509582 230.112406 
L 312.272422 230.562322 
L 315.035262 231.030657 
L 316.416682 231.330268 
L 317.798102 231.410348 
L 320.560942 231.22255 
L 321.942362 230.947269 
L 324.705202 230.750327 
L 326.086622 230.720186 
L 330.230883 230.956696 
L 332.993723 230.799264 
L 335.756563 230.989769 
L 337.137983 230.931396 
L 338.519403 231.073627 
L 341.282243 231.043037 
L 345.426503 231.326345 
L 346.807923 231.308363 
L 349.570763 231.046553 
L 352.333603 230.428122 
L 353.715023 230.337317 
L 355.096443 230.495138 
L 356.477863 230.818303 
L 357.859283 231.026984 
L 366.147804 230.990239 
L 367.529224 231.293648 
L 370.292064 231.193259 
L 375.817744 230.607843 
L 378.580584 230.905868 
L 381.343424 230.760462 
L 382.724844 230.438029 
L 385.487684 230.601578 
L 386.869104 230.752005 
L 388.250524 230.773371 
L 391.013364 231.320047 
L 392.394784 231.179426 
L 393.776204 230.865473 
L 396.539044 230.822226 
L 399.301885 230.984273 
L 400.683305 230.971999 
L 403.446145 230.561335 
L 403.446145 230.561335 
" style="fill:none;stroke:#1f77b4;stroke-linecap:square;stroke-width:1.5;"/>
   </g>
   <g id="line2d_29">
    <path clip-path="url(#pe7e76743ce)" d="M 176.893258 317.72 
L 176.893258 187.49 
" style="fill:none;stroke:#000000;stroke-dasharray:5.55,2.4;stroke-dashoffset:0;stroke-opacity:0.25;stroke-width:1.5;"/>
   </g>
   <g id="patch_8">
    <path d="M 33.64 317.72 
L 33.64 187.49 
" style="fill:none;stroke:#000000;stroke-linecap:square;stroke-linejoin:miter;stroke-width:0.8;"/>
   </g>
   <g id="patch_9">
    <path d="M 450 317.72 
L 450 187.49 
" style="fill:none;stroke:#000000;stroke-linecap:square;stroke-linejoin:miter;stroke-width:0.8;"/>
   </g>
   <g id="patch_10">
    <path d="M 33.64 317.72 
L 450 317.72 
" style="fill:none;stroke:#000000;stroke-linecap:square;stroke-linejoin:miter;stroke-width:0.8;"/>
   </g>
   <g id="patch_11">
    <path d="M 33.64 187.49 
L 450 187.49 
" style="fill:none;stroke:#000000;stroke-linecap:square;stroke-linejoin:miter;stroke-width:0.8;"/>
   </g>
   <g id="text_20">
    <!-- The distances between the time series and the shapelet -->
    <defs>
     <path d="M 48.6875 27.296875 
Q 48.6875 37.203125 44.609375 42.84375 
Q 40.53125 48.484375 33.40625 48.484375 
Q 26.265625 48.484375 22.1875 42.84375 
Q 18.109375 37.203125 18.109375 27.296875 
Q 18.109375 17.390625 22.1875 11.75 
Q 26.265625 6.109375 33.40625 6.109375 
Q 40.53125 6.109375 44.609375 11.75 
Q 48.6875 17.390625 48.6875 27.296875 
z
M 18.109375 46.390625 
Q 20.953125 51.265625 25.265625 53.625 
Q 29.59375 56 35.59375 56 
Q 45.5625 56 51.78125 48.09375 
Q 58.015625 40.1875 58.015625 27.296875 
Q 58.015625 14.40625 51.78125 6.484375 
Q 45.5625 -1.421875 35.59375 -1.421875 
Q 29.59375 -1.421875 25.265625 0.953125 
Q 20.953125 3.328125 18.109375 8.203125 
L 18.109375 0 
L 9.078125 0 
L 9.078125 75.984375 
L 18.109375 75.984375 
z
" id="DejaVuSans-98"/>
     <path d="M 4.203125 54.6875 
L 13.1875 54.6875 
L 24.421875 12.015625 
L 35.59375 54.6875 
L 46.1875 54.6875 
L 57.421875 12.015625 
L 68.609375 54.6875 
L 77.59375 54.6875 
L 63.28125 0 
L 52.6875 0 
L 40.921875 44.828125 
L 29.109375 0 
L 18.5 0 
z
" id="DejaVuSans-119"/>
     <path d="M 52 44.1875 
Q 55.375 50.25 60.0625 53.125 
Q 64.75 56 71.09375 56 
Q 79.640625 56 84.28125 50.015625 
Q 88.921875 44.046875 88.921875 33.015625 
L 88.921875 0 
L 79.890625 0 
L 79.890625 32.71875 
Q 79.890625 40.578125 77.09375 44.375 
Q 74.3125 48.1875 68.609375 48.1875 
Q 61.625 48.1875 57.5625 43.546875 
Q 53.515625 38.921875 53.515625 30.90625 
L 53.515625 0 
L 44.484375 0 
L 44.484375 32.71875 
Q 44.484375 40.625 41.703125 44.40625 
Q 38.921875 48.1875 33.109375 48.1875 
Q 26.21875 48.1875 22.15625 43.53125 
Q 18.109375 38.875 18.109375 30.90625 
L 18.109375 0 
L 9.078125 0 
L 9.078125 54.6875 
L 18.109375 54.6875 
L 18.109375 46.1875 
Q 21.1875 51.21875 25.484375 53.609375 
Q 29.78125 56 35.6875 56 
Q 41.65625 56 45.828125 52.96875 
Q 50 49.953125 52 44.1875 
z
" id="DejaVuSans-109"/>
    </defs>
    <g transform="translate(72.787813 181.49)scale(0.12 -0.12)">
     <use xlink:href="#DejaVuSans-84"/>
     <use x="61.083984" xlink:href="#DejaVuSans-104"/>
     <use x="124.462891" xlink:href="#DejaVuSans-101"/>
     <use x="185.986328" xlink:href="#DejaVuSans-32"/>
     <use x="217.773438" xlink:href="#DejaVuSans-100"/>
     <use x="281.25" xlink:href="#DejaVuSans-105"/>
     <use x="309.033203" xlink:href="#DejaVuSans-115"/>
     <use x="361.132812" xlink:href="#DejaVuSans-116"/>
     <use x="400.341797" xlink:href="#DejaVuSans-97"/>
     <use x="461.621094" xlink:href="#DejaVuSans-110"/>
     <use x="525" xlink:href="#DejaVuSans-99"/>
     <use x="579.980469" xlink:href="#DejaVuSans-101"/>
     <use x="641.503906" xlink:href="#DejaVuSans-115"/>
     <use x="693.603516" xlink:href="#DejaVuSans-32"/>
     <use x="725.390625" xlink:href="#DejaVuSans-98"/>
     <use x="788.867188" xlink:href="#DejaVuSans-101"/>
     <use x="850.390625" xlink:href="#DejaVuSans-116"/>
     <use x="889.599609" xlink:href="#DejaVuSans-119"/>
     <use x="971.386719" xlink:href="#DejaVuSans-101"/>
     <use x="1032.910156" xlink:href="#DejaVuSans-101"/>
     <use x="1094.433594" xlink:href="#DejaVuSans-110"/>
     <use x="1157.8125" xlink:href="#DejaVuSans-32"/>
     <use x="1189.599609" xlink:href="#DejaVuSans-116"/>
     <use x="1228.808594" xlink:href="#DejaVuSans-104"/>
     <use x="1292.1875" xlink:href="#DejaVuSans-101"/>
     <use x="1353.710938" xlink:href="#DejaVuSans-32"/>
     <use x="1385.498047" xlink:href="#DejaVuSans-116"/>
     <use x="1424.707031" xlink:href="#DejaVuSans-105"/>
     <use x="1452.490234" xlink:href="#DejaVuSans-109"/>
     <use x="1549.902344" xlink:href="#DejaVuSans-101"/>
     <use x="1611.425781" xlink:href="#DejaVuSans-32"/>
     <use x="1643.212891" xlink:href="#DejaVuSans-115"/>
     <use x="1695.3125" xlink:href="#DejaVuSans-101"/>
     <use x="1756.835938" xlink:href="#DejaVuSans-114"/>
     <use x="1797.949219" xlink:href="#DejaVuSans-105"/>
     <use x="1825.732422" xlink:href="#DejaVuSans-101"/>
     <use x="1887.255859" xlink:href="#DejaVuSans-115"/>
     <use x="1939.355469" xlink:href="#DejaVuSans-32"/>
     <use x="1971.142578" xlink:href="#DejaVuSans-97"/>
     <use x="2032.421875" xlink:href="#DejaVuSans-110"/>
     <use x="2095.800781" xlink:href="#DejaVuSans-100"/>
     <use x="2159.277344" xlink:href="#DejaVuSans-32"/>
     <use x="2191.064453" xlink:href="#DejaVuSans-116"/>
     <use x="2230.273438" xlink:href="#DejaVuSans-104"/>
     <use x="2293.652344" xlink:href="#DejaVuSans-101"/>
     <use x="2355.175781" xlink:href="#DejaVuSans-32"/>
     <use x="2386.962891" xlink:href="#DejaVuSans-115"/>
     <use x="2439.0625" xlink:href="#DejaVuSans-104"/>
     <use x="2502.441406" xlink:href="#DejaVuSans-97"/>
     <use x="2563.720703" xlink:href="#DejaVuSans-112"/>
     <use x="2627.197266" xlink:href="#DejaVuSans-101"/>
     <use x="2688.720703" xlink:href="#DejaVuSans-108"/>
     <use x="2716.503906" xlink:href="#DejaVuSans-101"/>
     <use x="2778.027344" xlink:href="#DejaVuSans-116"/>
    </g>
   </g>
  </g>
 </g>
 <defs>
  <clipPath id="p8e4c538fc3">
   <rect height="130.23" width="416.36" x="33.64" y="26.88"/>
  </clipPath>
  <clipPath id="pe7e76743ce">
   <rect height="130.23" width="416.36" x="33.64" y="187.49"/>
  </clipPath>
 </defs>
</svg>
