<?xml version="1.0" encoding="utf-8" standalone="no"?>
<!DOCTYPE svg PUBLIC "-//W3C//DTD SVG 1.1//EN"
  "http://www.w3.org/Graphics/SVG/1.1/DTD/svg11.dtd">
<!-- Created with matplotlib (http://matplotlib.org/) -->
<svg height="345pt" version="1.1" viewBox="0 0 460 345" width="460pt" xmlns="http://www.w3.org/2000/svg" xmlns:xlink="http://www.w3.org/1999/xlink">
 <defs>
  <style type="text/css">
*{stroke-linecap:butt;stroke-linejoin:round;}
  </style>
 </defs>
 <g id="figure_1">
  <g id="patch_1">
   <path d="M 0 345.6 
L 460.8 345.6 
L 460.8 0 
L 0 0 
z
" style="fill:#ffffff;"/>
  </g>
  <g id="axes_1">
   <g id="patch_2">
    <path d="M 33.64 157.6 
L 447.48 157.6 
L 447.48 26.88 
L 33.64 26.88 
z
" style="fill:#ffffff;"/>
   </g>
   <g id="matplotlib.axis_1">
    <g id="xtick_1">
     <g id="line2d_1">
      <defs>
       <path d="M 0 0 
L 0 3.5 
" id="m516dd7e5fd" style="stroke:#000000;stroke-width:0.8;"/>
      </defs>
      <g>
       <use style="stroke:#000000;stroke-width:0.8;" x="52.450909" xlink:href="#m516dd7e5fd" y="157.6"/>
      </g>
     </g>
    </g>
    <g id="xtick_2">
     <g id="line2d_2">
      <g>
       <use style="stroke:#000000;stroke-width:0.8;" x="121.103862" xlink:href="#m516dd7e5fd" y="157.6"/>
      </g>
     </g>
    </g>
    <g id="xtick_3">
     <g id="line2d_3">
      <g>
       <use style="stroke:#000000;stroke-width:0.8;" x="189.756815" xlink:href="#m516dd7e5fd" y="157.6"/>
      </g>
     </g>
    </g>
    <g id="xtick_4">
     <g id="line2d_4">
      <g>
       <use style="stroke:#000000;stroke-width:0.8;" x="258.409768" xlink:href="#m516dd7e5fd" y="157.6"/>
      </g>
     </g>
    </g>
    <g id="xtick_5">
     <g id="line2d_5">
      <g>
       <use style="stroke:#000000;stroke-width:0.8;" x="327.062721" xlink:href="#m516dd7e5fd" y="157.6"/>
      </g>
     </g>
    </g>
    <g id="xtick_6">
     <g id="line2d_6">
      <g>
       <use style="stroke:#000000;stroke-width:0.8;" x="395.715674" xlink:href="#m516dd7e5fd" y="157.6"/>
      </g>
     </g>
    </g>
   </g>
   <g id="matplotlib.axis_2">
    <g id="ytick_1">
     <g id="line2d_7">
      <defs>
       <path d="M 0 0 
L -3.5 0 
" id="m96f089fb2d" style="stroke:#000000;stroke-width:0.8;"/>
      </defs>
      <g>
       <use style="stroke:#000000;stroke-width:0.8;" x="33.64" xlink:href="#m96f089fb2d" y="151.658182"/>
      </g>
     </g>
     <g id="text_1">
      <!-- 0.0 -->
      <defs>
       <path d="M 31.78125 66.40625 
Q 24.171875 66.40625 20.328125 58.90625 
Q 16.5 51.421875 16.5 36.375 
Q 16.5 21.390625 20.328125 13.890625 
Q 24.171875 6.390625 31.78125 6.390625 
Q 39.453125 6.390625 43.28125 13.890625 
Q 47.125 21.390625 47.125 36.375 
Q 47.125 51.421875 43.28125 58.90625 
Q 39.453125 66.40625 31.78125 66.40625 
z
M 31.78125 74.21875 
Q 44.046875 74.21875 50.515625 64.515625 
Q 56.984375 54.828125 56.984375 36.375 
Q 56.984375 17.96875 50.515625 8.265625 
Q 44.046875 -1.421875 31.78125 -1.421875 
Q 19.53125 -1.421875 13.0625 8.265625 
Q 6.59375 17.96875 6.59375 36.375 
Q 6.59375 54.828125 13.0625 64.515625 
Q 19.53125 74.21875 31.78125 74.21875 
z
" id="DejaVuSans-30"/>
       <path d="M 10.6875 12.40625 
L 21 12.40625 
L 21 0 
L 10.6875 0 
z
" id="DejaVuSans-2e"/>
      </defs>
      <g transform="translate(10.736875 155.457401)scale(0.1 -0.1)">
       <use xlink:href="#DejaVuSans-30"/>
       <use x="63.623047" xlink:href="#DejaVuSans-2e"/>
       <use x="95.410156" xlink:href="#DejaVuSans-30"/>
      </g>
     </g>
    </g>
    <g id="ytick_2">
     <g id="line2d_8">
      <g>
       <use style="stroke:#000000;stroke-width:0.8;" x="33.64" xlink:href="#m96f089fb2d" y="127.890909"/>
      </g>
     </g>
     <g id="text_2">
      <!-- 0.2 -->
      <defs>
       <path d="M 19.1875 8.296875 
L 53.609375 8.296875 
L 53.609375 0 
L 7.328125 0 
L 7.328125 8.296875 
Q 12.9375 14.109375 22.625 23.890625 
Q 32.328125 33.6875 34.8125 36.53125 
Q 39.546875 41.84375 41.421875 45.53125 
Q 43.3125 49.21875 43.3125 52.78125 
Q 43.3125 58.59375 39.234375 62.25 
Q 35.15625 65.921875 28.609375 65.921875 
Q 23.96875 65.921875 18.8125 64.3125 
Q 13.671875 62.703125 7.8125 59.421875 
L 7.8125 69.390625 
Q 13.765625 71.78125 18.9375 73 
Q 24.125 74.21875 28.421875 74.21875 
Q 39.75 74.21875 46.484375 68.546875 
Q 53.21875 62.890625 53.21875 53.421875 
Q 53.21875 48.921875 51.53125 44.890625 
Q 49.859375 40.875 45.40625 35.40625 
Q 44.1875 33.984375 37.640625 27.21875 
Q 31.109375 20.453125 19.1875 8.296875 
z
" id="DejaVuSans-32"/>
      </defs>
      <g transform="translate(10.736875 131.690128)scale(0.1 -0.1)">
       <use xlink:href="#DejaVuSans-30"/>
       <use x="63.623047" xlink:href="#DejaVuSans-2e"/>
       <use x="95.410156" xlink:href="#DejaVuSans-32"/>
      </g>
     </g>
    </g>
    <g id="ytick_3">
     <g id="line2d_9">
      <g>
       <use style="stroke:#000000;stroke-width:0.8;" x="33.64" xlink:href="#m96f089fb2d" y="104.123636"/>
      </g>
     </g>
     <g id="text_3">
      <!-- 0.4 -->
      <defs>
       <path d="M 37.796875 64.3125 
L 12.890625 25.390625 
L 37.796875 25.390625 
z
M 35.203125 72.90625 
L 47.609375 72.90625 
L 47.609375 25.390625 
L 58.015625 25.390625 
L 58.015625 17.1875 
L 47.609375 17.1875 
L 47.609375 0 
L 37.796875 0 
L 37.796875 17.1875 
L 4.890625 17.1875 
L 4.890625 26.703125 
z
" id="DejaVuSans-34"/>
      </defs>
      <g transform="translate(10.736875 107.922855)scale(0.1 -0.1)">
       <use xlink:href="#DejaVuSans-30"/>
       <use x="63.623047" xlink:href="#DejaVuSans-2e"/>
       <use x="95.410156" xlink:href="#DejaVuSans-34"/>
      </g>
     </g>
    </g>
    <g id="ytick_4">
     <g id="line2d_10">
      <g>
       <use style="stroke:#000000;stroke-width:0.8;" x="33.64" xlink:href="#m96f089fb2d" y="80.356364"/>
      </g>
     </g>
     <g id="text_4">
      <!-- 0.6 -->
      <defs>
       <path d="M 33.015625 40.375 
Q 26.375 40.375 22.484375 35.828125 
Q 18.609375 31.296875 18.609375 23.390625 
Q 18.609375 15.53125 22.484375 10.953125 
Q 26.375 6.390625 33.015625 6.390625 
Q 39.65625 6.390625 43.53125 10.953125 
Q 47.40625 15.53125 47.40625 23.390625 
Q 47.40625 31.296875 43.53125 35.828125 
Q 39.65625 40.375 33.015625 40.375 
z
M 52.59375 71.296875 
L 52.59375 62.3125 
Q 48.875 64.0625 45.09375 64.984375 
Q 41.3125 65.921875 37.59375 65.921875 
Q 27.828125 65.921875 22.671875 59.328125 
Q 17.53125 52.734375 16.796875 39.40625 
Q 19.671875 43.65625 24.015625 45.921875 
Q 28.375 48.1875 33.59375 48.1875 
Q 44.578125 48.1875 50.953125 41.515625 
Q 57.328125 34.859375 57.328125 23.390625 
Q 57.328125 12.15625 50.6875 5.359375 
Q 44.046875 -1.421875 33.015625 -1.421875 
Q 20.359375 -1.421875 13.671875 8.265625 
Q 6.984375 17.96875 6.984375 36.375 
Q 6.984375 53.65625 15.1875 63.9375 
Q 23.390625 74.21875 37.203125 74.21875 
Q 40.921875 74.21875 44.703125 73.484375 
Q 48.484375 72.75 52.59375 71.296875 
z
" id="DejaVuSans-36"/>
      </defs>
      <g transform="translate(10.736875 84.155582)scale(0.1 -0.1)">
       <use xlink:href="#DejaVuSans-30"/>
       <use x="63.623047" xlink:href="#DejaVuSans-2e"/>
       <use x="95.410156" xlink:href="#DejaVuSans-36"/>
      </g>
     </g>
    </g>
    <g id="ytick_5">
     <g id="line2d_11">
      <g>
       <use style="stroke:#000000;stroke-width:0.8;" x="33.64" xlink:href="#m96f089fb2d" y="56.589091"/>
      </g>
     </g>
     <g id="text_5">
      <!-- 0.8 -->
      <defs>
       <path d="M 31.78125 34.625 
Q 24.75 34.625 20.71875 30.859375 
Q 16.703125 27.09375 16.703125 20.515625 
Q 16.703125 13.921875 20.71875 10.15625 
Q 24.75 6.390625 31.78125 6.390625 
Q 38.8125 6.390625 42.859375 10.171875 
Q 46.921875 13.96875 46.921875 20.515625 
Q 46.921875 27.09375 42.890625 30.859375 
Q 38.875 34.625 31.78125 34.625 
z
M 21.921875 38.8125 
Q 15.578125 40.375 12.03125 44.71875 
Q 8.5 49.078125 8.5 55.328125 
Q 8.5 64.0625 14.71875 69.140625 
Q 20.953125 74.21875 31.78125 74.21875 
Q 42.671875 74.21875 48.875 69.140625 
Q 55.078125 64.0625 55.078125 55.328125 
Q 55.078125 49.078125 51.53125 44.71875 
Q 48 40.375 41.703125 38.8125 
Q 48.828125 37.15625 52.796875 32.3125 
Q 56.78125 27.484375 56.78125 20.515625 
Q 56.78125 9.90625 50.3125 4.234375 
Q 43.84375 -1.421875 31.78125 -1.421875 
Q 19.734375 -1.421875 13.25 4.234375 
Q 6.78125 9.90625 6.78125 20.515625 
Q 6.78125 27.484375 10.78125 32.3125 
Q 14.796875 37.15625 21.921875 38.8125 
z
M 18.3125 54.390625 
Q 18.3125 48.734375 21.84375 45.5625 
Q 25.390625 42.390625 31.78125 42.390625 
Q 38.140625 42.390625 41.71875 45.5625 
Q 45.3125 48.734375 45.3125 54.390625 
Q 45.3125 60.0625 41.71875 63.234375 
Q 38.140625 66.40625 31.78125 66.40625 
Q 25.390625 66.40625 21.84375 63.234375 
Q 18.3125 60.0625 18.3125 54.390625 
z
" id="DejaVuSans-38"/>
      </defs>
      <g transform="translate(10.736875 60.38831)scale(0.1 -0.1)">
       <use xlink:href="#DejaVuSans-30"/>
       <use x="63.623047" xlink:href="#DejaVuSans-2e"/>
       <use x="95.410156" xlink:href="#DejaVuSans-38"/>
      </g>
     </g>
    </g>
    <g id="ytick_6">
     <g id="line2d_12">
      <g>
       <use style="stroke:#000000;stroke-width:0.8;" x="33.64" xlink:href="#m96f089fb2d" y="32.821818"/>
      </g>
     </g>
     <g id="text_6">
      <!-- 1.0 -->
      <defs>
       <path d="M 12.40625 8.296875 
L 28.515625 8.296875 
L 28.515625 63.921875 
L 10.984375 60.40625 
L 10.984375 69.390625 
L 28.421875 72.90625 
L 38.28125 72.90625 
L 38.28125 8.296875 
L 54.390625 8.296875 
L 54.390625 0 
L 12.40625 0 
z
" id="DejaVuSans-31"/>
      </defs>
      <g transform="translate(10.736875 36.621037)scale(0.1 -0.1)">
       <use xlink:href="#DejaVuSans-31"/>
       <use x="63.623047" xlink:href="#DejaVuSans-2e"/>
       <use x="95.410156" xlink:href="#DejaVuSans-30"/>
      </g>
     </g>
    </g>
   </g>
   <g id="line2d_13">
    <path clip-path="url(#pd7b004abf9)" d="M 52.450909 99.14547 
L 53.823968 99.060375 
L 55.197027 98.131476 
L 56.570086 97.808634 
L 59.316204 98.361211 
L 60.689263 99.270839 
L 62.062322 98.840384 
L 63.435382 99.365462 
L 64.808441 98.4292 
L 66.1815 99.951816 
L 67.554559 99.354419 
L 68.927618 99.442978 
L 70.300677 98.552187 
L 71.673736 99.072068 
L 73.046795 97.696257 
L 74.419854 99.017287 
L 75.792913 98.15053 
L 77.165972 99.833159 
L 78.539031 99.633089 
L 79.91209 97.824224 
L 81.285149 99.401188 
L 82.658208 99.286646 
L 84.031267 100.789991 
L 85.404326 99.150017 
L 88.150445 97.528882 
L 89.523504 99.545179 
L 90.896563 99.459434 
L 92.269622 98.797945 
L 95.01574 98.874812 
L 96.388799 98.362726 
L 97.761858 98.558899 
L 99.134917 99.537167 
L 100.507976 98.117835 
L 101.881035 99.086575 
L 103.254094 98.584233 
L 104.627153 99.835758 
L 106.000212 99.234463 
L 108.74633 99.1249 
L 110.11939 99.66167 
L 111.492449 99.215842 
L 114.238567 100.049469 
L 115.611626 99.224719 
L 116.984685 99.42479 
L 118.357744 98.411228 
L 119.730803 98.622991 
L 121.103862 100.187397 
L 122.476921 99.068387 
L 123.84998 99.184878 
L 125.223039 100.002916 
L 126.596098 99.169505 
L 127.969157 100.409553 
L 129.342216 99.100649 
L 130.715275 99.801979 
L 132.088334 98.297119 
L 133.461393 98.968135 
L 136.207512 99.054096 
L 137.580571 99.282965 
L 140.326689 99.036557 
L 141.699748 99.997503 
L 143.072807 98.53703 
L 145.818925 98.618661 
L 147.191984 99.316743 
L 148.565043 98.389792 
L 149.938102 98.558466 
L 151.311161 98.998232 
L 152.68422 99.652793 
L 154.057279 99.877547 
L 158.176457 98.689682 
L 159.549516 98.218953 
L 160.922575 97.957172 
L 162.295634 98.576222 
L 163.668693 99.604074 
L 165.041752 99.016204 
L 166.414811 99.182063 
L 167.78787 98.99152 
L 170.533988 97.512642 
L 171.907047 98.48658 
L 173.280106 98.95471 
L 174.653165 100.100137 
L 176.026224 99.300287 
L 177.399283 98.006756 
L 178.772342 98.437428 
L 180.145401 98.386761 
L 181.518461 98.798162 
L 184.264579 97.828988 
L 185.637638 98.556301 
L 188.383756 97.735232 
L 191.129874 98.523389 
L 192.502933 97.847609 
L 193.875992 99.129447 
L 195.249051 98.260093 
L 196.62211 97.628051 
L 197.995169 99.69285 
L 199.368228 97.86623 
L 200.741287 97.405462 
L 202.114346 97.076341 
L 203.487405 99.426306 
L 204.860464 97.071144 
L 206.233524 90.084476 
L 207.606583 65.023673 
L 210.352701 39.098928 
L 211.72576 32.821818 
L 213.098819 34.094995 
L 214.471878 46.887394 
L 217.217996 91.779231 
L 218.591055 135.988143 
L 219.964114 148.089821 
L 221.337173 150.887347 
L 222.710232 150.556061 
L 224.083291 148.683105 
L 225.45635 150.231271 
L 226.829409 149.848018 
L 229.575528 151.658182 
L 230.948587 149.993091 
L 232.321646 150.207453 
L 235.067764 148.899631 
L 236.440823 149.4128 
L 240.56 149.951951 
L 241.933059 148.88664 
L 244.679177 148.949432 
L 246.052236 149.107497 
L 247.425295 148.232729 
L 248.798354 147.51386 
L 250.171413 147.992384 
L 251.544472 149.300206 
L 252.917532 147.505199 
L 254.290591 147.139269 
L 255.66365 147.799676 
L 257.036709 146.316467 
L 258.409768 145.593268 
L 259.782827 146.439888 
L 261.155886 146.281823 
L 262.528945 145.643069 
L 263.902004 146.000338 
L 266.648122 145.140727 
L 268.021181 143.891368 
L 269.39424 144.999985 
L 270.767299 145.872588 
L 272.140358 144.339578 
L 273.513417 143.352217 
L 274.886476 143.120533 
L 276.259536 143.122698 
L 279.005654 141.362336 
L 280.378713 142.375681 
L 283.124831 141.054868 
L 285.870949 142.702636 
L 287.244008 139.911607 
L 288.617067 140.424775 
L 289.990126 139.946251 
L 291.363185 139.071483 
L 292.736244 138.686066 
L 294.109303 137.477846 
L 295.482362 137.655398 
L 296.855421 137.298129 
L 298.22848 135.985977 
L 299.601539 135.931846 
L 300.974599 135.258448 
L 302.347658 134.416159 
L 303.720717 135.44466 
L 305.093776 133.887184 
L 307.839894 132.086331 
L 309.212953 131.963777 
L 310.586012 131.259848 
L 311.959071 131.09702 
L 313.33213 128.698987 
L 316.078248 127.975571 
L 317.451307 129.22991 
L 318.824366 127.466084 
L 320.197425 127.032381 
L 322.943543 126.898351 
L 324.316603 125.682336 
L 325.689662 124.809734 
L 327.062721 124.738063 
L 328.43578 122.635156 
L 329.808839 123.819341 
L 331.181898 122.159447 
L 333.928016 121.770781 
L 336.674134 121.641082 
L 338.047193 119.838064 
L 339.420252 119.47798 
L 340.793311 118.02227 
L 342.16637 117.644431 
L 343.539429 116.645377 
L 346.285547 116.956742 
L 349.031666 115.261555 
L 350.404725 115.819977 
L 351.777784 114.781948 
L 353.150843 114.769606 
L 354.523902 113.65131 
L 355.896961 114.902337 
L 357.27002 112.869259 
L 358.643079 111.683775 
L 360.016138 110.669066 
L 361.389197 112.195017 
L 362.762256 110.737813 
L 364.135315 110.100207 
L 365.508374 109.138395 
L 366.881433 109.654162 
L 368.254492 108.223137 
L 369.627551 109.163729 
L 371.00061 107.853526 
L 372.37367 108.71855 
L 373.746729 106.610229 
L 375.119788 105.981869 
L 376.492847 106.639677 
L 377.865906 104.431537 
L 379.238965 106.456495 
L 380.612024 107.146566 
L 381.985083 105.798471 
L 383.358142 105.473247 
L 384.731201 104.153734 
L 386.10426 104.861993 
L 387.477319 105.022006 
L 388.850378 103.930495 
L 390.223437 103.606571 
L 391.596496 103.037322 
L 392.969555 103.400654 
L 394.342614 102.774458 
L 395.715674 103.73562 
L 397.088733 101.476381 
L 398.461792 102.686765 
L 399.834851 103.007225 
L 401.20791 101.511891 
L 403.954028 101.85855 
L 406.700146 102.574604 
L 409.446264 101.673636 
L 410.819323 103.776761 
L 412.192382 101.820442 
L 413.565441 102.537795 
L 414.9385 102.526752 
L 416.311559 101.935201 
L 417.684618 101.536359 
L 419.057678 101.979372 
L 420.430737 100.431639 
L 421.803796 101.202907 
L 423.176855 100.361701 
L 424.549914 101.009116 
L 425.922973 101.325895 
L 428.669091 100.230486 
L 428.669091 100.230486 
" style="fill:none;stroke:#1f77b4;stroke-linecap:square;stroke-width:1.5;"/>
   </g>
   <g id="line2d_14">
    <path clip-path="url(#pd7b004abf9)" d="M 206.233524 63.259055 
L 207.606583 63.903516 
L 208.979642 63.334385 
L 210.352701 52.324565 
L 211.72576 37.298168 
L 213.098819 32.821818 
L 214.471878 34.729025 
L 215.844937 44.799266 
L 217.217996 80.089715 
L 218.591055 113.615235 
L 219.964114 124.289223 
L 221.337173 127.739573 
L 222.710232 130.115424 
L 224.083291 132.150867 
L 225.45635 133.850266 
L 226.829409 136.950048 
L 228.202468 140.82086 
L 229.575528 144.409423 
L 230.948587 148.632262 
L 232.321646 151.658182 
" style="fill:none;stroke:#ff7f0e;stroke-linecap:square;stroke-width:2;"/>
   </g>
   <g id="line2d_15">
    <path clip-path="url(#pd7b004abf9)" d="M 206.233524 157.6 
L 206.233524 26.88 
" style="fill:none;opacity:0.25;stroke:#000000;stroke-dasharray:5.55,2.4;stroke-dashoffset:0;stroke-width:1.5;"/>
   </g>
   <g id="patch_3">
    <path d="M 33.64 157.6 
L 33.64 26.88 
" style="fill:none;stroke:#000000;stroke-linecap:square;stroke-linejoin:miter;stroke-width:0.8;"/>
   </g>
   <g id="patch_4">
    <path d="M 447.48 157.6 
L 447.48 26.88 
" style="fill:none;stroke:#000000;stroke-linecap:square;stroke-linejoin:miter;stroke-width:0.8;"/>
   </g>
   <g id="patch_5">
    <path d="M 33.64 157.6 
L 447.48 157.6 
" style="fill:none;stroke:#000000;stroke-linecap:square;stroke-linejoin:miter;stroke-width:0.8;"/>
   </g>
   <g id="patch_6">
    <path d="M 33.64 26.88 
L 447.48 26.88 
" style="fill:none;stroke:#000000;stroke-linecap:square;stroke-linejoin:miter;stroke-width:0.8;"/>
   </g>
   <g id="text_7">
    <!-- The aligned extracted shapelet -->
    <defs>
     <path d="M -0.296875 72.90625 
L 61.375 72.90625 
L 61.375 64.59375 
L 35.5 64.59375 
L 35.5 0 
L 25.59375 0 
L 25.59375 64.59375 
L -0.296875 64.59375 
z
" id="DejaVuSans-54"/>
     <path d="M 54.890625 33.015625 
L 54.890625 0 
L 45.90625 0 
L 45.90625 32.71875 
Q 45.90625 40.484375 42.875 44.328125 
Q 39.84375 48.1875 33.796875 48.1875 
Q 26.515625 48.1875 22.3125 43.546875 
Q 18.109375 38.921875 18.109375 30.90625 
L 18.109375 0 
L 9.078125 0 
L 9.078125 75.984375 
L 18.109375 75.984375 
L 18.109375 46.1875 
Q 21.34375 51.125 25.703125 53.5625 
Q 30.078125 56 35.796875 56 
Q 45.21875 56 50.046875 50.171875 
Q 54.890625 44.34375 54.890625 33.015625 
z
" id="DejaVuSans-68"/>
     <path d="M 56.203125 29.59375 
L 56.203125 25.203125 
L 14.890625 25.203125 
Q 15.484375 15.921875 20.484375 11.0625 
Q 25.484375 6.203125 34.421875 6.203125 
Q 39.59375 6.203125 44.453125 7.46875 
Q 49.3125 8.734375 54.109375 11.28125 
L 54.109375 2.78125 
Q 49.265625 0.734375 44.1875 -0.34375 
Q 39.109375 -1.421875 33.890625 -1.421875 
Q 20.796875 -1.421875 13.15625 6.1875 
Q 5.515625 13.8125 5.515625 26.8125 
Q 5.515625 40.234375 12.765625 48.109375 
Q 20.015625 56 32.328125 56 
Q 43.359375 56 49.78125 48.890625 
Q 56.203125 41.796875 56.203125 29.59375 
z
M 47.21875 32.234375 
Q 47.125 39.59375 43.09375 43.984375 
Q 39.0625 48.390625 32.421875 48.390625 
Q 24.90625 48.390625 20.390625 44.140625 
Q 15.875 39.890625 15.1875 32.171875 
z
" id="DejaVuSans-65"/>
     <path id="DejaVuSans-20"/>
     <path d="M 34.28125 27.484375 
Q 23.390625 27.484375 19.1875 25 
Q 14.984375 22.515625 14.984375 16.5 
Q 14.984375 11.71875 18.140625 8.90625 
Q 21.296875 6.109375 26.703125 6.109375 
Q 34.1875 6.109375 38.703125 11.40625 
Q 43.21875 16.703125 43.21875 25.484375 
L 43.21875 27.484375 
z
M 52.203125 31.203125 
L 52.203125 0 
L 43.21875 0 
L 43.21875 8.296875 
Q 40.140625 3.328125 35.546875 0.953125 
Q 30.953125 -1.421875 24.3125 -1.421875 
Q 15.921875 -1.421875 10.953125 3.296875 
Q 6 8.015625 6 15.921875 
Q 6 25.140625 12.171875 29.828125 
Q 18.359375 34.515625 30.609375 34.515625 
L 43.21875 34.515625 
L 43.21875 35.40625 
Q 43.21875 41.609375 39.140625 45 
Q 35.0625 48.390625 27.6875 48.390625 
Q 23 48.390625 18.546875 47.265625 
Q 14.109375 46.140625 10.015625 43.890625 
L 10.015625 52.203125 
Q 14.9375 54.109375 19.578125 55.046875 
Q 24.21875 56 28.609375 56 
Q 40.484375 56 46.34375 49.84375 
Q 52.203125 43.703125 52.203125 31.203125 
z
" id="DejaVuSans-61"/>
     <path d="M 9.421875 75.984375 
L 18.40625 75.984375 
L 18.40625 0 
L 9.421875 0 
z
" id="DejaVuSans-6c"/>
     <path d="M 9.421875 54.6875 
L 18.40625 54.6875 
L 18.40625 0 
L 9.421875 0 
z
M 9.421875 75.984375 
L 18.40625 75.984375 
L 18.40625 64.59375 
L 9.421875 64.59375 
z
" id="DejaVuSans-69"/>
     <path d="M 45.40625 27.984375 
Q 45.40625 37.75 41.375 43.109375 
Q 37.359375 48.484375 30.078125 48.484375 
Q 22.859375 48.484375 18.828125 43.109375 
Q 14.796875 37.75 14.796875 27.984375 
Q 14.796875 18.265625 18.828125 12.890625 
Q 22.859375 7.515625 30.078125 7.515625 
Q 37.359375 7.515625 41.375 12.890625 
Q 45.40625 18.265625 45.40625 27.984375 
z
M 54.390625 6.78125 
Q 54.390625 -7.171875 48.1875 -13.984375 
Q 42 -20.796875 29.203125 -20.796875 
Q 24.46875 -20.796875 20.265625 -20.09375 
Q 16.0625 -19.390625 12.109375 -17.921875 
L 12.109375 -9.1875 
Q 16.0625 -11.328125 19.921875 -12.34375 
Q 23.78125 -13.375 27.78125 -13.375 
Q 36.625 -13.375 41.015625 -8.765625 
Q 45.40625 -4.15625 45.40625 5.171875 
L 45.40625 9.625 
Q 42.625 4.78125 38.28125 2.390625 
Q 33.9375 0 27.875 0 
Q 17.828125 0 11.671875 7.65625 
Q 5.515625 15.328125 5.515625 27.984375 
Q 5.515625 40.671875 11.671875 48.328125 
Q 17.828125 56 27.875 56 
Q 33.9375 56 38.28125 53.609375 
Q 42.625 51.21875 45.40625 46.390625 
L 45.40625 54.6875 
L 54.390625 54.6875 
z
" id="DejaVuSans-67"/>
     <path d="M 54.890625 33.015625 
L 54.890625 0 
L 45.90625 0 
L 45.90625 32.71875 
Q 45.90625 40.484375 42.875 44.328125 
Q 39.84375 48.1875 33.796875 48.1875 
Q 26.515625 48.1875 22.3125 43.546875 
Q 18.109375 38.921875 18.109375 30.90625 
L 18.109375 0 
L 9.078125 0 
L 9.078125 54.6875 
L 18.109375 54.6875 
L 18.109375 46.1875 
Q 21.34375 51.125 25.703125 53.5625 
Q 30.078125 56 35.796875 56 
Q 45.21875 56 50.046875 50.171875 
Q 54.890625 44.34375 54.890625 33.015625 
z
" id="DejaVuSans-6e"/>
     <path d="M 45.40625 46.390625 
L 45.40625 75.984375 
L 54.390625 75.984375 
L 54.390625 0 
L 45.40625 0 
L 45.40625 8.203125 
Q 42.578125 3.328125 38.25 0.953125 
Q 33.9375 -1.421875 27.875 -1.421875 
Q 17.96875 -1.421875 11.734375 6.484375 
Q 5.515625 14.40625 5.515625 27.296875 
Q 5.515625 40.1875 11.734375 48.09375 
Q 17.96875 56 27.875 56 
Q 33.9375 56 38.25 53.625 
Q 42.578125 51.265625 45.40625 46.390625 
z
M 14.796875 27.296875 
Q 14.796875 17.390625 18.875 11.75 
Q 22.953125 6.109375 30.078125 6.109375 
Q 37.203125 6.109375 41.296875 11.75 
Q 45.40625 17.390625 45.40625 27.296875 
Q 45.40625 37.203125 41.296875 42.84375 
Q 37.203125 48.484375 30.078125 48.484375 
Q 22.953125 48.484375 18.875 42.84375 
Q 14.796875 37.203125 14.796875 27.296875 
z
" id="DejaVuSans-64"/>
     <path d="M 54.890625 54.6875 
L 35.109375 28.078125 
L 55.90625 0 
L 45.3125 0 
L 29.390625 21.484375 
L 13.484375 0 
L 2.875 0 
L 24.125 28.609375 
L 4.6875 54.6875 
L 15.28125 54.6875 
L 29.78125 35.203125 
L 44.28125 54.6875 
z
" id="DejaVuSans-78"/>
     <path d="M 18.3125 70.21875 
L 18.3125 54.6875 
L 36.8125 54.6875 
L 36.8125 47.703125 
L 18.3125 47.703125 
L 18.3125 18.015625 
Q 18.3125 11.328125 20.140625 9.421875 
Q 21.96875 7.515625 27.59375 7.515625 
L 36.8125 7.515625 
L 36.8125 0 
L 27.59375 0 
Q 17.1875 0 13.234375 3.875 
Q 9.28125 7.765625 9.28125 18.015625 
L 9.28125 47.703125 
L 2.6875 47.703125 
L 2.6875 54.6875 
L 9.28125 54.6875 
L 9.28125 70.21875 
z
" id="DejaVuSans-74"/>
     <path d="M 41.109375 46.296875 
Q 39.59375 47.171875 37.8125 47.578125 
Q 36.03125 48 33.890625 48 
Q 26.265625 48 22.1875 43.046875 
Q 18.109375 38.09375 18.109375 28.8125 
L 18.109375 0 
L 9.078125 0 
L 9.078125 54.6875 
L 18.109375 54.6875 
L 18.109375 46.1875 
Q 20.953125 51.171875 25.484375 53.578125 
Q 30.03125 56 36.53125 56 
Q 37.453125 56 38.578125 55.875 
Q 39.703125 55.765625 41.0625 55.515625 
z
" id="DejaVuSans-72"/>
     <path d="M 48.78125 52.59375 
L 48.78125 44.1875 
Q 44.96875 46.296875 41.140625 47.34375 
Q 37.3125 48.390625 33.40625 48.390625 
Q 24.65625 48.390625 19.8125 42.84375 
Q 14.984375 37.3125 14.984375 27.296875 
Q 14.984375 17.28125 19.8125 11.734375 
Q 24.65625 6.203125 33.40625 6.203125 
Q 37.3125 6.203125 41.140625 7.25 
Q 44.96875 8.296875 48.78125 10.40625 
L 48.78125 2.09375 
Q 45.015625 0.34375 40.984375 -0.53125 
Q 36.96875 -1.421875 32.421875 -1.421875 
Q 20.0625 -1.421875 12.78125 6.34375 
Q 5.515625 14.109375 5.515625 27.296875 
Q 5.515625 40.671875 12.859375 48.328125 
Q 20.21875 56 33.015625 56 
Q 37.15625 56 41.109375 55.140625 
Q 45.0625 54.296875 48.78125 52.59375 
z
" id="DejaVuSans-63"/>
     <path d="M 44.28125 53.078125 
L 44.28125 44.578125 
Q 40.484375 46.53125 36.375 47.5 
Q 32.28125 48.484375 27.875 48.484375 
Q 21.1875 48.484375 17.84375 46.4375 
Q 14.5 44.390625 14.5 40.28125 
Q 14.5 37.15625 16.890625 35.375 
Q 19.28125 33.59375 26.515625 31.984375 
L 29.59375 31.296875 
Q 39.15625 29.25 43.1875 25.515625 
Q 47.21875 21.78125 47.21875 15.09375 
Q 47.21875 7.46875 41.1875 3.015625 
Q 35.15625 -1.421875 24.609375 -1.421875 
Q 20.21875 -1.421875 15.453125 -0.5625 
Q 10.6875 0.296875 5.421875 2 
L 5.421875 11.28125 
Q 10.40625 8.6875 15.234375 7.390625 
Q 20.0625 6.109375 24.8125 6.109375 
Q 31.15625 6.109375 34.5625 8.28125 
Q 37.984375 10.453125 37.984375 14.40625 
Q 37.984375 18.0625 35.515625 20.015625 
Q 33.0625 21.96875 24.703125 23.78125 
L 21.578125 24.515625 
Q 13.234375 26.265625 9.515625 29.90625 
Q 5.8125 33.546875 5.8125 39.890625 
Q 5.8125 47.609375 11.28125 51.796875 
Q 16.75 56 26.8125 56 
Q 31.78125 56 36.171875 55.265625 
Q 40.578125 54.546875 44.28125 53.078125 
z
" id="DejaVuSans-73"/>
     <path d="M 18.109375 8.203125 
L 18.109375 -20.796875 
L 9.078125 -20.796875 
L 9.078125 54.6875 
L 18.109375 54.6875 
L 18.109375 46.390625 
Q 20.953125 51.265625 25.265625 53.625 
Q 29.59375 56 35.59375 56 
Q 45.5625 56 51.78125 48.09375 
Q 58.015625 40.1875 58.015625 27.296875 
Q 58.015625 14.40625 51.78125 6.484375 
Q 45.5625 -1.421875 35.59375 -1.421875 
Q 29.59375 -1.421875 25.265625 0.953125 
Q 20.953125 3.328125 18.109375 8.203125 
z
M 48.6875 27.296875 
Q 48.6875 37.203125 44.609375 42.84375 
Q 40.53125 48.484375 33.40625 48.484375 
Q 26.265625 48.484375 22.1875 42.84375 
Q 18.109375 37.203125 18.109375 27.296875 
Q 18.109375 17.390625 22.1875 11.75 
Q 26.265625 6.109375 33.40625 6.109375 
Q 40.53125 6.109375 44.609375 11.75 
Q 48.6875 17.390625 48.6875 27.296875 
z
" id="DejaVuSans-70"/>
    </defs>
    <g transform="translate(146.850313 20.88)scale(0.12 -0.12)">
     <use xlink:href="#DejaVuSans-54"/>
     <use x="61.083984" xlink:href="#DejaVuSans-68"/>
     <use x="124.462891" xlink:href="#DejaVuSans-65"/>
     <use x="185.986328" xlink:href="#DejaVuSans-20"/>
     <use x="217.773438" xlink:href="#DejaVuSans-61"/>
     <use x="279.052734" xlink:href="#DejaVuSans-6c"/>
     <use x="306.835938" xlink:href="#DejaVuSans-69"/>
     <use x="334.619141" xlink:href="#DejaVuSans-67"/>
     <use x="398.095703" xlink:href="#DejaVuSans-6e"/>
     <use x="461.474609" xlink:href="#DejaVuSans-65"/>
     <use x="522.998047" xlink:href="#DejaVuSans-64"/>
     <use x="586.474609" xlink:href="#DejaVuSans-20"/>
     <use x="618.261719" xlink:href="#DejaVuSans-65"/>
     <use x="679.769531" xlink:href="#DejaVuSans-78"/>
     <use x="738.949219" xlink:href="#DejaVuSans-74"/>
     <use x="778.158203" xlink:href="#DejaVuSans-72"/>
     <use x="819.271484" xlink:href="#DejaVuSans-61"/>
     <use x="880.550781" xlink:href="#DejaVuSans-63"/>
     <use x="935.53125" xlink:href="#DejaVuSans-74"/>
     <use x="974.740234" xlink:href="#DejaVuSans-65"/>
     <use x="1036.263672" xlink:href="#DejaVuSans-64"/>
     <use x="1099.740234" xlink:href="#DejaVuSans-20"/>
     <use x="1131.527344" xlink:href="#DejaVuSans-73"/>
     <use x="1183.626953" xlink:href="#DejaVuSans-68"/>
     <use x="1247.005859" xlink:href="#DejaVuSans-61"/>
     <use x="1308.285156" xlink:href="#DejaVuSans-70"/>
     <use x="1371.761719" xlink:href="#DejaVuSans-65"/>
     <use x="1433.285156" xlink:href="#DejaVuSans-6c"/>
     <use x="1461.068359" xlink:href="#DejaVuSans-65"/>
     <use x="1522.591797" xlink:href="#DejaVuSans-74"/>
    </g>
   </g>
  </g>
  <g id="axes_2">
   <g id="patch_7">
    <path d="M 33.64 317.72 
L 447.48 317.72 
L 447.48 187 
L 33.64 187 
z
" style="fill:#ffffff;"/>
   </g>
   <g id="matplotlib.axis_3">
    <g id="xtick_7">
     <g id="line2d_16">
      <g>
       <use style="stroke:#000000;stroke-width:0.8;" x="52.450909" xlink:href="#m516dd7e5fd" y="317.72"/>
      </g>
     </g>
     <g id="text_8">
      <!-- 0 -->
      <g transform="translate(49.269659 332.318438)scale(0.1 -0.1)">
       <use xlink:href="#DejaVuSans-30"/>
      </g>
     </g>
    </g>
    <g id="xtick_8">
     <g id="line2d_17">
      <g>
       <use style="stroke:#000000;stroke-width:0.8;" x="121.103862" xlink:href="#m516dd7e5fd" y="317.72"/>
      </g>
     </g>
     <g id="text_9">
      <!-- 50 -->
      <defs>
       <path d="M 10.796875 72.90625 
L 49.515625 72.90625 
L 49.515625 64.59375 
L 19.828125 64.59375 
L 19.828125 46.734375 
Q 21.96875 47.46875 24.109375 47.828125 
Q 26.265625 48.1875 28.421875 48.1875 
Q 40.625 48.1875 47.75 41.5 
Q 54.890625 34.8125 54.890625 23.390625 
Q 54.890625 11.625 47.5625 5.09375 
Q 40.234375 -1.421875 26.90625 -1.421875 
Q 22.3125 -1.421875 17.546875 -0.640625 
Q 12.796875 0.140625 7.71875 1.703125 
L 7.71875 11.625 
Q 12.109375 9.234375 16.796875 8.0625 
Q 21.484375 6.890625 26.703125 6.890625 
Q 35.15625 6.890625 40.078125 11.328125 
Q 45.015625 15.765625 45.015625 23.390625 
Q 45.015625 31 40.078125 35.4375 
Q 35.15625 39.890625 26.703125 39.890625 
Q 22.75 39.890625 18.8125 39.015625 
Q 14.890625 38.140625 10.796875 36.28125 
z
" id="DejaVuSans-35"/>
      </defs>
      <g transform="translate(114.741362 332.318438)scale(0.1 -0.1)">
       <use xlink:href="#DejaVuSans-35"/>
       <use x="63.623047" xlink:href="#DejaVuSans-30"/>
      </g>
     </g>
    </g>
    <g id="xtick_9">
     <g id="line2d_18">
      <g>
       <use style="stroke:#000000;stroke-width:0.8;" x="189.756815" xlink:href="#m516dd7e5fd" y="317.72"/>
      </g>
     </g>
     <g id="text_10">
      <!-- 100 -->
      <g transform="translate(180.213065 332.318438)scale(0.1 -0.1)">
       <use xlink:href="#DejaVuSans-31"/>
       <use x="63.623047" xlink:href="#DejaVuSans-30"/>
       <use x="127.246094" xlink:href="#DejaVuSans-30"/>
      </g>
     </g>
    </g>
    <g id="xtick_10">
     <g id="line2d_19">
      <g>
       <use style="stroke:#000000;stroke-width:0.8;" x="258.409768" xlink:href="#m516dd7e5fd" y="317.72"/>
      </g>
     </g>
     <g id="text_11">
      <!-- 150 -->
      <g transform="translate(248.866018 332.318438)scale(0.1 -0.1)">
       <use xlink:href="#DejaVuSans-31"/>
       <use x="63.623047" xlink:href="#DejaVuSans-35"/>
       <use x="127.246094" xlink:href="#DejaVuSans-30"/>
      </g>
     </g>
    </g>
    <g id="xtick_11">
     <g id="line2d_20">
      <g>
       <use style="stroke:#000000;stroke-width:0.8;" x="327.062721" xlink:href="#m516dd7e5fd" y="317.72"/>
      </g>
     </g>
     <g id="text_12">
      <!-- 200 -->
      <g transform="translate(317.518971 332.318438)scale(0.1 -0.1)">
       <use xlink:href="#DejaVuSans-32"/>
       <use x="63.623047" xlink:href="#DejaVuSans-30"/>
       <use x="127.246094" xlink:href="#DejaVuSans-30"/>
      </g>
     </g>
    </g>
    <g id="xtick_12">
     <g id="line2d_21">
      <g>
       <use style="stroke:#000000;stroke-width:0.8;" x="395.715674" xlink:href="#m516dd7e5fd" y="317.72"/>
      </g>
     </g>
     <g id="text_13">
      <!-- 250 -->
      <g transform="translate(386.171924 332.318438)scale(0.1 -0.1)">
       <use xlink:href="#DejaVuSans-32"/>
       <use x="63.623047" xlink:href="#DejaVuSans-35"/>
       <use x="127.246094" xlink:href="#DejaVuSans-30"/>
      </g>
     </g>
    </g>
   </g>
   <g id="matplotlib.axis_4">
    <g id="ytick_7">
     <g id="line2d_22">
      <g>
       <use style="stroke:#000000;stroke-width:0.8;" x="33.64" xlink:href="#m96f089fb2d" y="314.793884"/>
      </g>
     </g>
     <g id="text_14">
      <!-- 0.5 -->
      <g transform="translate(10.736875 318.593103)scale(0.1 -0.1)">
       <use xlink:href="#DejaVuSans-30"/>
       <use x="63.623047" xlink:href="#DejaVuSans-2e"/>
       <use x="95.410156" xlink:href="#DejaVuSans-35"/>
      </g>
     </g>
    </g>
    <g id="ytick_8">
     <g id="line2d_23">
      <g>
       <use style="stroke:#000000;stroke-width:0.8;" x="33.64" xlink:href="#m96f089fb2d" y="285.077026"/>
      </g>
     </g>
     <g id="text_15">
      <!-- 1.0 -->
      <g transform="translate(10.736875 288.876245)scale(0.1 -0.1)">
       <use xlink:href="#DejaVuSans-31"/>
       <use x="63.623047" xlink:href="#DejaVuSans-2e"/>
       <use x="95.410156" xlink:href="#DejaVuSans-30"/>
      </g>
     </g>
    </g>
    <g id="ytick_9">
     <g id="line2d_24">
      <g>
       <use style="stroke:#000000;stroke-width:0.8;" x="33.64" xlink:href="#m96f089fb2d" y="255.360167"/>
      </g>
     </g>
     <g id="text_16">
      <!-- 1.5 -->
      <g transform="translate(10.736875 259.159386)scale(0.1 -0.1)">
       <use xlink:href="#DejaVuSans-31"/>
       <use x="63.623047" xlink:href="#DejaVuSans-2e"/>
       <use x="95.410156" xlink:href="#DejaVuSans-35"/>
      </g>
     </g>
    </g>
    <g id="ytick_10">
     <g id="line2d_25">
      <g>
       <use style="stroke:#000000;stroke-width:0.8;" x="33.64" xlink:href="#m96f089fb2d" y="225.643309"/>
      </g>
     </g>
     <g id="text_17">
      <!-- 2.0 -->
      <g transform="translate(10.736875 229.442528)scale(0.1 -0.1)">
       <use xlink:href="#DejaVuSans-32"/>
       <use x="63.623047" xlink:href="#DejaVuSans-2e"/>
       <use x="95.410156" xlink:href="#DejaVuSans-30"/>
      </g>
     </g>
    </g>
    <g id="ytick_11">
     <g id="line2d_26">
      <g>
       <use style="stroke:#000000;stroke-width:0.8;" x="33.64" xlink:href="#m96f089fb2d" y="195.926451"/>
      </g>
     </g>
     <g id="text_18">
      <!-- 2.5 -->
      <g transform="translate(10.736875 199.72567)scale(0.1 -0.1)">
       <use xlink:href="#DejaVuSans-32"/>
       <use x="63.623047" xlink:href="#DejaVuSans-2e"/>
       <use x="95.410156" xlink:href="#DejaVuSans-35"/>
      </g>
     </g>
    </g>
   </g>
   <g id="line2d_27">
    <path clip-path="url(#p70acc5f711)" d="M 52.450909 248.731277 
L 53.823968 248.495531 
L 55.197027 248.465404 
L 56.570086 248.311078 
L 57.943145 248.370996 
L 62.062322 248.126605 
L 64.808441 248.568044 
L 68.927618 248.419621 
L 70.300677 248.360604 
L 71.673736 248.164316 
L 73.046795 248.096121 
L 74.419854 247.739564 
L 77.165972 247.798493 
L 78.539031 248.136263 
L 79.91209 248.276698 
L 82.658208 248.262335 
L 84.031267 248.348765 
L 86.777386 248.811376 
L 88.150445 248.915225 
L 89.523504 248.808603 
L 90.896563 248.935799 
L 100.507976 248.448989 
L 101.881035 248.446631 
L 104.627153 248.206189 
L 106.000212 248.112433 
L 112.865508 248.217551 
L 114.238567 248.129436 
L 115.611626 248.187659 
L 119.730803 247.658867 
L 123.84998 247.840752 
L 125.223039 247.909917 
L 127.969157 248.180309 
L 129.342216 248.313759 
L 136.207512 248.073031 
L 138.95363 248.383177 
L 140.326689 248.430609 
L 143.072807 248.182964 
L 144.445866 247.782463 
L 145.818925 247.592586 
L 147.191984 247.595567 
L 148.565043 247.953883 
L 149.938102 248.190893 
L 152.68422 248.169312 
L 158.176457 247.956377 
L 160.922575 248.178709 
L 166.414811 247.592322 
L 169.160929 247.84487 
L 170.533988 247.794859 
L 171.907047 247.972343 
L 176.026224 247.950923 
L 177.399283 248.295489 
L 178.772342 248.177597 
L 180.145401 246.993843 
L 181.518461 241.277532 
L 182.89152 233.358512 
L 185.637638 213.22817 
L 187.010697 204.515825 
L 188.383756 199.072951 
L 189.756815 197.660592 
L 191.129874 199.087275 
L 193.875992 207.594238 
L 195.249051 212.523792 
L 196.62211 219.325704 
L 197.995169 229.013239 
L 199.368228 242.04669 
L 200.741287 258.337285 
L 203.487405 296.90014 
L 204.860464 311.778182 
L 206.233524 309.807621 
L 207.606583 290.787889 
L 208.979642 267.863331 
L 210.352701 248.726861 
L 211.72576 234.036581 
L 213.098819 223.061584 
L 214.471878 214.81488 
L 217.217996 201.015892 
L 218.591055 195.199161 
L 219.964114 193.236738 
L 221.337173 192.941818 
L 226.829409 193.597995 
L 228.202468 193.68519 
L 229.575528 193.891263 
L 230.948587 194.244099 
L 233.694705 194.684777 
L 237.813882 195.336004 
L 246.052236 197.321744 
L 248.798354 198.292989 
L 251.544472 198.960997 
L 252.917532 199.541254 
L 255.66365 200.240276 
L 257.036709 200.790067 
L 258.409768 201.155896 
L 261.155886 201.684732 
L 265.275063 203.050106 
L 268.021181 204.204851 
L 269.39424 204.590315 
L 270.767299 205.127162 
L 272.140358 205.821853 
L 273.513417 206.284713 
L 276.259536 206.859449 
L 279.005654 207.786205 
L 280.378713 208.166734 
L 285.870949 210.853001 
L 287.244008 211.776199 
L 288.617067 212.383172 
L 294.109303 215.352535 
L 295.482362 216.011107 
L 299.601539 218.378698 
L 303.720717 220.8297 
L 305.093776 221.865679 
L 307.839894 223.368024 
L 311.959071 225.231407 
L 313.33213 225.873112 
L 316.078248 226.653398 
L 317.451307 227.126444 
L 318.824366 227.928568 
L 324.316603 230.424079 
L 327.062721 231.358502 
L 329.808839 232.515942 
L 331.181898 233.286574 
L 338.047193 236.091961 
L 343.539429 237.177247 
L 344.912488 237.254495 
L 347.658607 237.914871 
L 353.150843 239.447842 
L 354.523902 240.107337 
L 355.896961 240.525804 
L 357.27002 241.172261 
L 360.016138 241.742714 
L 361.389197 241.949421 
L 366.881433 243.42661 
L 368.254492 243.783042 
L 369.627551 243.904747 
L 371.00061 243.821978 
L 372.37367 243.886149 
L 373.746729 244.215683 
L 376.492847 244.274153 
L 377.865906 244.472026 
L 379.238965 244.549103 
L 384.731201 246.168562 
L 386.10426 246.312289 
L 388.850378 246.993094 
L 392.969555 247.557311 
L 397.088733 247.380437 
L 399.834851 247.047849 
L 401.20791 246.900423 
L 401.20791 246.900423 
" style="fill:none;stroke:#1f77b4;stroke-linecap:square;stroke-width:1.5;"/>
   </g>
   <g id="line2d_28">
    <path clip-path="url(#p70acc5f711)" d="M 204.860464 317.72 
L 204.860464 187 
" style="fill:none;opacity:0.25;stroke:#000000;stroke-dasharray:5.55,2.4;stroke-dashoffset:0;stroke-width:1.5;"/>
   </g>
   <g id="patch_8">
    <path d="M 33.64 317.72 
L 33.64 187 
" style="fill:none;stroke:#000000;stroke-linecap:square;stroke-linejoin:miter;stroke-width:0.8;"/>
   </g>
   <g id="patch_9">
    <path d="M 447.48 317.72 
L 447.48 187 
" style="fill:none;stroke:#000000;stroke-linecap:square;stroke-linejoin:miter;stroke-width:0.8;"/>
   </g>
   <g id="patch_10">
    <path d="M 33.64 317.72 
L 447.48 317.72 
" style="fill:none;stroke:#000000;stroke-linecap:square;stroke-linejoin:miter;stroke-width:0.8;"/>
   </g>
   <g id="patch_11">
    <path d="M 33.64 187 
L 447.48 187 
" style="fill:none;stroke:#000000;stroke-linecap:square;stroke-linejoin:miter;stroke-width:0.8;"/>
   </g>
   <g id="text_19">
    <!-- The distances between the time series and the shapelet -->
    <defs>
     <path d="M 48.6875 27.296875 
Q 48.6875 37.203125 44.609375 42.84375 
Q 40.53125 48.484375 33.40625 48.484375 
Q 26.265625 48.484375 22.1875 42.84375 
Q 18.109375 37.203125 18.109375 27.296875 
Q 18.109375 17.390625 22.1875 11.75 
Q 26.265625 6.109375 33.40625 6.109375 
Q 40.53125 6.109375 44.609375 11.75 
Q 48.6875 17.390625 48.6875 27.296875 
z
M 18.109375 46.390625 
Q 20.953125 51.265625 25.265625 53.625 
Q 29.59375 56 35.59375 56 
Q 45.5625 56 51.78125 48.09375 
Q 58.015625 40.1875 58.015625 27.296875 
Q 58.015625 14.40625 51.78125 6.484375 
Q 45.5625 -1.421875 35.59375 -1.421875 
Q 29.59375 -1.421875 25.265625 0.953125 
Q 20.953125 3.328125 18.109375 8.203125 
L 18.109375 0 
L 9.078125 0 
L 9.078125 75.984375 
L 18.109375 75.984375 
z
" id="DejaVuSans-62"/>
     <path d="M 4.203125 54.6875 
L 13.1875 54.6875 
L 24.421875 12.015625 
L 35.59375 54.6875 
L 46.1875 54.6875 
L 57.421875 12.015625 
L 68.609375 54.6875 
L 77.59375 54.6875 
L 63.28125 0 
L 52.6875 0 
L 40.921875 44.828125 
L 29.109375 0 
L 18.5 0 
z
" id="DejaVuSans-77"/>
     <path d="M 52 44.1875 
Q 55.375 50.25 60.0625 53.125 
Q 64.75 56 71.09375 56 
Q 79.640625 56 84.28125 50.015625 
Q 88.921875 44.046875 88.921875 33.015625 
L 88.921875 0 
L 79.890625 0 
L 79.890625 32.71875 
Q 79.890625 40.578125 77.09375 44.375 
Q 74.3125 48.1875 68.609375 48.1875 
Q 61.625 48.1875 57.5625 43.546875 
Q 53.515625 38.921875 53.515625 30.90625 
L 53.515625 0 
L 44.484375 0 
L 44.484375 32.71875 
Q 44.484375 40.625 41.703125 44.40625 
Q 38.921875 48.1875 33.109375 48.1875 
Q 26.21875 48.1875 22.15625 43.53125 
Q 18.109375 38.875 18.109375 30.90625 
L 18.109375 0 
L 9.078125 0 
L 9.078125 54.6875 
L 18.109375 54.6875 
L 18.109375 46.1875 
Q 21.1875 51.21875 25.484375 53.609375 
Q 29.78125 56 35.6875 56 
Q 41.65625 56 45.828125 52.96875 
Q 50 49.953125 52 44.1875 
z
" id="DejaVuSans-6d"/>
    </defs>
    <g transform="translate(71.527813 181)scale(0.12 -0.12)">
     <use xlink:href="#DejaVuSans-54"/>
     <use x="61.083984" xlink:href="#DejaVuSans-68"/>
     <use x="124.462891" xlink:href="#DejaVuSans-65"/>
     <use x="185.986328" xlink:href="#DejaVuSans-20"/>
     <use x="217.773438" xlink:href="#DejaVuSans-64"/>
     <use x="281.25" xlink:href="#DejaVuSans-69"/>
     <use x="309.033203" xlink:href="#DejaVuSans-73"/>
     <use x="361.132812" xlink:href="#DejaVuSans-74"/>
     <use x="400.341797" xlink:href="#DejaVuSans-61"/>
     <use x="461.621094" xlink:href="#DejaVuSans-6e"/>
     <use x="525" xlink:href="#DejaVuSans-63"/>
     <use x="579.980469" xlink:href="#DejaVuSans-65"/>
     <use x="641.503906" xlink:href="#DejaVuSans-73"/>
     <use x="693.603516" xlink:href="#DejaVuSans-20"/>
     <use x="725.390625" xlink:href="#DejaVuSans-62"/>
     <use x="788.867188" xlink:href="#DejaVuSans-65"/>
     <use x="850.390625" xlink:href="#DejaVuSans-74"/>
     <use x="889.599609" xlink:href="#DejaVuSans-77"/>
     <use x="971.386719" xlink:href="#DejaVuSans-65"/>
     <use x="1032.910156" xlink:href="#DejaVuSans-65"/>
     <use x="1094.433594" xlink:href="#DejaVuSans-6e"/>
     <use x="1157.8125" xlink:href="#DejaVuSans-20"/>
     <use x="1189.599609" xlink:href="#DejaVuSans-74"/>
     <use x="1228.808594" xlink:href="#DejaVuSans-68"/>
     <use x="1292.1875" xlink:href="#DejaVuSans-65"/>
     <use x="1353.710938" xlink:href="#DejaVuSans-20"/>
     <use x="1385.498047" xlink:href="#DejaVuSans-74"/>
     <use x="1424.707031" xlink:href="#DejaVuSans-69"/>
     <use x="1452.490234" xlink:href="#DejaVuSans-6d"/>
     <use x="1549.902344" xlink:href="#DejaVuSans-65"/>
     <use x="1611.425781" xlink:href="#DejaVuSans-20"/>
     <use x="1643.212891" xlink:href="#DejaVuSans-73"/>
     <use x="1695.3125" xlink:href="#DejaVuSans-65"/>
     <use x="1756.835938" xlink:href="#DejaVuSans-72"/>
     <use x="1797.949219" xlink:href="#DejaVuSans-69"/>
     <use x="1825.732422" xlink:href="#DejaVuSans-65"/>
     <use x="1887.255859" xlink:href="#DejaVuSans-73"/>
     <use x="1939.355469" xlink:href="#DejaVuSans-20"/>
     <use x="1971.142578" xlink:href="#DejaVuSans-61"/>
     <use x="2032.421875" xlink:href="#DejaVuSans-6e"/>
     <use x="2095.800781" xlink:href="#DejaVuSans-64"/>
     <use x="2159.277344" xlink:href="#DejaVuSans-20"/>
     <use x="2191.064453" xlink:href="#DejaVuSans-74"/>
     <use x="2230.273438" xlink:href="#DejaVuSans-68"/>
     <use x="2293.652344" xlink:href="#DejaVuSans-65"/>
     <use x="2355.175781" xlink:href="#DejaVuSans-20"/>
     <use x="2386.962891" xlink:href="#DejaVuSans-73"/>
     <use x="2439.0625" xlink:href="#DejaVuSans-68"/>
     <use x="2502.441406" xlink:href="#DejaVuSans-61"/>
     <use x="2563.720703" xlink:href="#DejaVuSans-70"/>
     <use x="2627.197266" xlink:href="#DejaVuSans-65"/>
     <use x="2688.720703" xlink:href="#DejaVuSans-6c"/>
     <use x="2716.503906" xlink:href="#DejaVuSans-65"/>
     <use x="2778.027344" xlink:href="#DejaVuSans-74"/>
    </g>
   </g>
  </g>
 </g>
 <defs>
  <clipPath id="pd7b004abf9">
   <rect height="130.72" width="413.84" x="33.64" y="26.88"/>
  </clipPath>
  <clipPath id="p70acc5f711">
   <rect height="130.72" width="413.84" x="33.64" y="187"/>
  </clipPath>
 </defs>
</svg>
